<svg width="160" height="160" viewBox="0 0 160 160" fill="none" xmlns="http://www.w3.org/2000/svg">
<path d="M79.8552 130.994C79.8552 130.994 71.0895 107.029 53.0122 102.181C34.9408 97.3259 20.7211 100.103 17 108.121L79.8552 131V130.994Z" fill="#00AF10"/>
<path d="M81.2915 77.8123C86.5082 97.2902 85.5764 116.353 79.8612 130.994C67.5881 121.178 57.2438 105.154 52.0212 85.6581C46.7986 66.1623 47.7422 47.0998 53.4634 32.4766C65.7365 42.2927 76.0689 58.3225 81.2915 77.8123Z" fill="url(#paint0_radial_1955_28266)"/>
<path d="M79.8555 130.994C79.8555 130.994 88.6211 107.029 106.698 102.181C124.77 97.3259 138.99 100.103 142.711 108.121L79.8555 131V130.994Z" fill="#00AF10"/>
<path d="M67.4749 79.254C77.5581 96.7141 81.5878 115.373 79.8549 130.993C65.463 124.685 51.3205 111.883 41.2313 94.4054C31.1422 76.9275 27.1185 58.2686 28.8573 42.6602C43.2492 48.9688 57.3858 61.7761 67.4749 79.248V79.254Z" fill="url(#paint1_radial_1955_28266)"/>
<path d="M78.5913 77.8123C73.3746 97.2902 74.3064 116.353 80.0216 130.994C92.2947 121.178 102.639 105.154 107.862 85.6581C113.084 66.1623 112.141 47.0998 106.419 32.4766C94.1463 42.2927 83.8139 58.3225 78.5913 77.8123Z" fill="url(#paint2_radial_1955_28266)"/>
<path d="M92.0856 79.254C82.0024 96.7141 77.9727 115.373 79.7057 130.993C94.0975 124.685 108.24 111.883 118.329 94.4054C128.418 76.9275 132.442 58.2686 130.703 42.6602C116.311 48.9688 102.175 61.7761 92.0856 79.248V79.254Z" fill="url(#paint3_radial_1955_28266)"/>
<path d="M95.0061 79.9975C95.0061 100.164 89.1722 118.336 79.8605 130.995C70.5489 118.336 64.7031 100.182 64.7031 79.9975C64.7031 59.8133 70.5429 41.6411 79.8546 29C89.1663 41.6589 95.0001 59.8133 95.0001 79.9975H95.0061Z" fill="url(#paint4_radial_1955_28266)"/>
<path d="M17 108.116C27.4452 100.78 39.4572 104.792 50.1754 109.012C60.8936 113.232 71.4575 122.335 79.8493 130.988L17 108.116Z" fill="#00770E"/>
<path d="M142.705 108.116C132.26 100.78 120.248 104.792 109.529 109.012C98.8052 113.232 88.2472 122.335 79.8555 130.988L142.711 108.11L142.705 108.116Z" fill="#00770E"/>
<path d="M83.5651 103.629C83.4761 104.656 92.9301 105.463 93.0192 104.436" stroke="black" stroke-width="2" stroke-miterlimit="10" stroke-linecap="round"/>
<path d="M76.1045 103.629C76.1935 104.656 66.7394 105.463 66.6504 104.436" stroke="black" stroke-width="2" stroke-miterlimit="10" stroke-linecap="round"/>
<defs>
<radialGradient id="paint0_radial_1955_28266" cx="0" cy="0" r="1" gradientUnits="userSpaceOnUse" gradientTransform="translate(69.4157 93.2583) rotate(75) scale(33.7807 11.4854)">
<stop stop-color="#FCB9E9"/>
<stop offset="1" stop-color="#E5EAD8"/>
</radialGradient>
<radialGradient id="paint1_radial_1955_28266" cx="0" cy="0" r="1" gradientUnits="userSpaceOnUse" gradientTransform="translate(60.0053 97.243) rotate(60) scale(33.7807 11.4854)">
<stop stop-color="#FCB9E9"/>
<stop offset="1" stop-color="#F0F4E6"/>
</radialGradient>
<radialGradient id="paint2_radial_1955_28266" cx="0" cy="0" r="1" gradientUnits="userSpaceOnUse" gradientTransform="translate(90.4671 93.2583) rotate(105) scale(33.7807 11.4854)">
<stop stop-color="#FCB9E9"/>
<stop offset="1" stop-color="#E5EAD8"/>
</radialGradient>
<radialGradient id="paint3_radial_1955_28266" cx="0" cy="0" r="1" gradientUnits="userSpaceOnUse" gradientTransform="translate(99.5553 97.243) rotate(120) scale(33.7807 11.4854)">
<stop stop-color="#FCB9E9"/>
<stop offset="1" stop-color="#F0F4E6"/>
</radialGradient>
<radialGradient id="paint4_radial_1955_28266" cx="0" cy="0" r="1" gradientUnits="userSpaceOnUse" gradientTransform="translate(79.5346 91.8374) rotate(90) scale(33.7807 11.4855)">
<stop stop-color="#FCB9E9"/>
<stop offset="1" stop-color="#F5F7F0"/>
</radialGradient>
</defs>
</svg>
