<svg width="160" height="160" viewBox="0 0 160 160" fill="none" xmlns="http://www.w3.org/2000/svg">
<path d="M41.8076 124.678V144.02L39.3257 146.502C38.7729 147.055 39.1621 147.997 39.9462 147.997H62.0751V124.672" fill="#8BDB00"/>
<path d="M86.9471 124.678V144.02L89.4291 146.502C89.9819 147.055 89.5927 147.997 88.8086 147.997H66.6797V124.672" fill="#8BDB00"/>
<path d="M23.796 132.691C20.2367 132.691 17.1794 130.006 16.7958 126.39C13.8682 99.0211 33.6167 87.9257 34.4572 87.4688L41.2036 99.8503L41.2713 99.8109C40.7636 100.099 28.9179 107.133 30.8132 124.884C31.225 128.754 28.4215 132.229 24.5519 132.646C24.2981 132.674 24.0442 132.686 23.796 132.686V132.691Z" fill="#8BDB00"/>
<path d="M104.958 132.689C104.704 132.689 104.456 132.678 104.202 132.65C100.332 132.238 97.5287 128.763 97.9405 124.888C99.8415 107.131 87.9901 100.102 87.4824 99.8148L87.5501 99.8543L94.2965 87.4727C95.137 87.9296 114.886 99.025 111.958 126.394C111.569 130.01 108.511 132.695 104.958 132.695V132.689Z" fill="#8BDB00"/>
<path d="M106.74 114.91C125.704 95.9453 128.773 67.0079 116.098 44.3262C119.105 39.7741 117.057 31.8938 111.038 25.8751C105.025 19.862 97.1392 17.8087 92.587 20.8153C69.9053 8.14038 40.9736 11.209 22.0035 30.1734C3.04473 49.1322 -0.0295134 78.047 12.6285 100.729C9.49218 105.258 11.5285 113.234 17.598 119.31C23.6732 125.385 31.6493 127.415 36.1789 124.279C58.855 136.937 87.7754 133.863 106.734 114.904L106.74 114.91Z" fill="#A0FF0B"/>
<path d="M86.3773 90.4961L77.9668 101.321L89.8181 103.013" stroke="black" stroke-width="4" stroke-linecap="square" stroke-linejoin="round"/>
<path d="M42.3784 90.4961L50.7889 101.321L38.9375 103.013" stroke="black" stroke-width="4" stroke-linecap="square" stroke-linejoin="round"/>
<path d="M101.443 28.4373C101.443 19.3613 108.805 12 117.881 12" stroke="#8BDB00" stroke-width="8" stroke-miterlimit="10"/>
<path d="M99.4164 110.087C99.8837 110.087 100.263 109.708 100.263 109.241C100.263 108.773 99.8837 108.395 99.4164 108.395C98.9491 108.395 98.5703 108.773 98.5703 109.241C98.5703 109.708 98.9491 110.087 99.4164 110.087Z" fill="#88C600"/>
<path d="M96.3325 113.227C96.7998 113.227 97.1786 112.849 97.1786 112.381C97.1786 111.914 96.7998 111.535 96.3325 111.535C95.8652 111.535 95.4863 111.914 95.4863 112.381C95.4863 112.849 95.8652 113.227 96.3325 113.227Z" fill="#88C600"/>
<path d="M100.598 114.333C101.065 114.333 101.444 113.954 101.444 113.487C101.444 113.019 101.065 112.641 100.598 112.641C100.131 112.641 99.752 113.019 99.752 113.487C99.752 113.954 100.131 114.333 100.598 114.333Z" fill="#88C600"/>
<path d="M106.155 103.016C106.622 103.016 107.001 102.638 107.001 102.17C107.001 101.703 106.622 101.324 106.155 101.324C105.687 101.324 105.309 101.703 105.309 102.17C105.309 102.638 105.687 103.016 106.155 103.016Z" fill="#88C600"/>
<path d="M103.067 106.153C103.534 106.153 103.913 105.774 103.913 105.307C103.913 104.84 103.534 104.461 103.067 104.461C102.6 104.461 102.221 104.84 102.221 105.307C102.221 105.774 102.6 106.153 103.067 106.153Z" fill="#88C600"/>
<path d="M107.33 107.263C107.798 107.263 108.177 106.884 108.177 106.416C108.177 105.949 107.798 105.57 107.33 105.57C106.863 105.57 106.484 105.949 106.484 106.416C106.484 106.884 106.863 107.263 107.33 107.263Z" fill="#88C600"/>
<path d="M27.0063 38.5008C27.4736 38.5008 27.8524 38.122 27.8524 37.6547C27.8524 37.1874 27.4736 36.8086 27.0063 36.8086C26.539 36.8086 26.1602 37.1874 26.1602 37.6547C26.1602 38.122 26.539 38.5008 27.0063 38.5008Z" fill="#88C600"/>
<path d="M30.0981 35.3524C30.5654 35.3524 30.9442 34.9736 30.9442 34.5063C30.9442 34.039 30.5654 33.6602 30.0981 33.6602C29.6308 33.6602 29.252 34.039 29.252 34.5063C29.252 34.9736 29.6308 35.3524 30.0981 35.3524Z" fill="#88C600"/>
<path d="M25.8285 34.2547C26.2958 34.2547 26.6747 33.8759 26.6747 33.4086C26.6747 32.9413 26.2958 32.5625 25.8285 32.5625C25.3612 32.5625 24.9824 32.9413 24.9824 33.4086C24.9824 33.8759 25.3612 34.2547 25.8285 34.2547Z" fill="#88C600"/>
<path d="M20.2758 45.5751C20.7431 45.5751 21.1219 45.1962 21.1219 44.7289C21.1219 44.2616 20.7431 43.8828 20.2758 43.8828C19.8085 43.8828 19.4297 44.2616 19.4297 44.7289C19.4297 45.1962 19.8085 45.5751 20.2758 45.5751Z" fill="#88C600"/>
<path d="M23.3617 42.4227C23.829 42.4227 24.2079 42.0439 24.2079 41.5766C24.2079 41.1093 23.829 40.7305 23.3617 40.7305C22.8944 40.7305 22.5156 41.1093 22.5156 41.5766C22.5156 42.0439 22.8944 42.4227 23.3617 42.4227Z" fill="#88C600"/>
<path d="M19.0922 41.3251C19.5595 41.3251 19.9383 40.9462 19.9383 40.4789C19.9383 40.0116 19.5595 39.6328 19.0922 39.6328C18.6249 39.6328 18.2461 40.0116 18.2461 40.4789C18.2461 40.9462 18.6249 41.3251 19.0922 41.3251Z" fill="#88C600"/>
<path d="M153.8 72.5775L102.678 21.4604C115.471 18.8544 130.194 23.2147 141.114 34.1353C152.046 45.0672 156.401 59.7841 153.8 72.5775Z" fill="#7EBF00"/>
<path d="M153.8 72.5741C141.001 75.1745 126.284 70.8142 115.358 59.8879C104.431 48.9617 100.077 34.256 102.677 21.457L153.8 72.5741Z" fill="#8BDB00"/>
</svg>
