<svg width="160" height="160" viewBox="0 0 160 160" fill="none" xmlns="http://www.w3.org/2000/svg">
<path d="M98.8133 127.003C98.8133 135.983 91.2503 143.815 80.0053 148.001C68.7603 143.815 61.1914 135.977 61.1914 127.003C61.1914 118.029 68.7603 110.197 80.0053 106.012C91.2503 110.197 98.8133 118.035 98.8133 127.003Z" fill="#00770E"/>
<path d="M98.8133 85.0072C98.8133 93.9868 91.2503 101.819 80.0053 106.005C68.7603 101.819 61.1914 93.9809 61.1914 85.0072C61.1914 76.0334 68.7603 68.2011 80.0053 64.0156C91.2503 68.2011 98.8133 76.0392 98.8133 85.0072Z" fill="#00770E"/>
<path d="M112.584 93.8867C126.516 93.8867 138.68 98.757 145.177 106.004C138.68 113.251 126.516 118.127 112.584 118.127C98.6519 118.127 86.4996 113.251 80.002 106.004C86.4996 98.757 98.6636 93.8867 112.584 93.8867Z" fill="#00770E"/>
<path d="M47.4041 93.8867C61.336 93.8867 73.5 98.757 79.9977 106.004C73.5 113.251 61.336 118.127 47.4041 118.127C33.4722 118.127 21.3199 113.251 14.8223 106.004C21.3199 98.757 33.484 93.8867 47.4041 93.8867Z" fill="#00770E"/>
<path d="M107.45 67.8812C102.305 87.0932 92.1019 102.916 80.0023 112.598C74.3651 98.1568 73.4286 79.3662 78.5798 60.1425C83.7311 40.913 93.94 25.0962 106.04 15.4258C111.677 29.8611 112.602 48.6516 107.45 67.8812Z" fill="#FFBF0B"/>
<path d="M81.4152 60.1464C86.5607 79.3584 85.6416 98.1607 80.0045 112.602C67.899 102.92 57.6959 87.1146 52.5447 67.8851C47.3934 48.6555 48.3241 29.8533 53.9671 15.4297C66.0726 25.1118 76.264 40.9227 81.4152 60.1464Z" fill="#FFBF0B"/>
<path d="M67.786 61.5708C77.7314 78.7925 81.7061 97.1966 79.9968 112.604C65.8015 106.381 51.8521 93.7546 41.9008 76.5154C31.9494 59.2761 27.9806 40.8719 29.6957 25.4766C43.891 31.6991 57.8346 44.3315 67.786 61.5649V61.5708Z" fill="#FFD60D"/>
<path d="M118.087 76.5115C108.142 93.7332 94.198 106.383 79.9969 112.6C78.2876 97.1927 82.2447 78.8003 92.2019 61.561C102.153 44.3217 116.109 31.6835 130.298 25.4727C132.007 40.8797 128.038 59.2663 118.087 76.5056V76.5115Z" fill="#FFD60D"/>
<path d="M94.936 62.3012C94.936 82.1923 89.1818 100.116 79.9973 112.602C70.8128 100.116 65.0469 82.2098 65.0469 62.3012C65.0469 42.3926 70.8128 24.4685 79.9973 12C89.1818 24.486 94.936 42.3926 94.936 62.3012Z" fill="#FFE108"/>
<path d="M66.6504 86.0078C66.6504 87.0264 76.0046 87.0264 76.0046 86.0078" stroke="black" stroke-width="2" stroke-miterlimit="10" stroke-linecap="round"/>
<path d="M83.2168 86.0078C83.2168 87.0264 92.5711 87.0264 92.5711 86.0078" stroke="black" stroke-width="2" stroke-miterlimit="10" stroke-linecap="round"/>
</svg>
