<svg width="160" height="160" viewBox="0 0 160 160" fill="none" xmlns="http://www.w3.org/2000/svg">
<path d="M142.958 108.117C132.881 99.9276 112.353 99.429 98.9224 104.319C85.4981 109.204 82.5663 118.248 80.1094 130.996L142.964 108.117H142.958Z" fill="#00770E"/>
<path d="M107.936 85.6535C102.719 105.131 92.3748 121.173 80.1078 130.989C74.3927 116.348 73.4431 97.2974 78.6657 77.8078C83.8882 58.3183 94.2384 42.2768 106.505 32.4727C112.221 47.1076 113.158 66.158 107.936 85.6535Z" fill="#E5EAD8"/>
<path d="M81.5372 77.8118C86.7538 97.2895 85.8221 116.352 80.1069 130.993C67.834 121.177 57.4898 105.153 52.2673 85.6574C47.0447 66.1619 47.9883 47.0997 53.7094 32.4766C65.9824 42.2926 76.3147 58.3222 81.5372 77.8118Z" fill="#E5EAD8"/>
<path d="M67.7225 79.2535C77.8056 96.7134 81.8352 115.372 80.1023 130.992C65.7106 124.684 51.5682 111.883 41.4792 94.4048C31.3902 76.9271 27.3665 58.2684 29.1054 42.6602C43.497 48.9687 57.6335 61.7758 67.7225 79.2476V79.2535Z" fill="#F0F4E6"/>
<path d="M118.719 94.4048C108.636 111.865 94.4994 124.69 80.1018 130.992C78.3689 115.372 82.3808 96.7253 92.4757 79.2476C102.565 61.7699 116.713 48.9569 131.099 42.6602C132.832 58.2803 128.808 76.9212 118.719 94.3989V94.4048Z" fill="#F0F4E6"/>
<path d="M95.2538 79.9969C95.2538 100.163 89.4199 118.335 80.1084 130.994C70.7969 118.335 64.9512 100.181 64.9512 79.9969C64.9512 59.813 70.7969 41.6409 80.1084 29C89.4199 41.6587 95.2538 59.813 95.2538 79.9969Z" fill="#F5F7F0"/>
<path d="M80.1094 130.995C80.1094 130.995 106.139 104.627 124.21 99.778C142.281 94.9293 153.919 98.6326 142.958 108.122L80.1035 131L80.1094 130.995Z" fill="#00AF10"/>
<path d="M80.1031 130.993C80.1031 130.993 54.0735 104.625 36.0023 99.7767C17.9312 94.9221 6.29322 98.6313 17.2546 108.121L80.1091 130.999L80.1031 130.993Z" fill="#00AF10"/>
<path d="M17.248 108.117C27.3252 99.9276 47.8533 99.429 61.2836 104.319C74.7078 109.204 77.6396 118.248 80.0966 130.996L17.248 108.117Z" fill="#00770E"/>
<path d="M66.9609 104.031H76.4505" stroke="black" stroke-width="2" stroke-miterlimit="10" stroke-linecap="round"/>
<path d="M83.7578 104.031H93.2474" stroke="black" stroke-width="2" stroke-miterlimit="10" stroke-linecap="round"/>
</svg>
