<svg width="160" height="160" viewBox="0 0 160 160" fill="none" xmlns="http://www.w3.org/2000/svg">
<path d="M41.5888 124.681V144.023L39.1069 146.505C38.5541 147.058 38.9433 148 39.7274 148H61.8556V124.676" fill="#FFC200"/>
<path d="M86.7238 124.681V144.023L89.2057 146.505C89.7585 147.058 89.3693 148 88.5852 148H66.457V124.676" fill="#FFC200"/>
<path d="M23.5771 132.686C20.0178 132.686 16.9606 130.001 16.577 126.385C13.6495 99.0169 33.3974 87.9217 34.2378 87.4648L40.984 99.846L41.0517 99.8065C40.5441 100.094 28.6987 107.128 30.594 124.879C31.0058 128.749 28.2024 132.223 24.3329 132.641C24.0791 132.669 23.8252 132.68 23.5771 132.68V132.686Z" fill="#FFC200"/>
<path d="M104.736 132.688C104.483 132.688 104.234 132.677 103.981 132.648C100.111 132.237 97.3077 128.762 97.7195 124.887C99.6203 107.13 87.7694 100.102 87.2617 99.8144L87.3294 99.8538L94.0756 87.4727C94.9161 87.9295 114.664 99.0247 111.736 126.393C111.347 130.009 108.29 132.694 104.736 132.694V132.688Z" fill="#FFC200"/>
<path d="M106.518 114.906C125.482 95.9426 128.55 67.0062 115.876 44.3252C118.882 39.7732 116.834 31.8932 110.816 25.8747C104.803 19.8618 96.9174 17.8086 92.3654 20.815C69.6844 8.14054 40.7536 11.209 21.7842 30.1728C2.82605 49.131 -0.248098 78.0449 12.4095 100.726C9.27329 105.255 11.3096 113.231 17.3789 119.306C23.4538 125.381 31.4297 127.412 35.9591 124.275C58.6344 136.933 87.554 133.859 106.512 114.901L106.518 114.906Z" fill="#FFE000"/>
<path d="M86.1563 90.4961L77.7461 101.32L89.5971 103.018" stroke="black" stroke-width="4" stroke-linecap="square" stroke-linejoin="round"/>
<path d="M42.1595 90.4961L50.5697 101.32L38.7188 103.018" stroke="black" stroke-width="4" stroke-linecap="square" stroke-linejoin="round"/>
<path d="M101.221 28.4368C101.221 19.361 108.582 12 117.658 12" stroke="#00770E" stroke-width="8" stroke-miterlimit="10"/>
<path d="M99.1957 110.087C99.663 110.087 100.042 109.708 100.042 109.241C100.042 108.773 99.663 108.395 99.1957 108.395C98.7284 108.395 98.3496 108.773 98.3496 109.241C98.3496 109.708 98.7284 110.087 99.1957 110.087Z" fill="#B29044"/>
<path d="M96.1117 113.231C96.579 113.231 96.9578 112.852 96.9578 112.385C96.9578 111.918 96.579 111.539 96.1117 111.539C95.6444 111.539 95.2656 111.918 95.2656 112.385C95.2656 112.852 95.6444 113.231 96.1117 113.231Z" fill="#B29044"/>
<path d="M100.375 114.333C100.843 114.333 101.221 113.954 101.221 113.487C101.221 113.019 100.843 112.641 100.375 112.641C99.9081 112.641 99.5293 113.019 99.5293 113.487C99.5293 113.954 99.9081 114.333 100.375 114.333Z" fill="#B29044"/>
<path d="M105.932 103.013C106.399 103.013 106.778 102.634 106.778 102.166C106.778 101.699 106.399 101.32 105.932 101.32C105.465 101.32 105.086 101.699 105.086 102.166C105.086 102.634 105.465 103.013 105.932 103.013Z" fill="#B29044"/>
<path d="M102.844 106.161C103.311 106.161 103.69 105.782 103.69 105.315C103.69 104.848 103.311 104.469 102.844 104.469C102.377 104.469 101.998 104.848 101.998 105.315C101.998 105.782 102.377 106.161 102.844 106.161Z" fill="#B29044"/>
<path d="M107.11 107.259C107.577 107.259 107.956 106.88 107.956 106.413C107.956 105.945 107.577 105.566 107.11 105.566C106.642 105.566 106.264 105.945 106.264 106.413C106.264 106.88 106.642 107.259 107.11 107.259Z" fill="#B29044"/>
<path d="M26.7875 38.4969C27.2548 38.4969 27.6336 38.1181 27.6336 37.6508C27.6336 37.1835 27.2548 36.8047 26.7875 36.8047C26.3202 36.8047 25.9414 37.1835 25.9414 37.6508C25.9414 38.1181 26.3202 38.4969 26.7875 38.4969Z" fill="#B29044"/>
<path d="M29.8793 35.3563C30.3466 35.3563 30.7254 34.9774 30.7254 34.5102C30.7254 34.0429 30.3466 33.6641 29.8793 33.6641C29.412 33.6641 29.0332 34.0429 29.0332 34.5102C29.0332 34.9774 29.412 35.3563 29.8793 35.3563Z" fill="#B29044"/>
<path d="M25.6078 34.2586C26.0751 34.2586 26.4539 33.8798 26.4539 33.4125C26.4539 32.9452 26.0751 32.5664 25.6078 32.5664C25.1405 32.5664 24.7617 32.9452 24.7617 33.4125C24.7617 33.8798 25.1405 34.2586 25.6078 34.2586Z" fill="#B29044"/>
<path d="M20.059 45.5711C20.5263 45.5711 20.9051 45.1923 20.9051 44.725C20.9051 44.2577 20.5263 43.8789 20.059 43.8789C19.5917 43.8789 19.2129 44.2577 19.2129 44.725C19.2129 45.1923 19.5917 45.5711 20.059 45.5711Z" fill="#B29044"/>
<path d="M23.1449 42.4305C23.6122 42.4305 23.991 42.0517 23.991 41.5844C23.991 41.1171 23.6122 40.7383 23.1449 40.7383C22.6776 40.7383 22.2988 41.1171 22.2988 41.5844C22.2988 42.0517 22.6776 42.4305 23.1449 42.4305Z" fill="#B29044"/>
<path d="M18.8734 41.3328C19.3407 41.3328 19.7195 40.954 19.7195 40.4867C19.7195 40.0194 19.3407 39.6406 18.8734 39.6406C18.4062 39.6406 18.0273 40.0194 18.0273 40.4867C18.0273 40.954 18.4062 41.3328 18.8734 41.3328Z" fill="#B29044"/>
<path d="M153.578 72.5758L102.457 21.4604C115.25 18.8544 129.972 23.2146 140.892 34.1349C151.824 45.0664 156.178 59.7828 153.578 72.5758Z" fill="#008C0D"/>
<path d="M153.577 72.5724C140.779 75.1728 126.062 70.8126 115.136 59.8867C104.211 48.9607 99.856 34.2556 102.456 21.457L153.577 72.5724Z" fill="#00A308"/>
</svg>
