<svg width="160" height="160" viewBox="0 0 160 160" fill="none" xmlns="http://www.w3.org/2000/svg">
<path d="M56.4189 124.681V144.023L53.937 146.505C53.3842 147.058 53.7734 148 54.5575 148H76.6856V124.676" fill="#EF8200"/>
<path d="M101.55 124.681V144.023L104.032 146.505C104.585 147.058 104.195 148 103.411 148H81.2832V124.676" fill="#EF8200"/>
<path d="M38.4091 132.686C34.8498 132.686 31.7926 130.001 31.4091 126.385C28.4816 99.0169 48.2294 87.9217 49.0699 87.4648L55.8161 99.846L55.8838 99.8065C55.3761 100.094 43.5308 107.128 45.426 124.879C45.8378 128.749 43.0344 132.223 39.1649 132.641C38.9111 132.669 38.6573 132.68 38.4091 132.68V132.686Z" fill="#EF8200"/>
<path d="M119.561 132.688C119.307 132.688 119.059 132.677 118.805 132.648C114.935 132.237 112.132 128.762 112.544 124.887C114.445 107.13 102.594 100.102 102.086 99.8144L102.154 99.8538L108.9 87.4727C109.74 87.9295 129.488 99.0247 126.561 126.393C126.171 130.009 123.114 132.694 119.561 132.694V132.688Z" fill="#EF8200"/>
<path d="M78.9881 131.976C112.119 131.976 138.976 105.119 138.976 71.9881C138.976 38.8576 112.119 12 78.9881 12C45.8576 12 19 38.8576 19 71.9881C19 105.119 45.8576 131.976 78.9881 131.976Z" fill="#FF9100"/>
<path d="M78.9883 88.9961C78.9883 96.6335 72.8005 102.821 65.1631 102.821C57.5257 102.821 51.3379 96.6335 51.3379 88.9961" fill="white"/>
<path d="M78.1858 88.9961C78.1858 94.8454 73.442 99.5948 67.587 99.5948C61.7321 99.5948 56.9883 94.8511 56.9883 88.9961" fill="black"/>
<path d="M106.637 88.9961C106.637 96.6335 100.449 102.821 92.8115 102.821C85.1741 102.821 78.9863 96.6335 78.9863 88.9961" fill="white"/>
<path d="M105.836 88.9961C105.836 94.8454 101.092 99.5948 95.2374 99.5948C89.3824 99.5948 84.6387 94.8511 84.6387 88.9961" fill="black"/>
<path d="M105.566 16.2464V21.8701L112.882 25.5591L105.566 25.3504V30.9741L101.042 25.2207L93.7266 25.0063L98.2447 21.6614L93.7266 15.9023L101.042 19.5913L105.566 16.2464Z" fill="#00770E"/>
<path d="M41.9281 35.2313C42.3954 35.2313 42.7742 34.8524 42.7742 34.3852C42.7742 33.9179 42.3954 33.5391 41.9281 33.5391C41.4608 33.5391 41.082 33.9179 41.082 34.3852C41.082 34.8524 41.4608 35.2313 41.9281 35.2313Z" fill="#008C03"/>
<path d="M38.8422 38.3758C39.3095 38.3758 39.6883 37.997 39.6883 37.5297C39.6883 37.0624 39.3095 36.6836 38.8422 36.6836C38.3749 36.6836 37.9961 37.0624 37.9961 37.5297C37.9961 37.997 38.3749 38.3758 38.8422 38.3758Z" fill="#008C03"/>
<path d="M43.1078 39.4813C43.5751 39.4813 43.9539 39.1024 43.9539 38.6352C43.9539 38.1679 43.5751 37.7891 43.1078 37.7891C42.6405 37.7891 42.2617 38.1679 42.2617 38.6352C42.2617 39.1024 42.6405 39.4813 43.1078 39.4813Z" fill="#008C03"/>
<path d="M49.6449 29.9227C50.1122 29.9227 50.491 29.5438 50.491 29.0766C50.491 28.6093 50.1122 28.2305 49.6449 28.2305C49.1776 28.2305 48.7988 28.6093 48.7988 29.0766C48.7988 29.5438 49.1776 29.9227 49.6449 29.9227Z" fill="#008C03"/>
<path d="M45.7641 32.0125C46.2313 32.0125 46.6102 31.6337 46.6102 31.1664C46.6102 30.6991 46.2313 30.3203 45.7641 30.3203C45.2968 30.3203 44.918 30.6991 44.918 31.1664C44.918 31.6337 45.2968 32.0125 45.7641 32.0125Z" fill="#008C03"/>
<path d="M49.5141 34.325C49.9813 34.325 50.3602 33.9462 50.3602 33.4789C50.3602 33.0116 49.9813 32.6328 49.5141 32.6328C49.0468 32.6328 48.668 33.0116 48.668 33.4789C48.668 33.9462 49.0468 34.325 49.5141 34.325Z" fill="#008C03"/>
<path d="M135.438 38.6238C134.728 31.4658 126.921 23.1967 119.758 19.818C112.6 16.4449 107.901 18.8139 101.922 22.8244L135.438 38.6238Z" fill="#00770E"/>
<path d="M101.922 22.8203C101.922 22.8203 122.448 22.7752 131.405 27.9928C140.363 33.2104 143.448 39.2345 135.438 38.6253L101.922 22.8203Z" fill="#00AF10"/>
</svg>
