<svg width="160" height="160" viewBox="0 0 160 160" fill="none" xmlns="http://www.w3.org/2000/svg">
<path d="M64.7882 136.135C61.7915 136.135 59.3594 133.702 59.3594 130.706C59.3594 120.948 67.2999 113.008 77.0573 113.008C80.0541 113.008 82.4862 115.44 82.4862 118.437C82.4862 121.433 80.0541 123.865 77.0573 123.865C73.2861 123.865 70.217 126.935 70.217 130.706C70.217 133.702 67.7849 136.135 64.7882 136.135Z" fill="#0EB700"/>
<path d="M149.833 136.135C146.836 136.135 144.404 133.702 144.404 130.706C144.404 126.935 141.335 123.865 137.564 123.865C134.567 123.865 132.135 121.433 132.135 118.437C132.135 115.44 134.567 113.008 137.564 113.008C147.321 113.008 155.262 120.948 155.262 130.706C155.262 133.702 152.829 136.135 149.833 136.135Z" fill="#0EB700"/>
<path d="M22.698 94.7088C12.9406 94.7088 5 86.7683 5 77.0109C5 74.0141 7.43211 71.582 10.4288 71.582C13.4255 71.582 15.8576 74.0141 15.8576 77.0109C15.8576 80.7821 18.9267 83.8512 22.698 83.8512C25.6947 83.8512 28.1268 86.2833 28.1268 89.28C28.1268 92.2767 25.6947 94.7088 22.698 94.7088Z" fill="#0EB700"/>
<path d="M95.4645 77.0117C95.4645 83.7869 89.9705 89.2809 83.1953 89.2809" stroke="#0EB700" stroke-width="15" stroke-miterlimit="10" stroke-linecap="round"/>
<path d="M52.9464 102.666C75.993 102.666 94.6759 83.9832 94.6759 60.9366C94.6759 37.89 75.993 19.207 52.9464 19.207C29.8998 19.207 11.2168 37.89 11.2168 60.9366C11.2168 83.9832 29.8998 102.666 52.9464 102.666Z" fill="#10D800"/>
<path d="M44.774 30.4312L33.8874 38.8061L36.1313 30.5905L19.1934 32.9719L35.0528 26.5659L29.0014 20.5653L42.6169 22.3821L53.5035 14L51.2596 22.2229L68.1976 19.8414L52.3381 26.2474L58.3895 32.2409L44.774 30.4312Z" fill="#00770E"/>
<path d="M107.314 146.998C130.36 146.998 149.043 128.315 149.043 105.269C149.043 82.222 130.36 63.5391 107.314 63.5391C84.2669 63.5391 65.584 82.222 65.584 105.269C65.584 128.315 84.2669 146.998 107.314 146.998Z" fill="#0AC900"/>
<path d="M115.486 74.7672L126.365 83.142L124.129 74.9264L141.059 77.3079L125.207 70.9019L131.259 64.9012L117.643 66.718L106.757 58.3359L109 66.5588L92.0625 64.1774L107.922 70.5834L101.871 76.584L115.486 74.7672Z" fill="#00770E"/>
<path d="M98.6423 133.246C103.432 133.246 107.314 129.363 107.314 124.574C107.314 119.785 103.432 115.902 98.6423 115.902C93.8531 115.902 89.9707 119.785 89.9707 124.574C89.9707 129.363 93.8531 133.246 98.6423 133.246Z" fill="white"/>
<path d="M115.986 133.246C120.775 133.246 124.658 129.363 124.658 124.574C124.658 119.785 120.775 115.902 115.986 115.902C111.197 115.902 107.314 119.785 107.314 124.574C107.314 129.363 111.197 133.246 115.986 133.246Z" fill="white"/>
<path d="M115.987 130.704C120.077 130.704 123.392 127.389 123.392 123.299C123.392 119.21 120.077 115.895 115.987 115.895C111.897 115.895 108.582 119.21 108.582 123.299C108.582 127.389 111.897 130.704 115.987 130.704Z" fill="black"/>
<path d="M98.6412 130.704C102.731 130.704 106.046 127.389 106.046 123.299C106.046 119.21 102.731 115.895 98.6412 115.895C94.5516 115.895 91.2363 119.21 91.2363 123.299C91.2363 127.389 94.5516 130.704 98.6412 130.704Z" fill="black"/>
<path d="M44.2752 89.2808C49.0644 89.2808 52.9468 85.3984 52.9468 80.6091C52.9468 75.8199 49.0644 71.9375 44.2752 71.9375C39.4859 71.9375 35.6035 75.8199 35.6035 80.6091C35.6035 85.3984 39.4859 89.2808 44.2752 89.2808Z" fill="white"/>
<path d="M61.617 89.2808C66.4062 89.2808 70.2886 85.3984 70.2886 80.6091C70.2886 75.8199 66.4062 71.9375 61.617 71.9375C56.8277 71.9375 52.9453 75.8199 52.9453 80.6091C52.9453 85.3984 56.8277 89.2808 61.617 89.2808Z" fill="white"/>
<path d="M61.6178 89.2786C65.7074 89.2786 69.0227 85.9633 69.0227 81.8737C69.0227 77.784 65.7074 74.4688 61.6178 74.4688C57.5282 74.4688 54.2129 77.784 54.2129 81.8737C54.2129 85.9633 57.5282 89.2786 61.6178 89.2786Z" fill="black"/>
<path d="M44.2741 89.2786C48.3637 89.2786 51.679 85.9633 51.679 81.8737C51.679 77.784 48.3637 74.4688 44.2741 74.4688C40.1844 74.4688 36.8691 77.784 36.8691 81.8737C36.8691 85.9633 40.1844 89.2786 44.2741 89.2786Z" fill="black"/>
<path d="M87.2567 129.849C87.6725 129.849 88.0095 129.512 88.0095 129.097C88.0095 128.681 87.6725 128.344 87.2567 128.344C86.8409 128.344 86.5039 128.681 86.5039 129.097C86.5039 129.512 86.8409 129.849 87.2567 129.849Z" fill="#DAF7B0"/>
<path d="M85.3016 133.248C85.7174 133.248 86.0544 132.911 86.0544 132.495C86.0544 132.079 85.7174 131.742 85.3016 131.742C84.8859 131.742 84.5488 132.079 84.5488 132.495C84.5488 132.911 84.8859 133.248 85.3016 133.248Z" fill="#DAF7B0"/>
<path d="M89.2176 133.248C89.6334 133.248 89.9704 132.911 89.9704 132.495C89.9704 132.079 89.6334 131.742 89.2176 131.742C88.8019 131.742 88.4648 132.079 88.4648 132.495C88.4648 132.911 88.8019 133.248 89.2176 133.248Z" fill="#DAF7B0"/>
<path d="M127.364 129.849C127.78 129.849 128.117 129.512 128.117 129.097C128.117 128.681 127.78 128.344 127.364 128.344C126.948 128.344 126.611 128.681 126.611 129.097C126.611 129.512 126.948 129.849 127.364 129.849Z" fill="#DAF7B0"/>
<path d="M125.403 133.248C125.819 133.248 126.156 132.911 126.156 132.495C126.156 132.079 125.819 131.742 125.403 131.742C124.987 131.742 124.65 132.079 124.65 132.495C124.65 132.911 124.987 133.248 125.403 133.248Z" fill="#DAF7B0"/>
<path d="M129.319 133.248C129.735 133.248 130.072 132.911 130.072 132.495C130.072 132.079 129.735 131.742 129.319 131.742C128.903 131.742 128.566 132.079 128.566 132.495C128.566 132.911 128.903 133.248 129.319 133.248Z" fill="#DAF7B0"/>
<path d="M32.8973 85.8845C33.3131 85.8845 33.6501 85.5475 33.6501 85.1317C33.6501 84.7159 33.3131 84.3789 32.8973 84.3789C32.4816 84.3789 32.1445 84.7159 32.1445 85.1317C32.1445 85.5475 32.4816 85.8845 32.8973 85.8845Z" fill="#DAF7B0"/>
<path d="M30.9344 89.2829C31.3502 89.2829 31.6872 88.9459 31.6872 88.5301C31.6872 88.1144 31.3502 87.7773 30.9344 87.7773C30.5187 87.7773 30.1816 88.1144 30.1816 88.5301C30.1816 88.9459 30.5187 89.2829 30.9344 89.2829Z" fill="#DAF7B0"/>
<path d="M34.8505 89.2829C35.2662 89.2829 35.6033 88.9459 35.6033 88.5301C35.6033 88.1144 35.2662 87.7773 34.8505 87.7773C34.4347 87.7773 34.0977 88.1144 34.0977 88.5301C34.0977 88.9459 34.4347 89.2829 34.8505 89.2829Z" fill="#DAF7B0"/>
</svg>
