<svg width="160" height="160" viewBox="0 0 160 160" fill="none" xmlns="http://www.w3.org/2000/svg">
<path d="M58.9024 125.251V143.291L56.5875 145.606C56.0719 146.122 56.4349 147 57.1662 147H77.8052V125.246" fill="#FFAA00"/>
<path d="M100.995 125.251V143.291L103.309 145.606C103.825 146.122 103.462 147 102.731 147H82.0918V125.246" fill="#FFAA00"/>
<path d="M42.1036 132.721C38.7839 132.721 35.9324 130.216 35.5747 126.844C32.8442 101.318 51.263 90.9744 52.0469 90.543L58.3391 102.091L58.4022 102.054C57.9287 102.322 46.8806 108.883 48.6483 125.439C49.0324 129.048 46.4176 132.289 42.8086 132.678C42.5718 132.705 42.3351 132.715 42.1036 132.715V132.721Z" fill="#FFAA00"/>
<path d="M117.799 132.719C117.567 132.719 117.33 132.709 117.094 132.682C113.485 132.298 110.87 129.057 111.254 125.443C113.027 108.882 101.973 102.326 101.5 102.058L101.563 102.095L107.855 90.5469C108.639 90.973 127.058 101.321 124.328 126.848C123.965 130.22 121.113 132.724 117.799 132.724V132.719Z" fill="#FFAA00"/>
<path d="M79.9509 130.542C110.852 130.542 135.902 105.492 135.902 74.5915C135.902 43.6907 110.852 18.6406 79.9509 18.6406C49.0501 18.6406 24 43.6907 24 74.5915C24 105.492 49.0501 130.542 79.9509 130.542Z" fill="#FFC200"/>
<path d="M79.9525 32.2452L62.9489 39.3213L68.6992 29.4516L45.9453 26.6633L68.6992 23.8697L62.9489 14L79.9525 21.0761L96.9561 14L91.2005 23.8697L113.96 26.6633L91.2005 29.4516L96.9561 39.3213L79.9525 32.2452Z" fill="#00770E"/>
<path d="M67.051 103.352C74.1726 103.352 79.9457 97.5788 79.9457 90.4572C79.9457 83.3357 74.1726 77.5625 67.051 77.5625C59.9294 77.5625 54.1562 83.3357 54.1562 90.4572C54.1562 97.5788 59.9294 103.352 67.051 103.352Z" fill="white"/>
<circle opacity="0.4" cx="106" cy="102" r="10" fill="url(#paint0_radial_1955_28260)"/>
<circle opacity="0.4" cx="53" cy="102" r="10" fill="url(#paint1_radial_1955_28260)"/>
<path d="M67.0515 100.345C72.511 100.345 76.9369 95.9192 76.9369 90.4597C76.9369 85.0001 72.511 80.5742 67.0515 80.5742C61.5919 80.5742 57.166 85.0001 57.166 90.4597C57.166 95.9192 61.5919 100.345 67.0515 100.345Z" fill="black"/>
<path d="M92.8459 103.352C99.9675 103.352 105.741 97.5788 105.741 90.4572C105.741 83.3357 99.9675 77.5625 92.8459 77.5625C85.7243 77.5625 79.9512 83.3357 79.9512 90.4572C79.9512 97.5788 85.7243 103.352 92.8459 103.352Z" fill="white"/>
<path d="M92.8464 100.345C98.306 100.345 102.732 95.9192 102.732 90.4597C102.732 85.0001 98.306 80.5742 92.8464 80.5742C87.3868 80.5742 82.9609 85.0001 82.9609 90.4597C82.9609 95.9192 87.3868 100.345 92.8464 100.345Z" fill="black"/>
<path d="M105.572 99.9963C106.008 99.9963 106.362 99.643 106.362 99.2071C106.362 98.7713 106.008 98.418 105.572 98.418C105.137 98.418 104.783 98.7713 104.783 99.2071C104.783 99.643 105.137 99.9963 105.572 99.9963Z" fill="white"/>
<path d="M103.516 103.559C103.952 103.559 104.305 103.205 104.305 102.77C104.305 102.334 103.952 101.98 103.516 101.98C103.08 101.98 102.727 102.334 102.727 102.77C102.727 103.205 103.08 103.559 103.516 103.559Z" fill="white"/>
<path d="M107.631 103.559C108.067 103.559 108.42 103.205 108.42 102.77C108.42 102.334 108.067 101.98 107.631 101.98C107.195 101.98 106.842 102.334 106.842 102.77C106.842 103.205 107.195 103.559 107.631 103.559Z" fill="white"/>
<path d="M54.3263 99.9963C54.7621 99.9963 55.1154 99.643 55.1154 99.2071C55.1154 98.7713 54.7621 98.418 54.3263 98.418C53.8904 98.418 53.5371 98.7713 53.5371 99.2071C53.5371 99.643 53.8904 99.9963 54.3263 99.9963Z" fill="white"/>
<path d="M52.2735 103.559C52.7094 103.559 53.0627 103.205 53.0627 102.77C53.0627 102.334 52.7094 101.98 52.2735 101.98C51.8377 101.98 51.4844 102.334 51.4844 102.77C51.4844 103.205 51.8377 103.559 52.2735 103.559Z" fill="white"/>
<path d="M56.3829 103.559C56.8187 103.559 57.1721 103.205 57.1721 102.77C57.1721 102.334 56.8187 101.98 56.3829 101.98C55.9471 101.98 55.5938 102.334 55.5938 102.77C55.5938 103.205 55.9471 103.559 56.3829 103.559Z" fill="white"/>
<defs>
<radialGradient id="paint0_radial_1955_28260" cx="0" cy="0" r="1" gradientUnits="userSpaceOnUse" gradientTransform="translate(106 102) rotate(90) scale(10)">
<stop stop-color="#EC4300"/>
<stop offset="1" stop-color="#EC8600" stop-opacity="0"/>
</radialGradient>
<radialGradient id="paint1_radial_1955_28260" cx="0" cy="0" r="1" gradientUnits="userSpaceOnUse" gradientTransform="translate(53 102) rotate(90) scale(10)">
<stop stop-color="#EC4300"/>
<stop offset="1" stop-color="#EC8600" stop-opacity="0"/>
</radialGradient>
</defs>
</svg>
