<svg width="160" height="160" viewBox="0 0 160 160" fill="none" xmlns="http://www.w3.org/2000/svg">
<g clip-path="url(#clip0_1955_28261)">
<path d="M58.6221 125.247V143.287L56.3258 145.602C55.8144 146.117 56.1745 146.996 56.8999 146.996H77.3735V125.242" fill="#F4472A"/>
<path d="M100.378 125.247V143.287L102.675 145.602C103.186 146.117 102.826 146.996 102.101 146.996H81.627V125.242" fill="#F4472A"/>
<path d="M41.9573 132.715C38.6642 132.715 35.8356 130.211 35.4807 126.839C32.7721 101.313 51.0433 90.9652 51.821 90.5391L58.0627 102.087L58.1253 102.05C57.6556 102.318 46.696 108.878 48.4496 125.434C48.8305 129.043 46.2368 132.284 42.6566 132.673C42.4218 132.7 42.1869 132.71 41.9573 132.71V132.715Z" fill="#F4472A"/>
<path d="M117.047 132.718C116.817 132.718 116.582 132.707 116.348 132.681C112.767 132.297 110.174 129.056 110.555 125.442C112.313 108.881 101.349 102.326 100.879 102.058L100.942 102.094L107.183 90.5469C107.961 90.973 126.232 101.321 123.524 126.847C123.163 130.219 120.335 132.723 117.047 132.723V132.718Z" fill="#F4472A"/>
<path d="M79.5026 130.539C110.156 130.539 135.005 105.49 135.005 74.59C135.005 43.69 110.156 18.6406 79.5026 18.6406C48.8494 18.6406 24 43.69 24 74.59C24 105.49 48.8494 130.539 79.5026 130.539Z" fill="#FA5331"/>
<path d="M79.5023 32.2447L62.6349 39.3258L68.3392 29.4564L45.7676 26.6629L68.3392 23.8694L62.6349 14L79.5023 21.0759L96.3697 14L90.6602 23.8694L113.237 26.6629L90.6602 29.4564L96.3697 39.3258L79.5023 32.2447Z" fill="#00770E"/>
<path d="M66.7055 103.351C73.77 103.351 79.4969 97.5783 79.4969 90.4569C79.4969 83.3355 73.77 77.5625 66.7055 77.5625C59.641 77.5625 53.9141 83.3355 53.9141 90.4569C53.9141 97.5783 59.641 103.351 66.7055 103.351Z" fill="white"/>
<path d="M66.7066 100.341C72.1225 100.341 76.5129 95.9149 76.5129 90.4555C76.5129 84.9961 72.1225 80.5703 66.7066 80.5703C61.2908 80.5703 56.9004 84.9961 56.9004 90.4555C56.9004 95.9149 61.2908 100.341 66.7066 100.341Z" fill="black"/>
<path d="M92.2934 103.351C99.3579 103.351 105.085 97.5783 105.085 90.4569C105.085 83.3355 99.3579 77.5625 92.2934 77.5625C85.2289 77.5625 79.502 83.3355 79.502 90.4569C79.502 97.5783 85.2289 103.351 92.2934 103.351Z" fill="white"/>
<path d="M92.2945 100.341C97.7104 100.341 102.101 95.9149 102.101 90.4555C102.101 84.9961 97.7104 80.5703 92.2945 80.5703C86.8787 80.5703 82.4883 84.9961 82.4883 90.4555C82.4883 95.9149 86.8787 100.341 92.2945 100.341Z" fill="black"/>
<path d="M104.918 99.9923C105.35 99.9923 105.7 99.639 105.7 99.2032C105.7 98.7674 105.35 98.4141 104.918 98.4141C104.485 98.4141 104.135 98.7674 104.135 99.2032C104.135 99.639 104.485 99.9923 104.918 99.9923Z" fill="#F8EDAD"/>
<path d="M102.879 103.555C103.311 103.555 103.661 103.202 103.661 102.766C103.661 102.33 103.311 101.977 102.879 101.977C102.446 101.977 102.096 102.33 102.096 102.766C102.096 103.202 102.446 103.555 102.879 103.555Z" fill="#F8EDAD"/>
<path d="M106.959 103.555C107.391 103.555 107.741 103.202 107.741 102.766C107.741 102.33 107.391 101.977 106.959 101.977C106.526 101.977 106.176 102.33 106.176 102.766C106.176 103.202 106.526 103.555 106.959 103.555Z" fill="#F8EDAD"/>
<path d="M54.0817 99.9923C54.514 99.9923 54.8645 99.639 54.8645 99.2032C54.8645 98.7674 54.514 98.4141 54.0817 98.4141C53.6493 98.4141 53.2988 98.7674 53.2988 99.2032C53.2988 99.639 53.6493 99.9923 54.0817 99.9923Z" fill="#F8EDAD"/>
<path d="M52.0465 103.555C52.4788 103.555 52.8293 103.202 52.8293 102.766C52.8293 102.33 52.4788 101.977 52.0465 101.977C51.6142 101.977 51.2637 102.33 51.2637 102.766C51.2637 103.202 51.6142 103.555 52.0465 103.555Z" fill="#F8EDAD"/>
<path d="M56.1227 103.555C56.555 103.555 56.9055 103.202 56.9055 102.766C56.9055 102.33 56.555 101.977 56.1227 101.977C55.6903 101.977 55.3398 102.33 55.3398 102.766C55.3398 103.202 55.6903 103.555 56.1227 103.555Z" fill="#F8EDAD"/>
</g>
<defs>
<clipPath id="clip0_1955_28261">
<rect width="111" height="133" fill="white" transform="translate(24 14)"/>
</clipPath>
</defs>
</svg>
