<svg width="160" height="160" viewBox="0 0 160 160" fill="none" xmlns="http://www.w3.org/2000/svg">
<path d="M75.5039 46.2498L97.7537 24" stroke="#00B200" stroke-width="8" stroke-miterlimit="10"/>
<path d="M21.7355 46.5091C9.75688 58.4878 7.82545 76.7532 15.8262 91.0726C13.9267 93.9442 15.225 98.9198 19.0175 102.719C22.8164 106.518 27.792 107.809 30.6636 105.91C44.983 113.917 63.2548 111.979 75.227 100.001C87.1993 88.0284 89.1371 69.7694 81.1428 55.4564C83.119 52.5976 81.8399 47.558 78.0027 43.7271C74.1654 39.8899 69.1322 38.6108 66.2734 40.587C51.954 32.5926 33.695 34.5369 21.7291 46.5027L21.7355 46.5091Z" fill="#00C900"/>
<path d="M24.8892 103.555C25.7009 102.743 24.8222 100.549 22.9266 98.6531C21.0309 96.7574 18.8361 95.8787 18.0244 96.6904C17.2127 97.5021 18.0914 99.6969 19.9871 101.593C21.8827 103.488 24.0775 104.367 24.8892 103.555Z" fill="#C8FF00"/>
<path d="M34.1126 83.8477L39.3313 90.5629L31.9766 91.6181" stroke="black" stroke-width="2" stroke-linecap="square" stroke-linejoin="round"/>
<path d="M61.4199 83.8477L56.2012 90.5629L63.5559 91.6181" stroke="black" stroke-width="2" stroke-linecap="square" stroke-linejoin="round"/>
<path d="M26.2705 51.3145C26.5602 51.3145 26.7949 51.0797 26.7949 50.7901C26.7949 50.5004 26.5602 50.2656 26.2705 50.2656C25.9809 50.2656 25.7461 50.5004 25.7461 50.7901C25.7461 51.0797 25.9809 51.3145 26.2705 51.3145Z" fill="#C8FF00"/>
<path d="M24.3213 53.2324C24.6109 53.2324 24.8457 52.9977 24.8457 52.708C24.8457 52.4184 24.6109 52.1836 24.3213 52.1836C24.0317 52.1836 23.7969 52.4184 23.7969 52.708C23.7969 52.9977 24.0317 53.2324 24.3213 53.2324Z" fill="#C8FF00"/>
<path d="M23.6358 50.584C23.9254 50.584 24.1602 50.3492 24.1602 50.0596C24.1602 49.77 23.9254 49.5352 23.6358 49.5352C23.3461 49.5352 23.1113 49.77 23.1113 50.0596C23.1113 50.3492 23.3461 50.584 23.6358 50.584Z" fill="#C8FF00"/>
<path d="M30.6592 47.1348C30.9488 47.1348 31.1836 46.9 31.1836 46.6104C31.1836 46.3207 30.9488 46.0859 30.6592 46.0859C30.3696 46.0859 30.1348 46.3207 30.1348 46.6104C30.1348 46.9 30.3696 47.1348 30.6592 47.1348Z" fill="#C8FF00"/>
<path d="M28.708 49.0489C28.9977 49.0489 29.2324 48.8141 29.2324 48.5244C29.2324 48.2348 28.9977 48 28.708 48C28.4184 48 28.1836 48.2348 28.1836 48.5244C28.1836 48.8141 28.4184 49.0489 28.708 49.0489Z" fill="#C8FF00"/>
<path d="M28.0244 46.4004C28.3141 46.4004 28.5489 46.1656 28.5489 45.876C28.5489 45.5863 28.3141 45.3516 28.0244 45.3516C27.7348 45.3516 27.5 45.5863 27.5 45.876C27.5 46.1656 27.7348 46.4004 28.0244 46.4004Z" fill="#C8FF00"/>
<path d="M70.708 96.2598C70.9977 96.2598 71.2324 96.025 71.2324 95.7354C71.2324 95.4457 70.9977 95.2109 70.708 95.2109C70.4184 95.2109 70.1836 95.4457 70.1836 95.7354C70.1836 96.025 70.4184 96.2598 70.708 96.2598Z" fill="#C8FF00"/>
<path d="M72.6572 94.3418C72.9469 94.3418 73.1817 94.107 73.1817 93.8174C73.1817 93.5278 72.9469 93.293 72.6572 93.293C72.3676 93.293 72.1328 93.5278 72.1328 93.8174C72.1328 94.107 72.3676 94.3418 72.6572 94.3418Z" fill="#C8FF00"/>
<path d="M73.3428 96.9903C73.6324 96.9903 73.8672 96.7555 73.8672 96.4658C73.8672 96.1762 73.6324 95.9414 73.3428 95.9414C73.0532 95.9414 72.8184 96.1762 72.8184 96.4658C72.8184 96.7555 73.0532 96.9903 73.3428 96.9903Z" fill="#C8FF00"/>
<path d="M66.3154 100.436C66.6051 100.436 66.8399 100.201 66.8399 99.9111C66.8399 99.6215 66.6051 99.3867 66.3154 99.3867C66.0258 99.3867 65.791 99.6215 65.791 99.9111C65.791 100.201 66.0258 100.436 66.3154 100.436Z" fill="#C8FF00"/>
<path d="M68.2705 98.5254C68.5602 98.5254 68.7949 98.2906 68.7949 98.001C68.7949 97.7113 68.5602 97.4766 68.2705 97.4766C67.9809 97.4766 67.7461 97.7113 67.7461 98.001C67.7461 98.2906 67.9809 98.5254 68.2705 98.5254Z" fill="#C8FF00"/>
<path d="M68.9483 101.17C69.2379 101.17 69.4727 100.935 69.4727 100.646C69.4727 100.356 69.2379 100.121 68.9483 100.121C68.6586 100.121 68.4238 100.356 68.4238 100.646C68.4238 100.935 68.6586 101.17 68.9483 101.17Z" fill="#C8FF00"/>
<path d="M84.5852 114.359L62.3418 136.609" stroke="#00B200" stroke-width="8" stroke-miterlimit="10"/>
<path d="M138.352 114.093C150.33 102.114 152.262 83.849 144.261 69.5296C146.16 66.6581 144.862 61.6824 141.07 57.8835C137.271 54.0846 132.295 52.7927 129.424 54.6922C115.104 46.6851 96.8323 48.6229 84.8601 60.6016C72.8878 72.5739 70.95 90.8329 78.9443 105.146C76.9681 108.005 78.2472 113.044 82.0844 116.875C85.9217 120.712 90.9549 121.991 93.8137 120.015C108.133 128.01 126.392 126.065 138.358 114.099L138.352 114.093Z" fill="#00DB0A"/>
<path d="M142.063 63.9068C142.875 63.0951 141.996 60.9003 140.1 59.0046C138.205 57.109 136.01 56.2303 135.198 57.042C134.387 57.8537 135.265 60.0485 137.161 61.9441C139.057 63.8398 141.251 64.7185 142.063 63.9068Z" fill="#C8FF00"/>
<path d="M125.983 97.9297L120.758 104.645L128.119 105.7" stroke="black" stroke-width="2" stroke-linecap="square" stroke-linejoin="round"/>
<path d="M98.6757 97.9297L103.894 104.645L96.5332 105.7" stroke="black" stroke-width="2" stroke-linecap="square" stroke-linejoin="round"/>
<path d="M134.073 110.088C134.363 110.088 134.598 109.853 134.598 109.563C134.598 109.274 134.363 109.039 134.073 109.039C133.784 109.039 133.549 109.274 133.549 109.563C133.549 109.853 133.784 110.088 134.073 110.088Z" fill="#C8FF00"/>
<path d="M132.161 112.037C132.451 112.037 132.686 111.802 132.686 111.513C132.686 111.223 132.451 110.988 132.161 110.988C131.872 110.988 131.637 111.223 131.637 111.513C131.637 111.802 131.872 112.037 132.161 112.037Z" fill="#C8FF00"/>
<path d="M134.81 112.725C135.099 112.725 135.334 112.49 135.334 112.2C135.334 111.911 135.099 111.676 134.81 111.676C134.52 111.676 134.285 111.911 134.285 112.2C134.285 112.49 134.52 112.725 134.81 112.725Z" fill="#C8FF00"/>
<path d="M138.255 105.693C138.545 105.693 138.779 105.459 138.779 105.169C138.779 104.879 138.545 104.645 138.255 104.645C137.965 104.645 137.73 104.879 137.73 105.169C137.73 105.459 137.965 105.693 138.255 105.693Z" fill="#C8FF00"/>
<path d="M136.345 107.654C136.634 107.654 136.869 107.42 136.869 107.13C136.869 106.84 136.634 106.605 136.345 106.605C136.055 106.605 135.82 106.84 135.82 107.13C135.82 107.42 136.055 107.654 136.345 107.654Z" fill="#C8FF00"/>
<path d="M138.991 108.33C139.281 108.33 139.516 108.095 139.516 107.806C139.516 107.516 139.281 107.281 138.991 107.281C138.702 107.281 138.467 107.516 138.467 107.806C138.467 108.095 138.702 108.33 138.991 108.33Z" fill="#C8FF00"/>
<path d="M89.1318 65.6504C89.4215 65.6504 89.6563 65.4156 89.6563 65.126C89.6563 64.8364 89.4215 64.6016 89.1318 64.6016C88.8422 64.6016 88.6074 64.8364 88.6074 65.126C88.6074 65.4156 88.8422 65.6504 89.1318 65.6504Z" fill="#C8FF00"/>
<path d="M91.044 63.7012C91.3336 63.7012 91.5684 63.4664 91.5684 63.1768C91.5684 62.8871 91.3336 62.6523 91.044 62.6523C90.7543 62.6523 90.5195 62.8871 90.5195 63.1768C90.5195 63.4664 90.7543 63.7012 91.044 63.7012Z" fill="#C8FF00"/>
<path d="M88.3975 63.0176C88.6871 63.0176 88.9219 62.7828 88.9219 62.4932C88.9219 62.2035 88.6871 61.9688 88.3975 61.9688C88.1078 61.9688 87.873 62.2035 87.873 62.4932C87.873 62.7828 88.1078 63.0176 88.3975 63.0176Z" fill="#C8FF00"/>
<path d="M84.9502 70.041C85.2398 70.041 85.4746 69.8063 85.4746 69.5166C85.4746 69.227 85.2398 68.9922 84.9502 68.9922C84.6606 68.9922 84.4258 69.227 84.4258 69.5166C84.4258 69.8063 84.6606 70.041 84.9502 70.041Z" fill="#C8FF00"/>
<path d="M86.8682 68.0879C87.1578 68.0879 87.3926 67.8531 87.3926 67.5635C87.3926 67.2738 87.1578 67.0391 86.8682 67.0391C86.5785 67.0391 86.3438 67.2738 86.3438 67.5635C86.3438 67.8531 86.5785 68.0879 86.8682 68.0879Z" fill="#C8FF00"/>
<path d="M84.2217 67.4082C84.5113 67.4082 84.7461 67.1734 84.7461 66.8838C84.7461 66.5942 84.5113 66.3594 84.2217 66.3594C83.9321 66.3594 83.6973 66.5942 83.6973 66.8838C83.6973 67.1734 83.9321 67.4082 84.2217 67.4082Z" fill="#C8FF00"/>
<path d="M110.621 133.436L62.3418 136.601C66.6779 129.016 75.3693 123.529 85.6788 122.851C96.001 122.173 105.332 126.477 110.621 133.429V133.436Z" fill="#00E500"/>
<path d="M49.4746 27.1658L97.7538 24C93.4177 31.585 84.7263 37.0723 74.4168 37.7502C64.0946 38.4281 54.7636 34.124 49.4746 27.1721V27.1658Z" fill="#00C900"/>
</svg>
