<svg width="160" height="160" viewBox="0 0 160 160" fill="none" xmlns="http://www.w3.org/2000/svg">
<path d="M26.4836 125.445C18.0009 125.445 11.0977 118.542 11.0977 110.059C11.0977 107.454 13.212 105.34 15.8173 105.34C18.4225 105.34 20.5369 107.454 20.5369 110.059C20.5369 113.338 23.205 116.006 26.4836 116.006C29.0888 116.006 31.2032 118.121 31.2032 120.726C31.2032 123.331 29.0888 125.445 26.4836 125.445Z" fill="#B2DD2A"/>
<path d="M141.194 89.9167C139.935 89.9167 138.683 89.4196 137.758 88.4316C135.971 86.5312 136.065 83.5484 137.966 81.7612C140.357 79.5147 140.47 75.7453 138.224 73.354C136.436 71.4536 136.531 68.4708 138.431 66.6837C140.332 64.8965 143.321 64.9909 145.102 66.8913C150.91 73.0709 150.614 82.831 144.435 88.6393C143.522 89.4951 142.364 89.923 141.2 89.923L141.194 89.9167Z" fill="#3FA519"/>
<path d="M87.1027 125.445C84.4975 125.445 82.3831 123.331 82.3831 120.726C82.3831 117.447 79.7149 114.779 76.4364 114.779C73.8312 114.779 71.7168 112.665 71.7168 110.059C71.7168 107.454 73.8312 105.34 76.4364 105.34C84.9191 105.34 91.8223 112.243 91.8223 120.726C91.8223 123.331 89.7079 125.445 87.1027 125.445Z" fill="#B2DD2A"/>
<path d="M108.05 100.569C129.487 100.569 146.864 84.3236 146.864 64.2843C146.864 44.245 129.487 28 108.05 28C86.6139 28 69.2363 44.245 69.2363 64.2843C69.2363 84.3236 86.6139 100.569 108.05 100.569Z" fill="#4CAF2C"/>
<path d="M124.863 28.0508L125.184 31.6754L130.111 33.6325L125.385 33.9157L125.706 37.5403L122.465 34.0919L117.733 34.375L120.458 31.9586L117.211 28.5102L122.138 30.4672L124.863 28.0508Z" fill="#00770E"/>
<path d="M144.814 42.3914C144.355 37.7599 139.301 32.411 134.67 30.2211C130.038 28.0312 126.999 29.5729 123.129 32.1656L144.814 42.3914Z" fill="#00770E"/>
<path d="M123.129 32.168C123.129 32.168 136.407 32.1365 142.209 35.5157C148.004 38.8887 149.999 42.7902 144.814 42.3938L123.129 32.168Z" fill="#00AF10"/>
<path d="M84.3131 44.1535C84.6155 44.1535 84.8606 43.9084 84.8606 43.6061C84.8606 43.3037 84.6155 43.0586 84.3131 43.0586C84.0107 43.0586 83.7656 43.3037 83.7656 43.6061C83.7656 43.9084 84.0107 44.1535 84.3131 44.1535Z" fill="#008C03"/>
<path d="M82.3111 46.1926C82.6135 46.1926 82.8586 45.9475 82.8586 45.6451C82.8586 45.3428 82.6135 45.0977 82.3111 45.0977C82.0088 45.0977 81.7637 45.3428 81.7637 45.6451C81.7637 45.9475 82.0088 46.1926 82.3111 46.1926Z" fill="#008C03"/>
<path d="M85.0748 46.9035C85.3772 46.9035 85.6223 46.6584 85.6223 46.3561C85.6223 46.0537 85.3772 45.8086 85.0748 45.8086C84.7725 45.8086 84.5273 46.0537 84.5273 46.3561C84.5273 46.6584 84.7725 46.9035 85.0748 46.9035Z" fill="#008C03"/>
<path d="M89.3033 40.716C89.6057 40.716 89.8508 40.4709 89.8508 40.1686C89.8508 39.8662 89.6057 39.6211 89.3033 39.6211C89.001 39.6211 88.7559 39.8662 88.7559 40.1686C88.7559 40.4709 89.001 40.716 89.3033 40.716Z" fill="#008C03"/>
<path d="M86.7936 42.0715C87.0959 42.0715 87.341 41.8264 87.341 41.524C87.341 41.2217 87.0959 40.9766 86.7936 40.9766C86.4912 40.9766 86.2461 41.2217 86.2461 41.524C86.2461 41.8264 86.4912 42.0715 86.7936 42.0715Z" fill="#008C03"/>
<path d="M89.2233 43.5676C89.5256 43.5676 89.7707 43.3225 89.7707 43.0201C89.7707 42.7178 89.5256 42.4727 89.2233 42.4727C88.9209 42.4727 88.6758 42.7178 88.6758 43.0201C88.6758 43.3225 88.9209 43.5676 89.2233 43.5676Z" fill="#008C03"/>
<path d="M123.355 76.6445C123.355 80.9929 119.825 84.5231 115.476 84.5231C111.128 84.5231 107.598 80.9929 107.598 76.6445H123.355Z" fill="white"/>
<path d="M123.356 76.6445C123.356 80.2251 120.455 83.1261 116.874 83.1261C113.294 83.1261 110.393 80.2251 110.393 76.6445H123.356Z" fill="black"/>
<path d="M107.599 76.6445C107.599 80.9929 104.069 84.5231 99.7204 84.5231C95.3721 84.5231 91.8418 80.9929 91.8418 76.6445H107.599Z" fill="white"/>
<path d="M94.6406 76.6445C94.6406 80.2251 97.5416 83.1261 101.122 83.1261C104.703 83.1261 107.604 80.2251 107.604 76.6445H94.6406Z" fill="black"/>
<path d="M50.7613 131.326C72.1977 131.326 89.5753 115.081 89.5753 95.0421C89.5753 75.0028 72.1977 58.7578 50.7613 58.7578C29.3249 58.7578 11.9473 75.0028 11.9473 95.0421C11.9473 115.081 29.3249 131.326 50.7613 131.326Z" fill="#C2F44A"/>
<path d="M33.9396 58.8086L33.6187 62.4332L28.6914 64.3903L33.4173 64.6735L33.0964 68.2981L36.3435 64.8497L41.0693 65.1329L38.3446 62.7164L41.5917 59.2617L36.6644 61.225L33.9396 58.8086Z" fill="#00770E"/>
<path d="M13.9922 73.1531C14.4516 68.5216 19.5047 63.1727 24.1362 60.9828C28.7677 58.7929 31.8071 60.3346 35.6772 62.9273L13.9922 73.1531Z" fill="#00770E"/>
<path d="M35.6772 62.9258C35.6772 62.9258 22.3994 62.8943 16.5974 66.2736C10.8017 69.6465 8.80693 73.548 13.9922 73.1516L35.6772 62.9258Z" fill="#00AF10"/>
<path d="M74.4908 74.9114C74.7932 74.9114 75.0383 74.6662 75.0383 74.3639C75.0383 74.0615 74.7932 73.8164 74.4908 73.8164C74.1885 73.8164 73.9434 74.0615 73.9434 74.3639C73.9434 74.6662 74.1885 74.9114 74.4908 74.9114Z" fill="#008C03"/>
<path d="M76.4928 76.9465C76.7951 76.9465 77.0403 76.7014 77.0403 76.399C77.0403 76.0967 76.7951 75.8516 76.4928 75.8516C76.1904 75.8516 75.9453 76.0967 75.9453 76.399C75.9453 76.7014 76.1904 76.9465 76.4928 76.9465Z" fill="#008C03"/>
<path d="M73.7311 77.6575C74.0334 77.6575 74.2785 77.4123 74.2785 77.11C74.2785 76.8076 74.0334 76.5625 73.7311 76.5625C73.4287 76.5625 73.1836 76.8076 73.1836 77.11C73.1836 77.4123 73.4287 77.6575 73.7311 77.6575Z" fill="#008C03"/>
<path d="M69.5006 71.4778C69.803 71.4778 70.0481 71.2326 70.0481 70.9303C70.0481 70.6279 69.803 70.3828 69.5006 70.3828C69.1982 70.3828 68.9531 70.6279 68.9531 70.9303C68.9531 71.2326 69.1982 71.4778 69.5006 71.4778Z" fill="#008C03"/>
<path d="M72.0123 72.8293C72.3147 72.8293 72.5598 72.5842 72.5598 72.2819C72.5598 71.9795 72.3147 71.7344 72.0123 71.7344C71.71 71.7344 71.4648 71.9795 71.4648 72.2819C71.4648 72.5842 71.71 72.8293 72.0123 72.8293Z" fill="#008C03"/>
<path d="M69.5826 74.3293C69.885 74.3293 70.1301 74.0842 70.1301 73.7819C70.1301 73.4795 69.885 73.2344 69.5826 73.2344C69.2803 73.2344 69.0352 73.4795 69.0352 73.7819C69.0352 74.0842 69.2803 74.3293 69.5826 74.3293Z" fill="#008C03"/>
<path d="M35.4512 107.402C35.4512 111.751 38.9814 115.281 43.3298 115.281C47.6781 115.281 51.2083 111.751 51.2083 107.402H35.4512Z" fill="white"/>
<path d="M35.4512 107.402C35.4512 110.983 38.3522 113.884 41.9328 113.884C45.5134 113.884 48.4143 110.983 48.4143 107.402H35.4512Z" fill="black"/>
<path d="M51.207 107.402C51.207 111.751 54.7373 115.281 59.0856 115.281C63.4339 115.281 66.9642 111.751 66.9642 107.402H51.207Z" fill="white"/>
<path d="M64.1702 107.402C64.1702 110.983 61.2692 113.884 57.6886 113.884C54.108 113.884 51.207 110.983 51.207 107.402H64.1702Z" fill="black"/>
</svg>
