<svg width="114" height="136" viewBox="0 0 114 136" fill="none" xmlns="http://www.w3.org/2000/svg">
<path d="M29.3012 80.1264C32.5505 78.3561 36.6198 79.5551 38.3901 82.8044C40.1591 86.0515 38.9629 90.1173 35.7185 91.8895C35.7194 91.8889 35.7225 91.8873 35.7245 91.8863C35.7284 91.8841 35.7322 91.8821 35.7356 91.8802C35.7425 91.8764 35.7486 91.8729 35.7538 91.8701C35.7147 91.8932 35.6263 91.9472 35.4952 92.0326C35.2323 92.2038 34.805 92.4987 34.2724 92.9233C33.2014 93.7772 31.7465 95.1231 30.3414 97.0095C27.6123 100.674 24.8743 106.614 25.8441 115.682C26.2375 119.361 23.5738 122.663 19.8946 123.057C16.2154 123.45 12.9136 120.786 12.5202 117.107C11.153 104.323 15.0774 95.0709 19.5947 89.0057C21.8129 86.0275 24.1273 83.8746 25.9198 82.4457C26.8189 81.7288 27.5971 81.1861 28.1815 80.8053C28.4741 80.6147 28.7192 80.4637 28.9085 80.3512C29.0031 80.2949 29.0841 80.2484 29.1498 80.211C29.1827 80.1923 29.212 80.1757 29.2373 80.1617C29.2499 80.1547 29.2616 80.1481 29.2723 80.1423C29.2776 80.1393 29.2827 80.1366 29.2875 80.134C29.2899 80.1327 29.2932 80.1309 29.2945 80.1302C29.2979 80.1283 29.3013 80.1264 32.4989 85.9954L29.3012 80.1264Z" fill="#FA5332"/>
<path d="M85.0054 80.1264C81.7562 78.3561 77.6868 79.5551 75.9165 82.8044C74.1475 86.0515 75.3438 90.1173 78.5882 91.8895C78.5872 91.8889 78.5841 91.8873 78.5821 91.8863C78.5782 91.8841 78.5745 91.8821 78.571 91.8802C78.5641 91.8764 78.558 91.8729 78.5529 91.8701C78.5919 91.8932 78.6804 91.9472 78.8114 92.0326C79.0744 92.2038 79.5016 92.4987 80.0342 92.9233C81.1052 93.7772 82.5602 95.1231 83.9652 97.0095C86.6943 100.674 89.4323 106.614 88.4626 115.682C88.0691 119.361 90.7328 122.663 94.412 123.057C98.0912 123.45 101.393 120.786 101.786 117.107C103.154 104.323 99.2292 95.0709 94.7119 89.0057C92.4938 86.0275 90.1793 83.8746 88.3869 82.4457C87.4877 81.7288 86.7096 81.1861 86.1252 80.8053C85.8326 80.6147 85.5874 80.4637 85.3982 80.3512C85.3035 80.2949 85.2226 80.2484 85.1568 80.211C85.1239 80.1923 85.0946 80.1757 85.0693 80.1617C85.0568 80.1547 85.045 80.1481 85.0344 80.1423C85.0291 80.1393 85.0239 80.1366 85.0191 80.134C85.0167 80.1327 85.0134 80.1309 85.0121 80.1302C85.0087 80.1283 85.0054 80.1264 81.8078 85.9954L85.0054 80.1264Z" fill="#FA5332"/>
<path d="M57.0021 118.735C88.4834 118.735 114.004 93.2139 114.004 61.7325C114.004 30.2511 88.4834 4.73047 57.0021 4.73047C25.5207 4.73047 0 30.2511 0 61.7325C0 93.2139 25.5207 118.735 57.0021 118.735Z" fill="#FA5332"/>
<path d="M57.0016 18.5933L39.6785 25.8023L45.5368 15.7473L22.3555 12.9012L45.5368 10.0605L39.6785 0L57.0016 7.21438L74.3246 0L68.4609 10.0605L91.6477 12.9012L68.4609 15.7473L74.3246 25.8023L57.0016 18.5933Z" fill="#00770E"/>
<path d="M35.556 113.344V131.723L31.7773 135.507H54.8086V113.344" fill="#FA5332"/>
<path d="M78.442 113.344V131.723L82.2261 135.507H59.1895V113.344" fill="#FA5332"/>
<path d="M43.8655 91.0318C51.1209 91.0318 57.0025 85.1502 57.0025 77.8948C57.0025 70.6395 51.1209 64.7578 43.8655 64.7578C36.6102 64.7578 30.7285 70.6395 30.7285 77.8948C30.7285 85.1502 36.6102 91.0318 43.8655 91.0318Z" fill="#FAFAFA"/>
<path d="M43.8641 87.9665C49.4263 87.9665 53.9353 83.4575 53.9353 77.8954C53.9353 72.3332 49.4263 67.8242 43.8641 67.8242C38.302 67.8242 33.793 72.3332 33.793 77.8954C33.793 83.4575 38.302 87.9665 43.8641 87.9665Z" fill="#121212"/>
<path d="M70.139 91.0318C77.3943 91.0318 83.276 85.1502 83.276 77.8948C83.276 70.6395 77.3943 64.7578 70.139 64.7578C62.8836 64.7578 57.002 70.6395 57.002 77.8948C57.002 85.1502 62.8836 91.0318 70.139 91.0318Z" fill="#FAFAFA"/>
<path d="M70.1395 87.9665C75.7017 87.9665 80.2107 83.4575 80.2107 77.8954C80.2107 72.3332 75.7017 67.8242 70.1395 67.8242C64.5774 67.8242 60.0684 72.3332 60.0684 77.8954C60.0684 83.4575 64.5774 87.9665 70.1395 87.9665Z" fill="#121212"/>
<path d="M84.391 87.9305C84.9306 87.9305 85.368 87.4931 85.368 86.9535C85.368 86.414 84.9306 85.9766 84.391 85.9766C83.8515 85.9766 83.4141 86.414 83.4141 86.9535C83.4141 87.4931 83.8515 87.9305 84.391 87.9305Z" fill="#F8EDAD"/>
<path d="M28.7055 87.9305C29.245 87.9305 29.6824 87.4931 29.6824 86.9535C29.6824 86.414 29.245 85.9766 28.7055 85.9766C28.1659 85.9766 27.7285 86.414 27.7285 86.9535C27.7285 87.4931 28.1659 87.9305 28.7055 87.9305Z" fill="#F8EDAD"/>
<path d="M81.7855 91.1883C82.3251 91.1883 82.7625 90.7509 82.7625 90.2113C82.7625 89.6718 82.3251 89.2344 81.7855 89.2344C81.246 89.2344 80.8086 89.6718 80.8086 90.2113C80.8086 90.7509 81.246 91.1883 81.7855 91.1883Z" fill="#F8EDAD"/>
<path d="M26.1 91.1883C26.6395 91.1883 27.0769 90.7509 27.0769 90.2113C27.0769 89.6718 26.6395 89.2344 26.1 89.2344C25.5604 89.2344 25.123 89.6718 25.123 90.2113C25.123 90.7509 25.5604 91.1883 26.1 91.1883Z" fill="#F8EDAD"/>
<path d="M86.3441 91.1883C86.8837 91.1883 87.3211 90.7509 87.3211 90.2113C87.3211 89.6718 86.8837 89.2344 86.3441 89.2344C85.8046 89.2344 85.3672 89.6718 85.3672 90.2113C85.3672 90.7509 85.8046 91.1883 86.3441 91.1883Z" fill="#F8EDAD"/>
<path d="M30.6586 91.1883C31.1981 91.1883 31.6355 90.7509 31.6355 90.2113C31.6355 89.6718 31.1981 89.2344 30.6586 89.2344C30.119 89.2344 29.6816 89.6718 29.6816 90.2113C29.6816 90.7509 30.119 91.1883 30.6586 91.1883Z" fill="#F8EDAD"/>
</svg>
