<svg width="24" height="24" viewBox="0 0 24 24" fill="none" xmlns="http://www.w3.org/2000/svg">
<path d="M19 16C19.5523 16 20 16.4477 20 17V18H21C21.5523 18 22 18.4477 22 19C22 19.5523 21.5523 20 21 20H20V21C20 21.5523 19.5523 22 19 22C18.4477 22 18 21.5523 18 21V20H17C16.4477 20 16 19.5523 16 19C16 18.4477 16.4477 18 17 18H18V17C18 16.4477 18.4477 16 19 16ZM11.5 4C13.9853 4 16 6.01472 16 8.5C16 10.0661 15.199 11.444 13.9854 12.25C15.3517 12.5673 16.5948 13.1747 17.626 14.0029C18.0565 14.3488 18.1251 14.9776 17.7793 15.4082C17.4335 15.8387 16.8046 15.908 16.374 15.5625C15.1737 14.5983 13.5724 14 11.7998 14C7.93984 14.0001 5 16.7854 5 20C5 20.5523 4.55228 21 4 21C3.44772 21 3 20.5523 3 20C3 16.3413 5.65328 13.362 9.18848 12.3613C7.87752 11.5749 7 10.14 7 8.5C7 6.01472 9.01472 4 11.5 4ZM11.5 6C10.1193 6 9 7.11929 9 8.5C9 9.88071 10.1193 11 11.5 11C12.8807 11 14 9.88071 14 8.5C14 7.11929 12.8807 6 11.5 6Z" fill="#121212"/>
</svg>
