<svg width="24" height="24" viewBox="0 0 24 24" fill="none" xmlns="http://www.w3.org/2000/svg">
<path d="M12 3C16.9706 3 21 7.02944 21 12C21 16.9706 16.9706 21 12 21C7.02944 21 3 16.9706 3 12C3 7.02944 7.02944 3 12 3ZM15.457 8.11035C14.966 7.85816 14.3628 8.05197 14.1104 8.54297L11.6914 13.2461L9.74707 11.0625C9.37975 10.6502 8.74736 10.6132 8.33496 10.9805C7.92263 11.3478 7.88575 11.9802 8.25293 12.3926L11.168 15.665C11.3872 15.9112 11.714 16.0337 12.041 15.9922C12.3679 15.9506 12.653 15.7501 12.8037 15.457L15.8896 9.45703C16.1419 8.96594 15.9481 8.36285 15.457 8.11035Z" fill="#FB7055"/>
</svg>
