<svg width="24" height="24" viewBox="0 0 24 24" fill="none" xmlns="http://www.w3.org/2000/svg">
<path d="M19 12C19 8.13401 15.866 5 12 5C8.13401 5 5 8.13401 5 12C5 15.866 8.13401 19 12 19V21C7.02944 21 3 16.9706 3 12C3 7.02944 7.02944 3 12 3C16.9706 3 21 7.02944 21 12C21 16.9706 16.9706 21 12 21V19C15.866 19 19 15.866 19 12Z" fill="#A8AEB2"/>
<path d="M14.1105 8.54325C14.363 8.0522 14.9661 7.85834 15.4572 8.11063C15.9482 8.36313 16.1421 8.96621 15.8898 9.45731L12.8039 15.4573C12.6531 15.7504 12.3681 15.9509 12.0412 15.9925C11.7141 16.034 11.3874 15.9115 11.1681 15.6653L8.25307 12.3929C7.88578 11.9804 7.92269 11.3481 8.3351 10.9807C8.74753 10.6135 9.37991 10.6504 9.74721 11.0628L11.6915 13.2464L14.1105 8.54325Z" fill="#A8AEB2"/>
</svg>
