<svg width="24" height="24" viewBox="0 0 24 24" fill="none" xmlns="http://www.w3.org/2000/svg">
<path d="M16 5C17.4363 5 19.3137 5.40701 20.583 5.73145C21.4309 5.94818 21.9999 6.7215 22 7.59668V16.9131C21.9999 18.2617 20.6872 19.2355 19.3691 18.9502C18.2758 18.7135 17.0255 18.5059 16 18.5059C14.9745 18.5059 13.7242 18.7135 12.6309 18.9502C12.4187 18.9961 12.2064 19.0049 12 18.9893C11.7936 19.0049 11.5813 18.9961 11.3691 18.9502C10.2758 18.7135 9.02551 18.5059 8 18.5059C6.97449 18.5059 5.72422 18.7135 4.63086 18.9502C3.31277 19.2355 2.00015 18.2617 2 16.9131V7.59668C2.00011 6.7215 2.56905 5.94818 3.41699 5.73145C4.6863 5.40701 6.56367 5 8 5C9.22946 5 10.7822 5.29762 12 5.58691C13.2178 5.29762 14.7705 5 16 5ZM8 7C6.86402 7 5.2496 7.3307 4 7.64648V16.918C4.0019 16.9216 4.01167 16.9371 4.03516 16.9551C4.08738 16.9948 4.15203 17.0072 4.20801 16.9951C5.33833 16.7505 6.75635 16.5059 8 16.5059C8.96707 16.5059 10.0393 16.6551 11 16.8359V7.41016C9.95055 7.18106 8.83727 7 8 7ZM16 7C15.1627 7 14.0494 7.18106 13 7.41016V16.8359C13.9607 16.6551 15.0329 16.5059 16 16.5059C17.2437 16.5059 18.6617 16.7505 19.792 16.9951C19.848 17.0072 19.9126 16.9948 19.9648 16.9551C19.9883 16.9371 19.9981 16.9216 20 16.918V7.64648C18.7504 7.3307 17.136 7 16 7Z" fill="#121212"/>
</svg>
