<svg width="24" height="24" viewBox="0 0 24 24" fill="none" xmlns="http://www.w3.org/2000/svg">
<path d="M12 3C16.9706 3 21 7.02944 21 12C21 16.9706 16.9706 21 12 21C7.02944 21 3 16.9706 3 12C3 7.02944 7.02944 3 12 3ZM12 5C8.13401 5 5 8.13401 5 12C5 15.866 8.13401 19 12 19C15.866 19 19 15.866 19 12C19 8.13401 15.866 5 12 5ZM11.791 14.752C11.9769 14.752 12.15 14.8018 12.3105 14.9004C12.4711 14.999 12.6 15.1358 12.6973 15.3105C12.7945 15.4809 12.8437 15.6674 12.8438 15.8691C12.8438 16.0755 12.7945 16.2664 12.6973 16.4414C12.6 16.6118 12.4712 16.7484 12.3105 16.8516C12.15 16.9502 11.9769 16.9999 11.791 17C11.5966 17 11.4168 16.9502 11.252 16.8516C11.087 16.7484 10.9556 16.6119 10.8584 16.4414C10.7654 16.2664 10.7214 16.0755 10.7256 15.8691C10.7214 15.6674 10.7654 15.4809 10.8584 15.3105C10.9556 15.1357 11.0871 14.999 11.252 14.9004C11.4168 14.8018 11.5966 14.752 11.791 14.752ZM11.9814 7C12.5732 7.00006 13.0955 7.10561 13.5479 7.31641C14.0044 7.52726 14.3596 7.83224 14.6133 8.23145C14.8711 8.62617 15 9.09498 15 9.6377C15 10.1671 14.8813 10.6202 14.6445 10.9971C14.412 11.3694 14.0738 11.6969 13.6299 11.9795C13.3804 12.1365 13.1822 12.2965 13.0342 12.458C12.8863 12.6194 12.7734 12.8072 12.6973 13.0225C12.6254 13.2378 12.5898 13.501 12.5898 13.8105V13.958H10.915V13.8105C10.915 13.2722 10.9601 12.8369 11.0488 12.5049C11.1418 12.1685 11.2707 11.9015 11.4355 11.7041C11.6004 11.5023 11.8242 11.3066 12.1074 11.1182C12.416 10.9029 12.6551 10.6856 12.8242 10.4658C12.9934 10.246 13.0765 9.9922 13.0723 9.70508C13.0722 9.48542 13.0229 9.29285 12.9258 9.12695C12.8285 8.95647 12.6955 8.82605 12.5264 8.73633C12.3616 8.64218 12.1758 8.59244 11.9688 8.58789C11.7658 8.59238 11.5767 8.64212 11.4033 8.73633C11.2302 8.83054 11.0884 8.96953 10.9785 9.15332C10.8686 9.33276 10.8092 9.5486 10.8008 9.7998H9C9.00845 9.18983 9.14587 8.67596 9.41211 8.25879C9.67844 7.83716 10.0337 7.52278 10.4775 7.31641C10.9257 7.10555 11.4275 7 11.9814 7Z" fill="#585D63"/>
</svg>
