<svg width="24" height="24" viewBox="0 0 24 24" fill="none" xmlns="http://www.w3.org/2000/svg">
<path d="M18 20V22H6V20H18ZM20 18V8C20 6.89543 19.1046 6 18 6H6C4.96435 6 4.113 6.78722 4.01074 7.7959L4 8V18C4 19.1046 4.89543 20 6 20V22L5.79395 21.9951C3.7488 21.8913 2.10865 20.2512 2.00488 18.2061L2 18V8C2 5.79086 3.79086 4 6 4H18C20.2091 4 22 5.79086 22 8V18L21.9951 18.2061C21.8913 20.2512 20.2512 21.8913 18.2061 21.9951L18 22V20C19.1046 20 20 19.1046 20 18Z" fill="#121212"/>
<rect x="6" y="2" width="2" height="3" rx="1" fill="#A8AEB2"/>
<rect x="16" y="2" width="2" height="3" rx="1" fill="#A8AEB2"/>
<rect x="2" y="10" width="20" height="2" fill="#121212"/>
</svg>
