<svg width="36" height="36" viewBox="0 0 36 36" fill="none" xmlns="http://www.w3.org/2000/svg">
<path d="M10.7996 9.17937V10.1794C11.1553 10.1794 11.4842 9.99046 11.6634 9.68325L10.7996 9.17937ZM13.3196 4.85938V3.85938C12.9639 3.85938 12.635 4.04829 12.4558 4.3555L13.3196 4.85938ZM22.6796 4.85938L23.5434 4.3555C23.3642 4.04829 23.0353 3.85938 22.6796 3.85938V4.85938ZM25.1996 9.17937L24.3358 9.68325C24.515 9.99046 24.8439 10.1794 25.1996 10.1794V9.17937ZM3.59961 27.5394H4.59961V12.7794H3.59961H2.59961V27.5394H3.59961ZM7.19961 9.17937V10.1794H10.7996V9.17937V8.17937H7.19961V9.17937ZM10.7996 9.17937L11.6634 9.68325L14.1834 5.36325L13.3196 4.85938L12.4558 4.3555L9.93583 8.6755L10.7996 9.17937ZM13.3196 4.85938V5.85938H22.6796V4.85938V3.85938H13.3196V4.85938ZM22.6796 4.85938L21.8158 5.36325L24.3358 9.68325L25.1996 9.17937L26.0634 8.6755L23.5434 4.3555L22.6796 4.85938ZM25.1996 9.17937V10.1794H28.7996V9.17937V8.17937H25.1996V9.17937ZM32.3996 12.7794H31.3996V27.5394H32.3996H33.3996V12.7794H32.3996ZM32.3996 27.5394H31.3996C31.3996 28.9753 30.2355 30.1394 28.7996 30.1394V31.1394V32.1394C31.3401 32.1394 33.3996 30.0799 33.3996 27.5394H32.3996ZM28.7996 9.17937V10.1794C30.2355 10.1794 31.3996 11.3434 31.3996 12.7794H32.3996H33.3996C33.3996 10.2389 31.3401 8.17937 28.7996 8.17937V9.17937ZM3.59961 12.7794H4.59961C4.59961 11.3434 5.76367 10.1794 7.19961 10.1794V9.17937V8.17937C4.6591 8.17937 2.59961 10.2389 2.59961 12.7794H3.59961ZM7.19961 31.1394V30.1394C5.76367 30.1394 4.59961 28.9753 4.59961 27.5394H3.59961H2.59961C2.59961 30.0799 4.6591 32.1394 7.19961 32.1394V31.1394ZM23.3996 19.2594H22.3996C22.3996 21.6894 20.4297 23.6594 17.9996 23.6594V24.6594V25.6594C21.5342 25.6594 24.3996 22.794 24.3996 19.2594H23.3996ZM17.9996 24.6594V23.6594C15.5696 23.6594 13.5996 21.6894 13.5996 19.2594H12.5996H11.5996C11.5996 22.794 14.465 25.6594 17.9996 25.6594V24.6594ZM12.5996 19.2594H13.5996C13.5996 16.8293 15.5696 14.8594 17.9996 14.8594V13.8594V12.8594C14.465 12.8594 11.5996 15.7248 11.5996 19.2594H12.5996ZM17.9996 13.8594V14.8594C20.4297 14.8594 22.3996 16.8293 22.3996 19.2594H23.3996H24.3996C24.3996 15.7248 21.5342 12.8594 17.9996 12.8594V13.8594ZM28.7996 31.1394V30.1394H7.19961V31.1394V32.1394H28.7996V31.1394Z" fill="#A8AEB2"/>
</svg>
