<svg width="24" height="24" viewBox="0 0 24 24" fill="none" xmlns="http://www.w3.org/2000/svg">
<path d="M12 3C16.9706 3 21 7.02944 21 12C21 16.9706 16.9706 21 12 21C7.02944 21 3 16.9706 3 12C3 7.02944 7.02944 3 12 3ZM15.707 8.29297C15.3165 7.90254 14.6835 7.90257 14.293 8.29297L12 10.5859L9.70703 8.29297C9.31652 7.90253 8.68348 7.90253 8.29297 8.29297C7.90249 8.68348 7.90252 9.31651 8.29297 9.70703L10.5859 12L8.29297 14.293C7.90246 14.6835 7.90251 15.3165 8.29297 15.707C8.6835 16.0975 9.31654 16.0975 9.70703 15.707L12 13.4141L14.293 15.707C14.6835 16.0975 15.3165 16.0975 15.707 15.707C16.0975 15.3165 16.0975 14.6835 15.707 14.293L13.4141 12L15.707 9.70703C16.0974 9.31653 16.0974 8.68347 15.707 8.29297Z" fill="#A8AEB2"/>
</svg>
