<svg width="24" height="24" viewBox="0 0 24 24" fill="none" xmlns="http://www.w3.org/2000/svg">
<path d="M2 5C2 3.34315 3.34315 2 5 2H19C20.6569 2 22 3.34315 22 5V19C22 20.6569 20.6569 22 19 22H5C3.34315 22 2 20.6569 2 19V5Z" fill="#FAFAFA"/>
<path d="M19 20V22H5V20H19ZM20 19V5C20 4.44771 19.5523 4 19 4H5C4.44771 4 4 4.44772 4 5V19C4 19.5523 4.44772 20 5 20V22L4.8457 21.9961C3.31166 21.9184 2.08163 20.6883 2.00391 19.1543L2 19V5C2 3.34315 3.34315 2 5 2H19C20.6569 2 22 3.34315 22 5V19C22 20.6051 20.7394 21.9158 19.1543 21.9961L19 22V20C19.5523 20 20 19.5523 20 19Z" fill="#CACDD2"/>
</svg>
