<svg width="32" height="32" viewBox="0 0 32 32" fill="none" xmlns="http://www.w3.org/2000/svg">
<path d="M25.0187 13.3333H18.6667V6.66667C18.6667 5.95942 18.3857 5.28115 17.8856 4.78105C17.3855 4.28095 16.7072 4 16 4H15.8733C15.2067 4 14.6667 4.54 14.6667 5.20667C14.6667 6.15867 14.3853 7.08933 13.856 7.88133L9.33333 14.6667V26.6667L14.348 27.92C14.56 27.9733 14.7773 28 14.9947 28H20.3507C20.8462 28.0002 21.332 27.8624 21.7536 27.6019C22.1752 27.3414 22.5158 26.9686 22.7373 26.5253L27.404 17.192C27.6072 16.7854 27.703 16.3337 27.6825 15.8797C27.662 15.4257 27.5258 14.9844 27.2868 14.5978C27.0479 14.2112 26.714 13.8921 26.3171 13.6708C25.9201 13.4495 25.4732 13.3333 25.0187 13.3333Z" fill="#FDB8AB"/>
<path d="M18.6667 13.3333H25.0187C25.4732 13.3333 25.9201 13.4495 26.3171 13.6708C26.714 13.8921 27.0479 14.2112 27.2868 14.5978C27.5258 14.9844 27.662 15.4257 27.6825 15.8797C27.703 16.3337 27.6072 16.7854 27.404 17.192L22.7373 26.5253C22.5158 26.9686 22.1752 27.3414 21.7536 27.6019C21.332 27.8624 20.8462 28.0002 20.3507 28H14.9947C14.7773 28 14.56 27.9733 14.348 27.92L9.33333 26.6667M18.6667 13.3333V6.66667C18.6667 5.95942 18.3857 5.28115 17.8856 4.78105C17.3855 4.28095 16.7072 4 16 4H15.8733C15.2067 4 14.6667 4.54 14.6667 5.20667C14.6667 6.15867 14.3853 7.08933 13.856 7.88133L9.33333 14.6667V26.6667M18.6667 13.3333H16M9.33333 26.6667H6.66667C5.95942 26.6667 5.28115 26.3857 4.78105 25.8856C4.28095 25.3855 4 24.7072 4 24V16C4 15.2928 4.28095 14.6145 4.78105 14.1144C5.28115 13.6143 5.95942 13.3333 6.66667 13.3333H10" stroke="#FC9B88" stroke-linecap="round" stroke-linejoin="round"/>
</svg>
