<svg width="32" height="32" viewBox="0 0 32 32" fill="none" xmlns="http://www.w3.org/2000/svg">
<path d="M2.73892 19.57C2.5336 19.2701 2.79117 18.8705 3.14773 18.9358L5.62035 19.3881C5.77067 19.4156 5.92367 19.3563 6.01667 19.2346L7.54646 17.2325C7.76706 16.9438 8.22516 17.0663 8.27355 17.4269L8.60916 19.9277C8.62957 20.0797 8.73297 20.2075 8.877 20.2587L11.2463 21.1007C11.5879 21.2222 11.6135 21.6974 11.2868 21.8551L9.02163 22.9483C8.88392 23.0148 8.79482 23.153 8.79084 23.3064L8.72533 25.8289C8.71589 26.1926 8.27358 26.3639 8.02331 26.1007L6.28773 24.2756C6.18222 24.1646 6.02375 24.1223 5.87725 24.1659L3.46751 24.8828C3.12001 24.9862 2.8211 24.6168 2.99307 24.2965L4.18562 22.0752C4.25812 21.9402 4.24928 21.7758 4.16272 21.6494L2.73892 19.57Z" fill="#F8EDAD"/>
<path d="M22.3186 26.0936L19.997 18.2509C19.7834 17.529 19.0272 17.1177 18.3082 17.3322C17.5892 17.5468 17.1795 18.3059 17.3932 19.0278L19.7147 26.8705C19.9284 27.5924 20.6845 28.0037 21.4036 27.7892C22.1226 27.5746 22.5322 26.8155 22.3186 26.0936Z" fill="#F8EDAD"/>
<path d="M13.4935 3.27702C13.557 2.67391 14.3143 2.44792 14.6956 2.91834L17.5362 6.42332C17.697 6.62163 17.9547 6.713 18.2038 6.65998L22.6067 5.72296C23.1976 5.59719 23.6457 6.25053 23.3179 6.75994L20.8755 10.5554C20.7374 10.7702 20.7304 11.0445 20.8577 11.266L23.1058 15.1806C23.4076 15.706 22.9271 16.3357 22.3433 16.1802L17.9932 15.0209C17.7471 14.9553 17.4851 15.0335 17.3146 15.2234L14.3012 18.5798C13.8967 19.0303 13.1517 18.7661 13.1187 18.1606L12.8725 13.6486C12.8586 13.3933 12.7036 13.1673 12.471 13.0632L8.36045 11.223C7.80876 10.976 7.82873 10.183 8.39215 9.96432L12.5901 8.33501C12.8276 8.24282 12.9938 8.02497 13.0206 7.77071L13.4935 3.27702Z" fill="#FFEA73"/>
<path d="M15.6187 29.1137C16.2484 29.5229 17.0893 29.342 17.4968 28.7098C17.9044 28.0775 17.7242 27.2333 17.0945 26.8241L12.5336 23.8606C11.9038 23.4514 11.063 23.6322 10.6554 24.2645C10.2479 24.8967 10.428 25.741 11.0577 26.1502L15.6187 29.1137Z" fill="#FFC787"/>
<path d="M10.9072 24.4268C11.225 23.9338 11.8801 23.7939 12.3701 24.1123L16.9307 27.0752C17.4213 27.394 17.563 28.0532 17.2451 28.5469C16.9274 29.0398 16.2723 29.1806 15.7822 28.8623L11.2207 25.8984C10.7303 25.5795 10.5891 24.9204 10.9072 24.4268ZM18.3936 17.6201C18.9526 17.4533 19.5421 17.7724 19.709 18.3359L22.0312 26.1787C22.1982 26.7429 21.877 27.335 21.3174 27.502C20.7584 27.6685 20.1688 27.3487 20.002 26.7852L17.6807 18.9424C17.5139 18.3785 17.8344 17.7873 18.3936 17.6201ZM7.78516 17.415C7.84245 17.3401 7.96347 17.3692 7.97656 17.4668L8.31152 19.9678C8.34685 20.2306 8.52612 20.452 8.77637 20.541L11.1455 21.3838C11.2358 21.4159 11.2433 21.543 11.1562 21.585L8.8916 22.6777C8.65231 22.7932 8.4981 23.0336 8.49121 23.2988L8.42578 25.8213C8.42306 25.9202 8.30472 25.9614 8.24023 25.8936L6.50488 24.0693C6.32189 23.8769 6.04677 23.8023 5.79199 23.8779L3.38184 24.5957C3.29343 24.6218 3.21043 24.5267 3.25781 24.4385L4.4502 22.2168C4.57548 21.9831 4.56 21.6983 4.41016 21.4795L2.98633 19.4004C2.93001 19.3179 3.00277 19.2139 3.09375 19.2305L5.56641 19.6836C5.82787 19.7314 6.09362 19.6279 6.25488 19.417L7.78516 17.415ZM13.792 3.30859C13.8277 2.96927 14.2511 2.8461 14.4629 3.10742L17.3027 6.6123C17.5343 6.898 17.9068 7.02969 18.2666 6.95312L22.6689 6.0166C22.9958 5.94704 23.2507 6.30975 23.0654 6.59766L20.623 10.3936C20.4245 10.7025 20.4148 11.0965 20.5977 11.415L22.8457 15.3301C23.0161 15.627 22.7435 15.9762 22.4209 15.8906L18.0703 14.7314C17.7149 14.6368 17.3375 14.7498 17.0918 15.0234L14.0781 18.3789C13.8537 18.6288 13.4368 18.4854 13.418 18.1445L13.1719 13.6318C13.1517 13.265 12.9292 12.9392 12.5938 12.7891L8.4834 10.9492C8.17472 10.811 8.18611 10.3663 8.50098 10.2441L12.6982 8.61426C13.041 8.48122 13.2809 8.16731 13.3193 7.80176L13.792 3.30859Z" stroke="#FFB765" stroke-width="0.6"/>
<path d="M4.32715 12.9678C4.91023 12.9679 5.38458 13.4429 5.38477 14.0312C5.38477 14.6197 4.91035 15.0956 4.32715 15.0957C3.74385 15.0957 3.26855 14.6198 3.26855 14.0312C3.26874 13.4429 3.74397 12.9678 4.32715 12.9678Z" fill="#FDB8AB" stroke="#FC9B88" stroke-width="0.6"/>
<rect x="0.158178" y="0.394334" width="2.11806" height="4.85115" rx="1.05903" transform="matrix(0.918959 0.394354 -0.3917 0.920093 27.0032 5.82069)" fill="#FFC787" stroke="#FFB765" stroke-width="0.6"/>
<path d="M26.0596 23.8779C26.6427 23.878 27.117 24.3531 27.1172 24.9414C27.1172 25.5299 26.6428 26.0057 26.0596 26.0059C25.4763 26.0059 25.001 25.53 25.001 24.9414C25.0012 24.353 25.4764 23.8779 26.0596 23.8779Z" fill="#FC9B88" stroke="#FB7055" stroke-width="0.6"/>
</svg>
