<svg width="24" height="24" viewBox="0 0 24 24" fill="none" xmlns="http://www.w3.org/2000/svg">
<path d="M14 2C15.6569 2 17 3.34315 17 5V6H19L19.1543 6.00391C20.7394 6.08421 22 7.39489 22 9V19C22 20.6051 20.7394 21.9158 19.1543 21.9961L19 22H11C9.34315 22 8 20.6569 8 19V18H6C4.34315 18 3 16.6569 3 15V5C3 3.34315 4.34315 2 6 2H14ZM11 8C10.4477 8 10 8.44772 10 9V19C10 19.5523 10.4477 20 11 20H19C19.5523 20 20 19.5523 20 19V9C20 8.44772 19.5523 8 19 8H11ZM6 4C5.44772 4 5 4.44772 5 5V15C5 15.5523 5.44772 16 6 16H8V9C8 7.34315 9.34315 6 11 6H15V5C15 4.44772 14.5523 4 14 4H6Z" fill="#7E8389"/>
</svg>
