<svg width="24" height="24" viewBox="0 0 24 24" fill="none" xmlns="http://www.w3.org/2000/svg">
<rect x="8" y="2" width="8" height="2" rx="1" fill="#121212"/>
<path d="M20 5C20.5523 5 21 5.44772 21 6C21 6.55228 20.5523 7 20 7H19V18C19 20.14 17.3194 21.8879 15.2061 21.9951L15 22H9L8.79395 21.9951C6.7488 21.8913 5.10865 20.2512 5.00488 18.2061L5 18V7H4C3.44772 7 3 6.55228 3 6C3 5.44772 3.44772 5 4 5H20ZM7 18C7 19.1046 7.89543 20 9 20H15C16.1046 20 17 19.1046 17 18V7H7V18Z" fill="#121212"/>
<rect x="9" y="9" width="2" height="9" rx="1" fill="#121212"/>
<rect x="13" y="9" width="2" height="9" rx="1" fill="#121212"/>
</svg>
