<svg width="269" height="269" viewBox="0 0 269 269" fill="none" xmlns="http://www.w3.org/2000/svg">
<rect x="13.3418" y="28.4888" width="241.316" height="174.284" rx="20.1097" fill="#CACDD2"/>
<rect x="60.2646" y="222.882" width="147.471" height="20.1097" rx="10.0548" fill="#CACDD2"/>
<rect x="97.1323" y="182.663" width="73.7355" height="58.6533" rx="13.4065" fill="#CACDD2"/>
<path d="M26.748 55.3015C26.748 47.8973 32.7503 41.895 40.1545 41.895H227.845C235.249 41.895 241.251 47.8973 241.251 55.3015V162.553H26.748V55.3015Z" fill="#F2F4F7"/>
<g clip-path="url(#clip0_2247_67871)">
<path fill-rule="evenodd" clip-rule="evenodd" d="M138.181 177.434C140.493 177.434 142.368 179.308 142.368 181.62H142.369V190.569C142.369 190.829 142.158 191.041 141.897 191.041H137.607C137.346 191.041 137.135 190.829 137.135 190.569V187.922C137.124 189.647 135.722 191.042 133.995 191.042C132.287 191.042 130.898 189.68 130.855 187.983V190.569C130.855 190.829 130.644 191.041 130.383 191.041H126.093C125.832 191.041 125.621 190.829 125.621 190.569V181.62C125.621 179.308 127.496 177.434 129.808 177.434C132.12 177.434 133.994 179.308 133.994 181.62C133.994 179.308 135.869 177.434 138.181 177.434ZM130.855 187.82C130.855 187.818 130.855 187.816 130.855 187.814V185.675L130.855 187.82Z" fill="#F2F4F7"/>
<path d="M135.711 176.387L137.893 177.439L134.85 177.083L133.99 178.49L133.129 177.083L130.086 177.439L132.268 176.387L130.086 175.335L133.129 175.691L133.99 174.284L134.85 175.691L137.893 175.335L135.711 176.387Z" fill="#F2F4F7"/>
</g>
<defs>
<clipPath id="clip0_2247_67871">
<rect width="16.7581" height="16.7581" fill="white" transform="translate(125.621 174.284)"/>
</clipPath>
</defs>
</svg>
