<svg width="24" height="24" viewBox="0 0 24 24" fill="none" xmlns="http://www.w3.org/2000/svg">
<path d="M17.7573 18.3492C18.1167 18.7685 18.0682 19.3989 17.6489 19.7584C17.2295 20.1178 16.5991 20.0693 16.2397 19.65L10.2397 12.65C9.91869 12.2755 9.91869 11.7237 10.2397 11.3492L16.2397 4.34919C16.5991 3.92986 17.2295 3.88137 17.6489 4.24079C18.0682 4.60021 18.1167 5.23064 17.7573 5.64997L12.3149 11.9996L17.7573 18.3492Z" fill="#121212"/>
<path d="M13.7582 18.3492C14.1177 18.7685 14.0692 19.3989 13.6498 19.7584C13.2305 20.1178 12.6001 20.0693 12.2407 19.65L6.24066 12.65C5.91966 12.2755 5.91966 11.7237 6.24066 11.3492L12.2407 4.34919C12.6001 3.92986 13.2305 3.88137 13.6498 4.24079C14.0692 4.60021 14.1177 5.23064 13.7582 5.64997L8.31585 11.9996L13.7582 18.3492Z" fill="#121212"/>
</svg>
