<svg width="24" height="24" viewBox="0 0 24 24" fill="none" xmlns="http://www.w3.org/2000/svg">
<path d="M6.24079 18.3492C5.88137 18.7685 5.92986 19.3989 6.34919 19.7584C6.76851 20.1178 7.39895 20.0693 7.75837 19.65L13.7584 12.65C14.0794 12.2755 14.0794 11.7237 13.7584 11.3492L7.75837 4.34919C7.39895 3.92986 6.76851 3.88137 6.34919 4.24079C5.92986 4.60021 5.88137 5.23064 6.24079 5.64997L11.6832 11.9996L6.24079 18.3492Z" fill="#121212"/>
<path d="M10.2398 18.3492C9.88039 18.7685 9.92889 19.3989 10.3482 19.7584C10.7675 20.1178 11.398 20.0693 11.7574 19.65L17.7574 12.65C18.0784 12.2755 18.0784 11.7237 17.7574 11.3492L11.7574 4.34919C11.398 3.92986 10.7675 3.88137 10.3482 4.24079C9.92889 4.60021 9.88039 5.23064 10.2398 5.64997L15.6822 11.9996L10.2398 18.3492Z" fill="#121212"/>
</svg>
