<svg width="24" height="24" viewBox="0 0 24 24" fill="none" xmlns="http://www.w3.org/2000/svg">
<path d="M13.8815 7.78545L16.5079 9.9893L8.50078 19.5318L6.13465 19.6847L5.87434 17.328L13.8815 7.78545ZM18.9089 7.12795L17.8481 8.39212L15.2216 6.18828L16.2824 4.92411L18.9089 7.12795ZM4.12338 15.8587L4.00282 16.018C3.74247 16.4043 3.62892 16.8799 3.68284 17.3682L3.94314 19.725C4.07141 20.8853 5.09271 21.8087 6.2438 21.8535L6.47553 21.8499L8.84167 21.697C9.33193 21.6653 9.78058 21.4709 10.1158 21.1474L10.2517 21.001L20.6598 8.59718C21.4 7.71508 21.2161 6.3422 20.249 5.53077L17.6226 3.32693C16.6556 2.5155 15.2716 2.57278 14.5315 3.45488L4.12338 15.8587Z" fill="#121212"/>
</svg>
