<svg width="24" height="24" viewBox="0 0 24 24" fill="none" xmlns="http://www.w3.org/2000/svg">
<path d="M13.3906 19.8799C13.9346 19.7846 14.4535 20.1484 14.5488 20.6924C14.6439 21.2362 14.2802 21.7543 13.7363 21.8496C13.1718 21.9485 12.5914 22 12 22C11.4086 22 10.8282 21.9485 10.2637 21.8496C9.71985 21.7543 9.35607 21.2362 9.45117 20.6924C9.54647 20.1484 10.0654 19.7846 10.6094 19.8799C11.0603 19.9589 11.5249 20 12 20C12.4751 20 12.9397 19.9589 13.3906 19.8799ZM4.05273 16.3438C4.50472 16.0268 5.12809 16.1361 5.44531 16.5879C5.98124 17.3519 6.64812 18.0188 7.41211 18.5547C7.86387 18.8719 7.97323 19.4953 7.65625 19.9473C7.33908 20.3994 6.71483 20.5086 6.2627 20.1914C5.309 19.5223 4.47768 18.691 3.80859 17.7373C3.49143 17.2852 3.6006 16.6609 4.05273 16.3438ZM18.5547 16.5879C18.8719 16.1361 19.4953 16.0268 19.9473 16.3438C20.3994 16.6609 20.5086 17.2852 20.1914 17.7373C19.5223 18.691 18.691 19.5223 17.7373 20.1914C17.2852 20.5086 16.6609 20.3994 16.3438 19.9473C16.0268 19.4953 16.1361 18.8719 16.5879 18.5547C17.3519 18.0188 18.0188 17.3519 18.5547 16.5879ZM2 12C2 11.4086 2.05149 10.8282 2.15039 10.2637C2.24573 9.71985 2.76377 9.35607 3.30762 9.45117C3.85162 9.54647 4.21541 10.0654 4.12012 10.6094C4.04115 11.0603 4 11.5249 4 12C4 12.4751 4.04115 12.9397 4.12012 13.3906C4.21541 13.9346 3.85162 14.4535 3.30762 14.5488C2.76377 14.6439 2.24573 14.2802 2.15039 13.7363C2.05149 13.1718 2 12.5914 2 12ZM20 12C20 11.5249 19.9589 11.0603 19.8799 10.6094C19.7846 10.0654 20.1484 9.54647 20.6924 9.45117C21.2362 9.35607 21.7543 9.71985 21.8496 10.2637C21.9485 10.8282 22 11.4086 22 12C22 12.5914 21.9485 13.1718 21.8496 13.7363C21.7543 14.2802 21.2362 14.6439 20.6924 14.5488C20.1484 14.4535 19.7846 13.9346 19.8799 13.3906C19.9589 12.9397 20 12.4751 20 12ZM6.2627 3.80859C6.71483 3.49143 7.33908 3.6006 7.65625 4.05273C7.97323 4.50472 7.86387 5.12809 7.41211 5.44531C6.64812 5.98124 5.98124 6.64812 5.44531 7.41211C5.12809 7.86387 4.50472 7.97323 4.05273 7.65625C3.6006 7.33908 3.49143 6.71483 3.80859 6.2627C4.47768 5.309 5.309 4.47768 6.2627 3.80859ZM16.3438 4.05273C16.6609 3.6006 17.2852 3.49143 17.7373 3.80859C18.691 4.47768 19.5223 5.309 20.1914 6.2627C20.5086 6.71483 20.3994 7.33908 19.9473 7.65625C19.4953 7.97323 18.8719 7.86387 18.5547 7.41211C18.0188 6.64812 17.3519 5.98124 16.5879 5.44531C16.1361 5.12809 16.0268 4.50472 16.3438 4.05273ZM12 2C12.5914 2 13.1718 2.05149 13.7363 2.15039C14.2802 2.24573 14.6439 2.76377 14.5488 3.30762C14.4535 3.85162 13.9346 4.21541 13.3906 4.12012C12.9397 4.04115 12.4751 4 12 4C11.5249 4 11.0603 4.04115 10.6094 4.12012C10.0654 4.21541 9.54647 3.85162 9.45117 3.30762C9.35607 2.76377 9.71985 2.24573 10.2637 2.15039C10.8282 2.05149 11.4086 2 12 2Z" fill="#121212"/>
</svg>
