<svg width="24" height="24" viewBox="0 0 24 24" fill="none" xmlns="http://www.w3.org/2000/svg">
<path d="M20.3565 12.2344C20.7441 11.9077 21.3244 11.922 21.6963 12.2822C22.0679 12.6427 22.0995 13.2215 21.7852 13.6191L21.7178 13.6963L21.7159 13.6982C21.7148 13.6994 21.7134 13.7017 21.712 13.7031C21.7089 13.7062 21.704 13.7101 21.6993 13.7148C21.6892 13.725 21.6747 13.7397 21.6573 13.7568C21.6221 13.7915 21.5718 13.8403 21.5079 13.9004C21.3793 14.0212 21.1934 14.1904 20.9551 14.3906C20.4788 14.7909 19.7876 15.3219 18.9219 15.8525C18.7011 15.9879 18.4676 16.1237 18.2227 16.2578L18.9903 17.5869C19.2664 18.0652 19.1023 18.677 18.6241 18.9531C18.1458 19.2292 17.534 19.0652 17.2579 18.5869L16.4024 17.1064C15.3806 17.5033 14.2369 17.8139 13 17.9385V19C12.9999 19.5522 12.5522 20 12 20C11.448 19.9998 11.0002 19.5521 11 19V17.9668C9.55923 17.8633 8.25915 17.5004 7.13187 17.0283L6.23245 18.5869C5.95628 19.0651 5.3445 19.2292 4.86624 18.9531C4.3883 18.6769 4.22501 18.0651 4.501 17.5869L5.34475 16.124C5.18571 16.0291 5.03104 15.9352 4.88382 15.8398C4.05804 15.3052 3.40845 14.77 2.96292 14.3662C2.74006 14.1642 2.56693 13.9935 2.44729 13.8711C2.38751 13.8099 2.34049 13.76 2.30764 13.7246C2.29128 13.707 2.2781 13.6922 2.26858 13.6816C2.26396 13.6765 2.25982 13.6723 2.25686 13.6689L2.251 13.6631C2.2538 13.6601 2.30016 13.6178 3.00003 13L2.25002 13.6621C1.88486 13.2482 1.92437 12.6155 2.33791 12.25C2.75191 11.8846 3.38354 11.925 3.74905 12.3389C3.74959 12.3395 3.75105 12.3399 3.75198 12.3408C3.75609 12.3454 3.76383 12.3538 3.77444 12.3652C3.79579 12.3883 3.83025 12.4248 3.87698 12.4727C3.97098 12.5688 4.11538 12.7113 4.30569 12.8838C4.6875 13.2298 5.25232 13.695 5.97073 14.1602C7.41419 15.0946 9.43368 15.9999 11.8272 16C14.2258 15.9999 16.337 15.0914 17.877 14.1475C18.642 13.6785 19.252 13.209 19.668 12.8594C19.8752 12.6853 20.0336 12.5412 20.1377 12.4434C20.1895 12.3947 20.2288 12.3569 20.253 12.333L20.2823 12.3037L20.3565 12.2344ZM11.8457 4C14.4799 4 16.7171 5.11558 18.2559 6.17676C19.0316 6.71172 19.6498 7.24622 20.0752 7.64844C20.2882 7.84976 20.4545 8.01911 20.5694 8.14062C20.6269 8.2014 20.6716 8.25113 20.7032 8.28613C20.7188 8.30351 20.7312 8.31784 20.7403 8.32812C20.7447 8.33319 20.7492 8.33758 20.752 8.34082C20.7532 8.3422 20.7541 8.3437 20.7549 8.34473L20.7579 8.34766C21.118 8.76607 21.0707 9.39742 20.6524 9.75781C20.2342 10.1177 19.6037 10.0709 19.2432 9.65332C19.2427 9.65275 19.2413 9.65171 19.2393 9.64941C19.235 9.64458 19.2273 9.63568 19.2168 9.62402C19.1956 9.60046 19.1618 9.56375 19.1163 9.51562C19.0244 9.41846 18.8846 9.27494 18.7012 9.10156C18.3334 8.75385 17.7952 8.28814 17.1211 7.82324C15.7599 6.88451 13.919 6 11.8457 6C9.7789 6.00016 8.02094 6.88015 6.74612 7.80859C6.11359 8.26931 5.61604 8.7309 5.27835 9.0752C5.10996 9.24689 4.98255 9.3887 4.89944 9.48438C4.85812 9.53194 4.82748 9.56793 4.80862 9.59082C4.79924 9.60221 4.79268 9.61077 4.78909 9.61523C4.78732 9.61742 4.7855 9.61874 4.78518 9.61914C4.44397 10.0518 3.81667 10.1273 3.38284 9.78711C2.94853 9.44626 2.87232 8.81727 3.21292 8.38281L3.21585 8.37988C3.2168 8.37867 3.21746 8.37669 3.21878 8.375C3.22146 8.37162 3.22533 8.36751 3.22952 8.3623C3.23807 8.35167 3.25001 8.33713 3.26467 8.31934C3.29407 8.28365 3.33525 8.2334 3.3887 8.17188C3.49554 8.04888 3.65044 7.87792 3.84964 7.6748C4.24741 7.26922 4.82922 6.73046 5.56936 6.19141C7.04045 5.12009 9.20562 4.00016 11.8457 4Z" fill="#121212"/>
</svg>
