<svg width="24" height="24" viewBox="0 0 24 24" fill="none" xmlns="http://www.w3.org/2000/svg">
<path d="M11.9735 5C15.8826 5.00016 19.077 7.36517 20.9403 9.14258C22.595 10.7211 22.595 13.2789 20.9403 14.8574C19.077 16.6348 15.8826 18.9998 11.9735 19C7.96218 19 4.85064 16.5127 3.1082 14.708C1.6306 13.1774 1.6306 10.8226 3.1082 9.29199C4.85064 7.48727 7.96218 5 11.9735 5ZM11.9735 7C8.78853 7 6.17029 8.99991 4.54669 10.6816C3.81736 11.4372 3.81736 12.5628 4.54669 13.3184C6.17029 15.0001 8.78853 17 11.9735 17C15.0957 16.9998 17.8076 15.0812 19.5595 13.4102C20.3881 12.6196 20.3881 11.3804 19.5595 10.5898C17.8076 8.91882 15.0957 7.00016 11.9735 7ZM12.1659 8C14.3749 8.00011 16.1659 9.79093 16.1659 12C16.1659 14.2091 14.3749 15.9999 12.1659 16C9.95672 16 8.16585 14.2091 8.16585 12C8.16585 9.79086 9.95672 8 12.1659 8ZM12.1659 10C11.0613 10 10.1659 10.8954 10.1659 12C10.1659 13.1046 11.0613 14 12.1659 14C13.2704 13.9999 14.1659 13.1045 14.1659 12C14.1659 10.8955 13.2704 10.0001 12.1659 10Z" fill="#121212"/>
</svg>
