<svg width="100" height="100" viewBox="0 0 100 100" fill="none" xmlns="http://www.w3.org/2000/svg">
<g filter="url(#filter0_d_6075_41587)">
<rect x="20" y="20" width="60" height="60" rx="30" fill="#121212"/>
<path d="M44.0098 43.4189C43.8676 44.1683 43.792 44.9417 43.792 45.7324C43.792 47.6675 44.239 49.498 45.0332 51.1279H38.3945C37.9688 51.128 37.6241 51.4737 37.624 51.8994C37.6242 52.3251 37.9689 52.6698 38.3945 52.6699H45.9297C47.7607 55.356 50.6227 57.2828 53.9482 57.876C52.4467 62.032 48.4678 65.0029 43.7939 65.0029C41.3303 65.0028 39.0608 64.1755 37.2441 62.7861L34.4922 64.3057C33.8138 64.6801 33.0679 63.9343 33.4424 63.2559L34.9902 60.4502C33.7386 58.6879 33.0001 56.5351 33 54.209C33.0002 48.2478 37.8327 43.4143 43.7939 43.4141C43.8661 43.4141 43.938 43.4175 44.0098 43.4189ZM38.3945 55.7461C37.9689 55.7462 37.6243 56.091 37.624 56.5166C37.624 56.9424 37.9688 57.288 38.3945 57.2881H46.876C47.3018 57.2881 47.6465 56.9424 47.6465 56.5166C47.6462 56.091 47.3016 55.7461 46.876 55.7461H38.3945ZM56.2041 35C62.1654 35.0001 66.9978 39.8327 66.998 45.7939C66.998 48.046 66.3066 50.136 65.127 51.8662L66.7715 54.8447C67.146 55.5231 66.4001 56.269 65.7217 55.8945L62.8398 54.3037C61.009 55.7333 58.707 56.5888 56.2041 56.5889C50.2429 56.5885 45.4092 51.7552 45.4092 45.7939C45.4094 39.8328 50.243 35.0004 56.2041 35ZM55.9912 48.3418C55.7916 48.3419 55.6068 48.3874 55.4375 48.4785C55.2681 48.5698 55.1331 48.6966 55.0332 48.8584C54.9376 49.0161 54.8912 49.1883 54.8955 49.375C54.8912 49.5659 54.9376 49.7425 55.0332 49.9043C55.1331 50.0619 55.2682 50.1888 55.4375 50.2842C55.6068 50.3753 55.7916 50.4208 55.9912 50.4209C56.1824 50.4209 56.3613 50.3754 56.5264 50.2842C56.6914 50.1888 56.8239 50.0619 56.9238 49.9043C57.0238 49.7424 57.0742 49.5659 57.0742 49.375C57.0742 49.1883 57.0237 49.0161 56.9238 48.8584C56.8239 48.6967 56.6914 48.5698 56.5264 48.4785C56.3613 48.3873 56.1824 48.3418 55.9912 48.3418ZM56.1865 41.1689C55.6175 41.169 55.1021 41.266 54.6416 41.4609C54.1853 41.6519 53.8197 41.9429 53.5459 42.333C53.2722 42.719 53.1308 43.1945 53.1221 43.7588H54.9746C54.9833 43.5265 55.0443 43.3271 55.1572 43.1611C55.2702 42.9912 55.4158 42.8625 55.5938 42.7754C55.7718 42.6883 55.9654 42.6419 56.1738 42.6377C56.3867 42.6418 56.5786 42.6883 56.748 42.7754C56.9217 42.8584 57.0583 42.9792 57.1582 43.1367C57.2581 43.2903 57.3086 43.4686 57.3086 43.6719C57.3129 43.9375 57.2276 44.1716 57.0537 44.375C56.8798 44.5783 56.6346 44.7803 56.3174 44.9795C56.0264 45.1537 55.7954 45.3338 55.626 45.5205C55.4566 45.7031 55.3241 45.9506 55.2285 46.2617C55.1373 46.5689 55.0918 46.9717 55.0918 47.4697V47.6064H56.8125V47.4697C56.8125 47.1834 56.85 46.9404 56.9238 46.7412C57.002 46.5422 57.1176 46.3681 57.2695 46.2188C57.4215 46.0694 57.6257 45.9215 57.8818 45.7764C58.3382 45.5149 58.6867 45.2116 58.9258 44.8672C59.1691 44.5185 59.291 44.0991 59.291 43.6094C59.291 43.1072 59.1577 42.6738 58.8926 42.3086C58.6318 41.9393 58.2672 41.656 57.7979 41.4609C57.3328 41.2659 56.7949 41.1689 56.1865 41.1689Z" fill="#FAFAFA"/>
</g>
<defs>
<filter id="filter0_d_6075_41587" x="0" y="0" width="100" height="100" filterUnits="userSpaceOnUse" color-interpolation-filters="sRGB">
<feFlood flood-opacity="0" result="BackgroundImageFix"/>
<feColorMatrix in="SourceAlpha" type="matrix" values="0 0 0 0 0 0 0 0 0 0 0 0 0 0 0 0 0 0 127 0" result="hardAlpha"/>
<feOffset/>
<feGaussianBlur stdDeviation="10"/>
<feComposite in2="hardAlpha" operator="out"/>
<feColorMatrix type="matrix" values="0 0 0 0 0 0 0 0 0 0 0 0 0 0 0 0 0 0 0.25 0"/>
<feBlend mode="normal" in2="BackgroundImageFix" result="effect1_dropShadow_6075_41587"/>
<feBlend mode="normal" in="SourceGraphic" in2="effect1_dropShadow_6075_41587" result="shape"/>
</filter>
</defs>
</svg>
