<svg width="24" height="24" viewBox="0 0 24 24" fill="none" xmlns="http://www.w3.org/2000/svg">
<path d="M22 12.0333C22 17.1829 18.1321 21.4268 13.1515 22L12.9748 17.9845C12.9546 17.5196 13.2031 17.0837 13.6142 16.8695C14.7366 16.2833 15.5025 15.1061 15.5025 13.7498L15.5025 7.84596C15.5025 7.32632 15.0711 6.90703 14.547 6.93104C14.0561 6.95383 13.6775 7.37803 13.6775 7.87182L13.6775 12.1478C13.6775 12.3583 13.5154 12.5412 13.3062 12.5473C13.0896 12.5529 12.9122 12.3787 12.9122 12.1632L12.9122 7.84596C12.9122 7.3257 12.4796 6.90642 11.9555 6.93166C11.4646 6.95506 11.0872 7.37927 11.0872 7.87182L11.0872 12.1632C11.0872 12.3787 10.9104 12.5529 10.6938 12.5473C10.4839 12.5412 10.3219 12.3583 10.3219 12.1478L10.3219 7.84596C10.3219 7.3257 9.88929 6.90642 9.36522 6.93166C8.87429 6.95506 8.49688 7.37927 8.49688 7.87182L8.49688 13.7498C8.49688 15.1061 9.26335 16.2833 10.3851 16.8689C10.7969 17.0831 11.0454 17.519 11.0246 17.9839L10.8478 22C5.86793 21.4268 2 17.1829 2 12.0332C2 6.49206 6.47731 2 11.9997 2C17.5221 2 22 6.49206 22 12.0333Z" fill="#A8AEB2"/>
</svg>
