<svg width="48" height="48" viewBox="0 0 48 48" fill="none" xmlns="http://www.w3.org/2000/svg">
<path d="M44 24.067C44 34.3324 36.2641 42.7924 26.3031 43.9351L25.9496 35.9304C25.9091 35.0038 26.4062 34.1348 27.2285 33.7077C29.4733 32.5393 31.005 30.1926 31.005 27.4888L31.005 15.7199C31.005 14.6841 30.1422 13.8483 29.094 13.8961C28.1122 13.9415 27.3549 14.7872 27.3549 15.7715L27.3549 24.2953C27.3549 24.7151 27.0309 25.0796 26.6124 25.0918C26.1791 25.1029 25.8244 24.7556 25.8244 24.326L25.8244 15.7199C25.8244 14.6828 24.9592 13.847 23.911 13.8973C22.9291 13.944 22.1743 14.7896 22.1743 15.7715L22.1743 24.326C22.1743 24.7556 21.8209 25.1029 21.3876 25.0918C20.9679 25.0796 20.6439 24.7151 20.6439 24.2953L20.6439 15.7199C20.6439 14.6828 19.7786 13.847 18.7304 13.8973C17.7486 13.944 16.9938 14.7896 16.9938 15.7715L16.9938 27.4888C16.9938 30.1926 18.5267 32.5393 20.7703 33.7065C21.5938 34.1336 22.0909 35.0026 22.0491 35.9292L21.6957 43.9351C11.7359 42.7924 3.99999 34.3324 4 24.067C4 13.021 12.9546 4.06641 23.9994 4.06641C35.0441 4.06641 44 13.021 44 24.067Z" fill="#FA5332"/>
</svg>
