<svg width="24" height="24" viewBox="0 0 24 24" fill="none" xmlns="http://www.w3.org/2000/svg">
<path d="M21.805 10.0413H20.9995V9.9998H11.9997V13.9997H17.6511C16.8266 16.3281 14.6112 17.9996 11.9997 17.9996C8.68633 17.9996 5.9999 15.3132 5.9999 11.9997C5.9999 8.68633 8.68633 5.9999 11.9997 5.9999C13.5292 5.9999 14.9207 6.57688 15.9801 7.51936L18.8086 4.69093C17.0226 3.02647 14.6337 2 11.9997 2C6.47739 2 2 6.47739 2 11.9997C2 17.5221 6.47739 21.9995 11.9997 21.9995C17.5221 21.9995 21.9995 17.5221 21.9995 11.9997C21.9995 11.3293 21.9305 10.6748 21.805 10.0413Z" fill="#FFC107"/>
<path d="M3.15283 7.34537L6.43825 9.75481C7.32723 7.55386 9.48017 5.9999 11.9996 5.9999C13.5291 5.9999 14.9205 6.57689 15.98 7.51936L18.8084 4.69093C17.0225 3.02647 14.6335 2 11.9996 2C8.15871 2 4.82779 4.16845 3.15283 7.34537Z" fill="#FF3D00"/>
<path d="M11.9994 22.0001C14.5824 22.0001 16.9293 21.0117 18.7038 19.4042L15.6089 16.7853C14.6049 17.5458 13.3569 18.0002 11.9994 18.0002C9.39851 18.0002 7.19007 16.3418 6.35809 14.0273L3.09717 16.5398C4.75213 19.7782 8.11304 22.0001 11.9994 22.0001Z" fill="#4CAF50"/>
<path d="M21.8048 10.042H20.9993V10.0005H11.9995V14.0004H17.6509C17.2549 15.1189 16.5354 16.0833 15.6074 16.7858L15.6089 16.7848L18.7038 19.4038C18.4848 19.6027 21.9993 17.0003 21.9993 12.0004C21.9993 11.33 21.9303 10.6755 21.8048 10.042Z" fill="#1976D2"/>
</svg>
