<svg width="60" height="60" viewBox="0 0 60 60" fill="none" xmlns="http://www.w3.org/2000/svg">
<path d="M34.8615 11.5012C36.2213 11.2615 37.5179 12.1694 37.7577 13.5291L37.7582 13.532C38.1153 13.1497 38.5932 12.8741 39.1481 12.7762C40.5077 12.5365 41.8044 13.4445 42.0442 14.8041L42.9068 19.6964C43.4789 18.9196 44.4754 18.5116 45.476 18.7397C46.822 19.0466 47.6642 20.3868 47.3574 21.7329L45.0507 31.8546L45.0832 32.0392C45.3315 33.448 45.1919 34.8345 44.7459 36.093L47.8168 41.412C49.4736 44.2818 48.4905 47.9515 45.6207 49.6083C42.7511 51.2651 39.0813 50.2819 37.4244 47.4123L33.4184 40.4732C31.3367 39.3527 29.7688 37.3265 29.3263 34.8176L26.4609 18.5673C26.2212 17.2076 27.1291 15.911 28.4888 15.6712C28.6574 15.6415 28.8251 15.6292 28.9899 15.6334L28.8946 15.0929C28.6548 13.7332 29.5627 12.4365 30.9225 12.1968C31.7287 12.0546 32.5106 12.3176 33.0653 12.8373C33.4086 12.1585 34.0547 11.6435 34.8615 11.5012Z" fill="#FFD6CE"/>
<path d="M30.0517 24.5349L28.4225 15.2956C28.2707 14.4343 28.6184 13.5609 29.3208 13.0399C29.5426 12.8754 29.8559 12.9219 30.0204 13.1437C30.1849 13.3654 30.1384 13.6787 29.9167 13.8432C29.5184 14.1386 29.3212 14.6337 29.4073 15.122L31.0365 24.3613C31.0844 24.6332 30.9028 24.8925 30.6309 24.9405C30.359 24.9884 30.0996 24.8069 30.0517 24.5349Z" fill="#FC9B88"/>
<path d="M33.9911 23.8396L32.362 14.6003C32.2101 13.739 32.5578 12.8656 33.2603 12.3446C33.4821 12.1801 33.7953 12.2266 33.9598 12.4483C34.1243 12.6701 34.0779 12.9834 33.8561 13.1479C33.4579 13.4433 33.2607 13.9384 33.3468 14.4267L34.9759 23.666C35.0239 23.9379 34.8423 24.1972 34.5704 24.2452C34.2984 24.2931 34.0391 24.1115 33.9911 23.8396Z" fill="#FC9B88"/>
<path d="M37.93 23.1454L36.6481 15.8757C36.4962 15.0144 36.844 14.141 37.5464 13.62C37.7682 13.4555 38.0815 13.5019 38.246 13.7237C38.4105 13.9455 38.364 14.2588 38.1422 14.4233C37.744 14.7187 37.5468 15.2138 37.6329 15.702L38.9148 22.9717C38.9627 23.2437 38.7811 23.503 38.5092 23.551C38.2372 23.5989 37.9779 23.4173 37.93 23.1454Z" fill="#FC9B88"/>
<path d="M43.1421 19.7412C42.8775 19.6625 42.599 19.8133 42.5203 20.078L40.289 27.5794C40.2102 27.8441 40.361 28.1225 40.6257 28.2012C40.8904 28.28 41.1689 28.1292 41.2476 27.8645L43.4789 20.3631C43.5576 20.0984 43.4068 19.8199 43.1421 19.7412Z" fill="#FC9B88"/>
<path d="M28.4214 17.0104C29.781 17.2501 30.6889 18.5469 30.4493 19.9065L30.2748 20.8961C30.7413 20.6587 31.2851 20.5636 31.8403 20.6615C33.1998 20.9014 34.1079 22.198 33.8682 23.5576L32.479 31.4361C32.478 31.4419 32.476 31.4475 32.475 31.4532L31.0022 39.8058C30.5661 42.2781 29.0375 44.2819 27.0011 45.412L22.9619 52.4097C21.305 55.2795 17.6354 56.2626 14.7656 54.6057C11.8959 52.9489 10.9127 49.2792 12.5696 46.4095L15.6064 41.1489C15.1411 39.8726 14.9925 38.4614 15.2453 37.0275L15.2778 36.8428L12.9711 26.7211C12.6643 25.3749 13.5072 24.0349 14.8534 23.7281C15.8534 23.5002 16.8498 23.9068 17.422 24.6827L18.2843 19.7924C18.524 18.4328 19.8208 17.5249 21.1804 17.7645C21.3637 17.7968 21.5385 17.8499 21.7037 17.9182C22.1121 16.802 23.2715 16.1033 24.4829 16.3169C25.289 16.4592 25.9338 16.9746 26.2772 17.6527C26.832 17.1322 27.6146 16.8682 28.4214 17.0104Z" fill="#FFEEEB"/>
<path d="M26.9757 30.9719L28.6048 21.7326C28.7567 20.8713 29.3822 20.1696 30.2204 19.9202C30.4851 19.8415 30.7636 19.9923 30.8423 20.2569C30.921 20.5216 30.7703 20.8001 30.5056 20.8788C30.0303 21.0202 29.6757 21.418 29.5896 21.9063L27.9605 31.1456C27.9125 31.4175 27.6532 31.5991 27.3813 31.5512C27.1093 31.5032 26.9277 31.2439 26.9757 30.9719Z" fill="#FDB8AB"/>
<path d="M23.0366 30.2775L25.013 19.0686C25.1649 18.2073 25.7904 17.5055 26.6287 17.2561C26.8933 17.1774 27.1718 17.3282 27.2505 17.5929C27.3293 17.8576 27.1785 18.136 26.9138 18.2148C26.4385 18.3561 26.0839 18.7539 25.9978 19.2422L24.0214 30.4511C23.9734 30.7231 23.7141 30.9047 23.4422 30.8567C23.1702 30.8088 22.9886 30.5494 23.0366 30.2775Z" fill="#FDB8AB"/>
<path d="M19.0971 29.5822L21.0736 18.3732C21.2254 17.5119 21.8509 16.8102 22.6892 16.5608C22.9539 16.4821 23.2323 16.6329 23.3111 16.8976C23.3898 17.1623 23.239 17.4407 22.9743 17.5194C22.4991 17.6608 22.1445 18.0586 22.0584 18.5469L20.0819 29.7558C20.034 30.0278 19.7747 30.2093 19.5027 30.1614C19.2308 30.1134 19.0492 29.8541 19.0971 29.5822Z" fill="#FDB8AB"/>
<path d="M15.4478 33.0017L16.837 25.1233C16.885 24.8513 17.1443 24.6697 17.4162 24.7177C17.6882 24.7656 17.8698 25.025 17.8218 25.2969L16.4326 33.1754C16.3847 33.4473 16.1253 33.6289 15.8534 33.581C15.5815 33.533 15.3999 33.2737 15.4478 33.0017Z" fill="#FDB8AB"/>
<path d="M11.5004 6.8654C11.2242 6.38711 11.3881 5.77552 11.8664 5.49938C12.3447 5.22323 12.9563 5.38711 13.2324 5.8654L15.2324 9.3295C15.5085 9.8078 15.3447 10.4194 14.8664 10.6955C14.3881 10.9717 13.7765 10.8078 13.5004 10.3295L11.5004 6.8654Z" fill="#FAFAFA"/>
<path d="M4.50017 15.8662C4.02187 15.59 3.858 14.9785 4.13414 14.5002C4.41028 14.0219 5.02187 13.858 5.50017 14.1341L8.96427 16.1341C9.44256 16.4103 9.60644 17.0219 9.33029 17.5002C9.05415 17.9785 8.44256 18.1423 7.96427 17.8662L4.50017 15.8662Z" fill="#FAFAFA"/>
<path d="M3 27.6934C2.44772 27.6934 2 27.2456 2 26.6934C2 26.1411 2.44772 25.6934 3 25.6934H7C7.55228 25.6934 8 26.1411 8 26.6934C8 27.2456 7.55228 27.6934 7 27.6934H3Z" fill="#FAFAFA"/>
<path d="M5.86638 38.833C5.38809 39.1091 4.77649 38.9453 4.50035 38.467C4.22421 37.9887 4.38809 37.3771 4.86638 37.1009L8.33048 35.1009C8.80877 34.8248 9.42036 34.9887 9.6965 35.467C9.97265 35.9453 9.80877 36.5568 9.33048 36.833L5.86638 38.833Z" fill="#FAFAFA"/>
<path d="M48.8659 6.8654C49.142 6.38711 48.9781 5.77552 48.4998 5.49938C48.0215 5.22323 47.41 5.38711 47.1338 5.8654L45.1338 9.3295C44.8577 9.8078 45.0215 10.4194 45.4998 10.6955C45.9781 10.9717 46.5897 10.8078 46.8659 10.3295L48.8659 6.8654Z" fill="#FAFAFA"/>
<path d="M55.866 15.8662C56.3443 15.59 56.5082 14.9785 56.2321 14.5002C55.9559 14.0219 55.3443 13.858 54.866 14.1341L51.4019 16.1341C50.9237 16.4103 50.7598 17.0219 51.0359 17.5002C51.3121 17.9785 51.9236 18.1423 52.4019 17.8662L55.866 15.8662Z" fill="#FAFAFA"/>
<path d="M57.3662 27.6934C57.9185 27.6934 58.3662 27.2456 58.3662 26.6934C58.3662 26.1411 57.9185 25.6934 57.3662 25.6934H53.3662C52.8139 25.6934 52.3662 26.1411 52.3662 26.6934C52.3662 27.2456 52.8139 27.6934 53.3662 27.6934H57.3662Z" fill="#FAFAFA"/>
<path d="M54.4998 38.833C54.9781 39.1091 55.5897 38.9453 55.8659 38.467C56.142 37.9887 55.9781 37.3771 55.4998 37.1009L52.0357 35.1009C51.5574 34.8248 50.9458 34.9887 50.6697 35.467C50.3936 35.9453 50.5574 36.5568 51.0357 36.833L54.4998 38.833Z" fill="#FAFAFA"/>
</svg>
