<svg width="188" height="182" viewBox="0 0 188 182" fill="none" xmlns="http://www.w3.org/2000/svg">
<path d="M65.3509 42.1159C67.378 42.7243 68.53 44.8612 67.9241 46.891C67.3177 48.922 65.1807 50.0767 63.1511 49.4699L64.249 45.7923C63.1545 49.4582 63.149 49.4691 63.1469 49.4685C63.1461 49.4683 63.1439 49.4678 63.1424 49.4673C63.1394 49.4664 63.1362 49.4653 63.1329 49.4643C63.1262 49.4623 63.1187 49.46 63.1108 49.4576C63.095 49.4527 63.0768 49.447 63.0562 49.4405C63.0149 49.4273 62.9641 49.4107 62.9045 49.3904C62.7851 49.3498 62.6298 49.2944 62.4433 49.2223C62.0708 49.0782 61.5706 48.8661 60.982 48.571C59.8087 47.9826 58.2572 47.0504 56.6619 45.6441C53.4128 42.7801 50.1184 38.0592 49.3695 30.731C49.154 28.6222 50.6876 26.7378 52.795 26.5221C54.9023 26.3065 56.7852 27.8412 57.0007 29.95C57.532 35.1487 59.7697 38.1537 61.7325 39.8839C62.743 40.7746 63.7174 41.3566 64.4185 41.7081C64.7671 41.8829 65.0415 41.9973 65.209 42.0621C65.2924 42.0944 65.3485 42.1141 65.3731 42.1224C65.3793 42.1245 65.3835 42.1258 65.3856 42.1265C65.3835 42.1258 65.3792 42.1246 65.3728 42.1227C65.3696 42.1217 65.3659 42.1203 65.3616 42.119C65.3594 42.1184 65.3571 42.1177 65.3546 42.117C65.3534 42.1166 65.3515 42.1161 65.3509 42.1159Z" fill="#FA5332"/>
<path d="M117.956 46.0816C120.059 45.8429 121.958 47.3547 122.199 49.4588C122.199 49.4582 122.198 49.4562 122.198 49.4549C122.198 49.4524 122.198 49.4499 122.197 49.4476C122.197 49.4432 122.196 49.4393 122.196 49.436C122.195 49.4294 122.194 49.4249 122.194 49.4227C122.194 49.4184 122.194 49.423 122.196 49.4357C122.2 49.4615 122.209 49.5202 122.226 49.608C122.261 49.7845 122.325 50.0749 122.435 50.4492C122.657 51.2017 123.058 52.2642 123.756 53.4167C125.111 55.6553 127.672 58.3897 132.692 59.8305C134.728 60.4149 135.905 62.5403 135.321 64.578C134.737 66.6156 132.613 67.7937 130.577 67.2093C123.501 65.1784 119.439 61.1004 117.195 57.3947C116.093 55.5751 115.45 53.8824 115.078 52.6229C114.892 51.9911 114.772 51.461 114.696 51.0687C114.658 50.8723 114.63 50.7094 114.612 50.5847C114.602 50.5224 114.595 50.4694 114.589 50.4265C114.586 50.405 114.584 50.386 114.582 50.3696C114.581 50.3614 114.58 50.3536 114.579 50.3466C114.579 50.3432 114.578 50.3399 114.578 50.3368C114.578 50.3353 114.578 50.333 114.577 50.3322C114.577 50.33 114.585 50.3269 118.388 49.8954L114.577 50.3278C114.338 48.2216 115.851 46.3204 117.956 46.0816Z" fill="#FA5332"/>
<path d="M93.9902 70.4473C112.013 70.4473 126.623 55.827 126.623 37.792C126.623 19.757 112.013 5.13672 93.9902 5.13672C75.9676 5.13672 61.3574 19.757 61.3574 37.792C61.3574 55.827 75.9676 70.4473 93.9902 70.4473Z" fill="#FA5332"/>
<path d="M120.284 24.3771L124.408 36.1802L114.604 23.7722L106.329 25.768L108.323 17.4868L95.9238 7.67944L107.722 11.8032L103.598 0L113.402 12.4081L121.677 10.4122L119.683 18.6935L132.082 28.5039L120.284 24.3771Z" fill="#00770E"/>
<path d="M77.2154 54.794C79.1896 54.794 80.7901 53.1925 80.7901 51.2168C80.7901 49.2412 79.1896 47.6396 77.2154 47.6396C75.2411 47.6396 73.6406 49.2412 73.6406 51.2168C73.6406 53.1925 75.2411 54.794 77.2154 54.794Z" fill="#FB7055"/>
<path d="M109.762 54.794C111.736 54.794 113.337 53.1925 113.337 51.2168C113.337 49.2412 111.736 47.6396 109.762 47.6396C107.788 47.6396 106.188 49.2412 106.188 51.2168C106.188 53.1925 107.788 54.794 109.762 54.794Z" fill="#FB7055"/>
<path d="M85.966 53.67C90.1196 53.67 93.4868 50.3005 93.4868 46.1441C93.4868 41.9876 90.1196 38.6182 85.966 38.6182C81.8125 38.6182 78.4453 41.9876 78.4453 46.1441C78.4453 50.3005 81.8125 53.67 85.966 53.67Z" fill="#FAFAFA"/>
<path d="M85.9668 51.9141C89.151 51.9141 91.7323 49.331 91.7323 46.1446C91.7323 42.9581 89.151 40.375 85.9668 40.375C82.7825 40.375 80.2012 42.9581 80.2012 46.1446C80.2012 49.331 82.7825 51.9141 85.9668 51.9141Z" fill="#121212"/>
<path d="M101.011 53.67C105.165 53.67 108.532 50.3005 108.532 46.1441C108.532 41.9876 105.165 38.6182 101.011 38.6182C96.8574 38.6182 93.4902 41.9876 93.4902 46.1441C93.4902 50.3005 96.8574 53.67 101.011 53.67Z" fill="#FAFAFA"/>
<path d="M101.012 51.9141C104.196 51.9141 106.777 49.331 106.777 46.1446C106.777 42.9581 104.196 40.375 101.012 40.375C97.8274 40.375 95.2461 42.9581 95.2461 46.1446C95.2461 49.331 97.8274 51.9141 101.012 51.9141Z" fill="#121212"/>
<path d="M81.214 67.3037V77.8326L79.0508 80.0004H92.2358V67.3037" fill="#FA5332"/>
<path d="M105.764 67.3037V77.8326L107.927 80.0004H94.7422V67.3037" fill="#FA5332"/>
<path d="M99.0827 105.323C99.0827 108.613 98.6636 111.468 97.8223 113.883C96.9811 116.298 95.7837 118.35 94.2303 120.037C92.677 121.724 90.8179 123.09 88.6533 124.13C86.4886 125.17 84.094 125.982 81.4693 126.567C78.8446 127.151 76.0088 127.545 72.9619 127.754C70.7468 127.907 68.4719 128.001 66.1371 128.044C64.6751 128.069 63.4778 126.895 63.4778 125.445V116.76C63.4778 115.354 64.6089 114.202 66.0268 114.164C71.4621 114.02 75.3219 113.392 77.6095 112.28C78.5673 111.815 78.2333 110.384 77.1652 110.384C73.8536 110.384 68.2482 110.384 65.3431 110.384C64.3096 110.384 63.4746 109.553 63.4746 108.528V99.109C63.4746 97.6751 64.6467 96.5098 66.0961 96.5098H96.458C97.9043 96.5098 99.0795 97.6719 99.0795 99.109V105.32L99.0827 105.323ZM118.013 151.997H102.649C101.203 151.997 100.028 150.835 100.028 149.398V144.218C100.028 143.752 99.6467 143.374 99.1772 143.374H66.0993C64.653 143.374 63.4778 142.212 63.4778 140.775V131.54C63.4778 130.106 64.6499 128.941 66.0993 128.941H118.013C119.459 128.941 120.635 130.103 120.635 131.54V149.398C120.635 150.832 119.463 151.997 118.013 151.997ZM118.013 127.441H103.28C101.833 127.441 100.658 126.279 100.658 124.842V99.1121C100.658 97.6782 101.83 96.5129 103.28 96.5129H118.013C119.459 96.5129 120.635 97.6751 120.635 99.1121V103.136H122.361C123.808 103.136 124.983 104.298 124.983 105.735V118.781C124.983 120.215 123.811 121.381 122.361 121.381H120.635V124.842C120.635 126.276 119.463 127.441 118.013 127.441Z" fill="#FB7055"/>
<path d="M161.975 124.426C161.975 126.217 160.459 127.638 158.654 127.551C158.065 127.522 157.482 127.485 156.902 127.441C155.242 127.316 153.647 127.088 152.113 126.754C150.578 126.42 149.141 125.932 147.796 125.286C146.766 124.792 145.824 124.192 144.967 123.492C144.522 123.127 143.886 123.127 143.442 123.492C142.588 124.192 141.655 124.792 140.644 125.286C139.32 125.932 137.893 126.42 136.358 126.754C134.824 127.088 133.23 127.316 131.569 127.441C130.989 127.485 130.403 127.522 129.817 127.551C128.012 127.638 126.496 126.217 126.496 124.426V116.926C126.496 115.417 127.586 114.133 129.08 113.851C129.965 113.686 130.74 113.427 131.411 113.07C132.508 112.492 133.223 111.502 133.557 110.099C133.636 109.765 133.371 109.446 133.025 109.446H129.65C127.908 109.446 126.496 108.047 126.496 106.319V99.6399C126.496 97.9123 127.908 96.5127 129.65 96.5127H158.821C160.563 96.5127 161.975 97.9123 161.975 99.6399V106.319C161.975 108.047 160.563 109.446 158.821 109.446H155.396C155.046 109.446 154.778 109.774 154.867 110.112C155.232 111.505 155.963 112.492 157.056 113.07C157.728 113.427 158.503 113.686 159.388 113.851C160.882 114.133 161.972 115.417 161.972 116.926V124.426H161.975ZM180.499 151.997H166.2C164.458 151.997 163.046 150.597 163.046 148.869V144.399C163.046 143.833 162.583 143.374 162.013 143.374H129.65C127.908 143.374 126.496 141.975 126.496 140.247V132.068C126.496 130.34 127.908 128.941 129.65 128.941H180.499C182.241 128.941 183.653 130.34 183.653 132.068V148.869C183.653 150.597 182.241 151.997 180.499 151.997ZM180.499 127.441H166.83C165.088 127.441 163.676 126.042 163.676 124.314V99.6399C163.676 97.9123 165.088 96.5127 166.83 96.5127H180.499C182.241 96.5127 183.653 97.9123 183.653 99.6399V103.136H184.847C186.59 103.136 188.001 104.535 188.001 106.263V118.253C188.001 119.981 186.59 121.381 184.847 121.381H183.653V124.314C183.653 126.042 182.241 127.441 180.499 127.441Z" fill="#FB7055"/>
<path d="M55.4429 134.18C52.5945 135.011 49.5759 135.711 46.4188 136.26C44.7708 136.595 43.0725 136.873 41.3395 137.113V131.755H54.5764C57.012 131.755 58.9845 129.8 58.9845 127.385V100.886C58.9845 98.4713 57.012 96.5156 54.5764 96.5156H4.66015C2.22452 96.5156 0.252071 98.4713 0.252071 100.886V127.385C0.252071 129.8 2.22452 131.755 4.66015 131.755H17.897V137.235C13.6086 136.692 9.54401 135.851 5.79447 134.751C5.12018 134.576 4.45534 134.392 3.79996 134.202C1.90628 133.652 0 135.014 0 136.941V144.652C0 146.254 1.06185 147.673 2.63098 148.157C10.4924 150.594 19.7403 152 29.6466 152C39.553 152 48.7567 150.6 56.6055 148.173C58.1747 147.688 59.2397 146.27 59.2397 144.667V136.923C59.2397 134.998 57.3366 133.63 55.446 134.183L55.4429 134.18ZM19.5354 112.033H39.7011C40.3974 112.033 40.9614 112.592 40.9614 113.283C40.9614 113.973 40.3974 114.532 39.7011 114.532H19.5354C18.8391 114.532 18.2751 113.973 18.2751 113.283C18.2751 112.592 18.8391 112.033 19.5354 112.033Z" fill="#FA5332"/>
<path d="M36.5021 96.3505L45.2406 100.531L33.0534 99.1169L29.6046 104.706L26.156 99.1169L13.9688 100.531L22.7072 96.3505L13.9688 92.1753L26.156 93.5893L29.6046 88L33.0534 93.5893L45.2406 92.1753L36.5021 96.3505Z" fill="#00770E"/>
<path d="M25.625 176.672H12.7188V175.25H18.2812V172.172H14.1406V165.359H24.1406V172.172H20V175.25H25.625V176.672ZM22.4219 170.812V166.75H15.8438V170.812H22.4219ZM30.4062 165.297C31.0417 165.297 31.6146 165.466 32.125 165.805C32.6354 166.143 33.0495 166.625 33.3672 167.25H36.6719V164.266H38.3906V178.406H36.6719V173.062H33.4922C33.1849 173.771 32.763 174.318 32.2266 174.703C31.6901 175.089 31.0833 175.281 30.4062 175.281C29.6979 175.281 29.0677 175.078 28.5156 174.672C27.9688 174.26 27.5417 173.677 27.2344 172.922C26.9323 172.167 26.7812 171.286 26.7812 170.281C26.7812 169.281 26.9323 168.406 27.2344 167.656C27.5417 166.901 27.9714 166.32 28.5234 165.914C29.0755 165.503 29.7031 165.297 30.4062 165.297ZM28.4531 170.281C28.4531 170.995 28.5339 171.609 28.6953 172.125C28.8568 172.641 29.0833 173.034 29.375 173.305C29.6719 173.576 30.0156 173.714 30.4062 173.719C30.7969 173.714 31.1406 173.576 31.4375 173.305C31.7344 173.034 31.9635 172.641 32.125 172.125C32.2917 171.609 32.375 170.995 32.375 170.281C32.375 169.573 32.2917 168.961 32.125 168.445C31.9635 167.93 31.7344 167.536 31.4375 167.266C31.1406 166.995 30.7969 166.859 30.4062 166.859C30.0156 166.859 29.6719 166.997 29.375 167.273C29.0833 167.544 28.8568 167.938 28.6953 168.453C28.5339 168.964 28.4531 169.573 28.4531 170.281ZM33.8594 168.672C33.9635 169.177 34.0156 169.714 34.0156 170.281C34.0156 170.766 33.9766 171.224 33.8984 171.656H36.6719V168.672H33.8594ZM45.5938 167.656C45.5885 168.542 45.724 169.396 46 170.219C46.276 171.042 46.6771 171.773 47.2031 172.414C47.7344 173.049 48.3646 173.526 49.0938 173.844L48.0469 175.234C47.2656 174.854 46.5938 174.307 46.0312 173.594C45.4688 172.88 45.0339 172.049 44.7266 171.102C44.4089 172.107 43.9609 172.992 43.3828 173.758C42.8047 174.518 42.1198 175.099 41.3281 175.5L40.2344 174.094C40.9792 173.745 41.6224 173.234 42.1641 172.562C42.7057 171.891 43.1172 171.128 43.3984 170.273C43.6797 169.419 43.8229 168.547 43.8281 167.656V165.406H45.5938V167.656ZM47.5312 168.828H50.5V164.266H52.2188V178.406H50.5V170.234H47.5312V168.828ZM69.1406 167.672H71.1094V169.125H69.1406V172.5H67.4062V164.266H69.1406V167.672ZM57.8594 171.094C58.9427 170.812 59.8776 170.445 60.6641 169.992C61.4505 169.534 62.0677 169.01 62.5156 168.422C62.9635 167.828 63.237 167.188 63.3359 166.5H58.5625V165.094H65.2031C65.2031 166.318 64.9427 167.417 64.4219 168.391C63.9062 169.365 63.1536 170.19 62.1641 170.867C61.1797 171.544 59.9844 172.062 58.5781 172.422L57.8594 171.094ZM59.7344 173.094H69.1406V178.391H67.4062V174.484H59.7344V173.094ZM76.8906 168.281C76.8854 169.016 77.0234 169.758 77.3047 170.508C77.5911 171.258 78.0026 171.943 78.5391 172.562C79.0755 173.177 79.7031 173.651 80.4219 173.984L79.4531 175.359C78.6771 174.995 77.9974 174.461 77.4141 173.758C76.8307 173.049 76.375 172.24 76.0469 171.328C75.7188 172.323 75.2526 173.206 74.6484 173.977C74.0443 174.747 73.3438 175.323 72.5469 175.703L71.5312 174.344C72.2604 174 72.8984 173.503 73.4453 172.852C73.9922 172.201 74.4115 171.474 74.7031 170.672C75 169.87 75.151 169.073 75.1562 168.281V167.094H72.0781V165.656H79.8438V167.094H76.8906V168.281ZM81.1562 164.266H82.8906V169.766H85.0625V171.219H82.8906V178.391H81.1562V164.266ZM94.5156 166.719C94.5156 167.312 94.6406 167.883 94.8906 168.43C95.1458 168.977 95.5234 169.466 96.0234 169.898C96.5286 170.331 97.1406 170.667 97.8594 170.906L96.9844 172.25C96.2083 171.99 95.5391 171.609 94.9766 171.109C94.4193 170.609 93.9818 170.021 93.6641 169.344C93.3464 170.083 92.8932 170.727 92.3047 171.273C91.7214 171.815 91.026 172.224 90.2188 172.5L89.2969 171.156C90.0312 170.911 90.6589 170.56 91.1797 170.102C91.7057 169.643 92.1016 169.122 92.3672 168.539C92.6328 167.951 92.7656 167.344 92.7656 166.719V166.547H89.7812V165.156H97.4531V166.547H94.5156V166.719ZM91.1875 173.438H100.594V178.391H98.8594V174.828H91.1875V173.438ZM98.8594 164.266H100.594V167.797H102.562V169.25H100.594V172.781H98.8594V164.266ZM107.203 164.891C107.807 164.891 108.362 165 108.867 165.219C109.372 165.432 109.794 165.737 110.133 166.133C110.477 166.523 110.706 166.974 110.82 167.484H113.375V164.266H115.109V171.844H113.375V168.891H110.836C110.727 169.417 110.5 169.88 110.156 170.281C109.818 170.682 109.393 170.995 108.883 171.219C108.372 171.438 107.812 171.547 107.203 171.547C106.49 171.547 105.849 171.404 105.281 171.117C104.714 170.831 104.268 170.435 103.945 169.93C103.628 169.419 103.469 168.844 103.469 168.203C103.469 167.568 103.628 166.997 103.945 166.492C104.268 165.987 104.714 165.594 105.281 165.312C105.849 165.031 106.49 164.891 107.203 164.891ZM105.125 168.203C105.125 168.573 105.214 168.901 105.391 169.188C105.568 169.474 105.812 169.695 106.125 169.852C106.443 170.003 106.802 170.078 107.203 170.078C107.594 170.078 107.943 170.003 108.25 169.852C108.562 169.695 108.807 169.474 108.984 169.188C109.161 168.901 109.25 168.573 109.25 168.203C109.25 167.833 109.161 167.508 108.984 167.227C108.807 166.94 108.565 166.721 108.258 166.57C107.951 166.419 107.599 166.344 107.203 166.344C106.797 166.344 106.438 166.419 106.125 166.57C105.812 166.721 105.568 166.94 105.391 167.227C105.214 167.508 105.125 167.833 105.125 168.203ZM105.797 172.5H107.516V174H113.375V172.5H115.109V178.219H105.797V172.5ZM113.375 176.812V175.344H107.516V176.812H113.375ZM128.172 169.891H130.344V171.328H128.172V178.391H126.453V164.266H128.172V169.891ZM117.031 166.438H120.375V164.469H122.109V166.438H125.359V167.828H117.031V166.438ZM117.688 172.078C117.682 171.438 117.833 170.865 118.141 170.359C118.448 169.849 118.872 169.453 119.414 169.172C119.956 168.891 120.568 168.75 121.25 168.75C121.922 168.75 122.526 168.891 123.062 169.172C123.599 169.453 124.021 169.849 124.328 170.359C124.641 170.865 124.797 171.438 124.797 172.078C124.797 172.719 124.641 173.292 124.328 173.797C124.021 174.297 123.599 174.688 123.062 174.969C122.526 175.25 121.922 175.391 121.25 175.391C120.568 175.391 119.956 175.25 119.414 174.969C118.872 174.688 118.448 174.297 118.141 173.797C117.833 173.292 117.682 172.719 117.688 172.078ZM119.344 172.078C119.344 172.453 119.424 172.784 119.586 173.07C119.747 173.352 119.971 173.57 120.258 173.727C120.549 173.878 120.88 173.953 121.25 173.953C121.609 173.953 121.932 173.878 122.219 173.727C122.505 173.576 122.729 173.357 122.891 173.07C123.052 172.784 123.135 172.453 123.141 172.078C123.135 171.703 123.049 171.372 122.883 171.086C122.721 170.794 122.497 170.57 122.211 170.414C121.93 170.253 121.609 170.172 121.25 170.172C120.88 170.172 120.549 170.253 120.258 170.414C119.971 170.57 119.747 170.794 119.586 171.086C119.424 171.372 119.344 171.703 119.344 172.078ZM142.375 169.641H132.594V164.781H134.312V168.266H142.375V169.641ZM130.922 171.281H143.828V172.656H130.922V171.281ZM132.469 173.906H134.203V176.656H142.469V178.062H132.469V173.906ZM153.906 167.656C153.901 168.526 154.044 169.372 154.336 170.195C154.628 171.018 155.049 171.75 155.602 172.391C156.154 173.031 156.802 173.51 157.547 173.828L156.516 175.219C155.719 174.849 155.023 174.312 154.43 173.609C153.841 172.901 153.38 172.076 153.047 171.133C152.714 172.148 152.242 173.039 151.633 173.805C151.029 174.57 150.307 175.151 149.469 175.547L148.406 174.094C149.172 173.766 149.836 173.271 150.398 172.609C150.961 171.943 151.391 171.18 151.688 170.32C151.984 169.461 152.135 168.573 152.141 167.656V165.406H153.906V167.656ZM158.562 164.266H160.312V178.406H158.562V164.266ZM173.531 168.328H175.5V169.781H173.531V174.453H171.766V164.266H173.531V168.328ZM162.344 171.609C163.411 171.302 164.336 170.906 165.117 170.422C165.898 169.938 166.513 169.388 166.961 168.773C167.414 168.154 167.69 167.484 167.789 166.766H162.938V165.344H169.688C169.688 166.583 169.427 167.706 168.906 168.711C168.385 169.711 167.63 170.573 166.641 171.297C165.651 172.016 164.458 172.578 163.062 172.984L162.344 171.609ZM164.453 173.406H166.219V176.703H174.062V178.109H164.453V173.406Z" fill="#FA5332"/>
</svg>
