<svg width="257" height="224" viewBox="0 0 257 224" fill="none" xmlns="http://www.w3.org/2000/svg">
<path d="M92.5307 52.6452C95.0759 53.4056 96.5223 56.0768 95.7615 58.614C95.0002 61.1528 92.3171 62.5961 89.7687 61.8377L91.1472 57.2406C89.7731 61.823 89.7661 61.8367 89.7635 61.8359C89.7625 61.8356 89.7597 61.835 89.7578 61.8344C89.754 61.8333 89.7501 61.8319 89.7459 61.8306C89.7375 61.8281 89.7281 61.8253 89.7182 61.8222C89.6983 61.8161 89.6754 61.809 89.6496 61.8008C89.5978 61.7844 89.534 61.7636 89.4591 61.7383C89.3093 61.6875 89.1142 61.6182 88.8801 61.5281C88.4124 61.348 87.7844 61.0829 87.0454 60.7139C85.5722 59.9785 83.6242 58.8133 81.6212 57.0554C77.5418 53.4754 73.4055 47.5743 72.4652 38.414C72.1946 35.778 74.1202 33.4225 76.766 33.1529C79.4119 32.8833 81.776 34.8018 82.0466 37.4377C82.7137 43.9361 85.5233 47.6924 87.9876 49.8551C89.2564 50.9685 90.4798 51.696 91.36 52.1354C91.7977 52.3539 92.1422 52.4969 92.3526 52.5779C92.4573 52.6182 92.5277 52.6428 92.5586 52.6533C92.5664 52.6559 92.5717 52.6575 92.5743 52.6583C92.5717 52.6575 92.5663 52.656 92.5582 52.6536C92.5542 52.6523 92.5496 52.6507 92.5442 52.649C92.5415 52.6482 92.5385 52.6474 92.5354 52.6465C92.5339 52.646 92.5314 52.6454 92.5307 52.6452Z" fill="#FA5332"/>
<path d="M158.578 57.602C161.219 57.3036 163.602 59.1934 163.905 61.8235C163.905 61.8227 163.904 61.8202 163.904 61.8186C163.904 61.8155 163.903 61.8123 163.903 61.8095C163.902 61.804 163.902 61.7992 163.901 61.795C163.9 61.7867 163.899 61.7811 163.899 61.7783C163.898 61.773 163.899 61.7787 163.902 61.7947C163.906 61.8268 163.918 61.9002 163.94 62.01C163.983 62.2306 164.063 62.5937 164.202 63.0615C164.481 64.0022 164.983 65.3302 165.86 66.7709C167.561 69.5692 170.777 72.9872 177.079 74.7881C179.636 75.5186 181.114 78.1754 180.381 80.7224C179.648 83.2695 176.981 84.7422 174.424 84.0116C165.54 81.473 160.439 76.3755 157.622 71.7434C156.239 69.4689 155.431 67.3531 154.965 65.7786C154.73 64.9888 154.58 64.3262 154.484 63.8358C154.436 63.5903 154.402 63.3868 154.379 63.2309C154.367 63.153 154.358 63.0868 154.35 63.0331C154.347 63.0063 154.344 62.9826 154.341 62.962C154.34 62.9517 154.339 62.942 154.338 62.9333C154.337 62.929 154.337 62.9249 154.336 62.921C154.336 62.9191 154.336 62.9162 154.336 62.9152C154.336 62.9125 154.346 62.9086 159.12 62.3692L154.335 62.9098C154.035 60.277 155.935 57.9005 158.578 57.602Z" fill="#FA5332"/>
<path d="M128.489 88.0591C151.117 88.0591 169.461 69.7837 169.461 47.24C169.461 24.6962 151.117 6.4209 128.489 6.4209C105.861 6.4209 87.5166 24.6962 87.5166 47.24C87.5166 69.7837 105.861 88.0591 128.489 88.0591Z" fill="#FA5332"/>
<path d="M161.501 30.4713L166.679 45.2253L154.37 29.7152L143.979 32.21L146.483 21.8585L130.915 9.5993L145.728 14.754L140.55 0L152.859 15.5101L163.25 13.0153L160.746 23.3669L176.314 35.6298L161.501 30.4713Z" fill="#00770E"/>
<path d="M107.426 68.4928C109.905 68.4928 111.915 66.4908 111.915 64.0213C111.915 61.5518 109.905 59.5498 107.426 59.5498C104.947 59.5498 102.938 61.5518 102.938 64.0213C102.938 66.4908 104.947 68.4928 107.426 68.4928Z" fill="#FB7055"/>
<path d="M148.291 68.4928C150.769 68.4928 152.779 66.4908 152.779 64.0213C152.779 61.5518 150.769 59.5498 148.291 59.5498C145.812 59.5498 143.802 61.5518 143.802 64.0213C143.802 66.4908 145.812 68.4928 148.291 68.4928Z" fill="#FB7055"/>
<path d="M118.414 67.0872C123.629 67.0872 127.857 62.8754 127.857 57.6799C127.857 52.4843 123.629 48.2725 118.414 48.2725C113.199 48.2725 108.971 52.4843 108.971 57.6799C108.971 62.8754 113.199 67.0872 118.414 67.0872Z" fill="#FAFAFA"/>
<path d="M118.414 64.8922C122.412 64.8922 125.653 61.6632 125.653 57.6802C125.653 53.6972 122.412 50.4683 118.414 50.4683C114.416 50.4683 111.175 53.6972 111.175 57.6802C111.175 61.6632 114.416 64.8922 118.414 64.8922Z" fill="#121212"/>
<path d="M137.303 67.0872C142.518 67.0872 146.745 62.8754 146.745 57.6799C146.745 52.4843 142.518 48.2725 137.303 48.2725C132.088 48.2725 127.86 52.4843 127.86 57.6799C127.86 62.8754 132.088 67.0872 137.303 67.0872Z" fill="#FAFAFA"/>
<path d="M137.303 64.8922C141.301 64.8922 144.542 61.6632 144.542 57.6802C144.542 53.6972 141.301 50.4683 137.303 50.4683C133.305 50.4683 130.064 53.6972 130.064 57.6802C130.064 61.6632 133.305 64.8922 137.303 64.8922Z" fill="#121212"/>
<path d="M112.446 84.1294V97.2905L109.73 100H126.285V84.1294" fill="#FA5332"/>
<path d="M143.27 84.1294V97.2905L145.986 100H129.432V84.1294" fill="#FA5332"/>
<path d="M134.826 129.653C134.826 133.765 134.304 137.334 133.257 140.353C132.21 143.372 130.719 145.937 128.786 148.046C126.852 150.155 124.539 151.861 121.844 153.162C119.15 154.462 116.169 155.478 112.903 156.208C109.636 156.938 106.106 157.43 102.314 157.692C99.5565 157.883 96.7249 158 93.8188 158.055C91.9991 158.086 90.5088 156.618 90.5088 154.806V143.95C90.5088 142.192 91.9167 140.751 93.6816 140.705C100.447 140.525 105.251 139.74 108.098 138.35C109.29 137.768 108.875 135.979 107.545 135.979C103.423 135.979 96.4465 135.979 92.8305 135.979C91.5442 135.979 90.5049 134.941 90.5049 133.66V121.886C90.5049 120.093 91.9638 118.637 93.7679 118.637H131.559C133.359 118.637 134.822 120.089 134.822 121.886V129.649L134.826 129.653ZM158.388 187.996H139.265C137.465 187.996 136.002 186.543 136.002 184.747V178.272C136.002 177.69 135.528 177.217 134.943 177.217H93.7718C91.9717 177.217 90.5088 175.765 90.5088 173.968V162.425C90.5088 160.632 91.9677 159.176 93.7718 159.176H158.388C160.188 159.176 161.651 160.628 161.651 162.425V184.747C161.651 186.539 160.192 187.996 158.388 187.996ZM158.388 157.301H140.049C138.249 157.301 136.787 155.849 136.787 154.052V121.89C136.787 120.097 138.245 118.641 140.049 118.641H158.388C160.188 118.641 161.651 120.093 161.651 121.89V126.919H163.8C165.6 126.919 167.063 128.372 167.063 130.169V146.476C167.063 148.269 165.604 149.725 163.8 149.725H161.651V154.052C161.651 155.845 160.192 157.301 158.388 157.301Z" fill="#FB7055"/>
<path d="M213.107 153.533C213.107 155.771 211.22 157.548 208.973 157.438C208.24 157.403 207.514 157.356 206.793 157.302C204.726 157.146 202.741 156.861 200.831 156.443C198.921 156.025 197.133 155.416 195.458 154.607C194.176 153.99 193.003 153.24 191.937 152.366C191.384 151.909 190.591 151.909 190.038 152.366C188.976 153.24 187.815 153.99 186.556 154.607C184.909 155.416 183.132 156.025 181.222 156.443C179.312 156.861 177.328 157.146 175.261 157.302C174.539 157.356 173.81 157.403 173.08 157.438C170.833 157.548 168.947 155.771 168.947 153.533V144.157C168.947 142.271 170.304 140.666 172.163 140.315C173.265 140.108 174.229 139.783 175.065 139.338C176.43 138.616 177.32 137.378 177.736 135.624C177.834 135.207 177.504 134.808 177.073 134.808H172.873C170.704 134.808 168.947 133.059 168.947 130.899V122.55C168.947 120.391 170.704 118.641 172.873 118.641H209.181C211.35 118.641 213.107 120.391 213.107 122.55V130.899C213.107 133.059 211.35 134.808 209.181 134.808H204.918C204.483 134.808 204.149 135.218 204.259 135.64C204.714 137.382 205.624 138.616 206.985 139.338C207.82 139.783 208.785 140.108 209.887 140.315C211.746 140.666 213.103 142.271 213.103 144.157V153.533H213.107ZM236.163 187.996H218.366C216.197 187.996 214.44 186.247 214.44 184.087V178.499C214.44 177.792 213.864 177.218 213.154 177.218H172.873C170.704 177.218 168.947 175.468 168.947 173.309V163.085C168.947 160.926 170.704 159.176 172.873 159.176H236.163C238.332 159.176 240.089 160.926 240.089 163.085V184.087C240.089 186.247 238.332 187.996 236.163 187.996ZM236.163 157.302H219.15C216.981 157.302 215.224 155.552 215.224 153.393V122.55C215.224 120.391 216.981 118.641 219.15 118.641H236.163C238.332 118.641 240.089 120.391 240.089 122.55V126.92H241.575C243.744 126.92 245.501 128.669 245.501 130.829V145.817C245.501 147.976 243.744 149.726 241.575 149.726H240.089V153.393C240.089 155.552 238.332 157.302 236.163 157.302Z" fill="#FB7055"/>
<path d="M80.5087 165.726C76.9633 166.764 73.2062 167.639 69.2765 168.326C67.2254 168.744 65.1115 169.092 62.9545 169.393V162.695H79.4302C82.4618 162.695 84.9168 160.251 84.9168 157.232V124.109C84.9168 121.09 82.4618 118.646 79.4302 118.646H17.3004C14.2688 118.646 11.8137 121.09 11.8137 124.109V157.232C11.8137 160.251 14.2688 162.695 17.3004 162.695H33.776V169.545C28.4384 168.865 23.3792 167.815 18.7123 166.44C17.873 166.222 17.0455 165.991 16.2297 165.753C13.8727 165.066 11.5 166.768 11.5 169.178V178.816C11.5 180.819 12.8217 182.592 14.7747 183.197C24.5597 186.243 36.0703 188 48.4006 188C60.7308 188 72.1865 186.251 81.9558 183.217C83.9089 182.611 85.2345 180.838 85.2345 178.835V169.154C85.2345 166.749 82.8657 165.038 80.5126 165.73L80.5087 165.726ZM35.8154 138.042H60.9152C61.7819 138.042 62.4839 138.741 62.4839 139.604C62.4839 140.467 61.7819 141.166 60.9152 141.166H35.8154C34.9487 141.166 34.2467 140.467 34.2467 139.604C34.2467 138.741 34.9487 138.042 35.8154 138.042Z" fill="#FA5332"/>
<path d="M56.934 118.438L67.8106 123.664L52.6415 121.896L48.3489 128.883L44.0564 121.896L28.8872 123.664L39.7638 118.438L28.8872 113.219L44.0564 114.987L48.3489 108L52.6415 114.987L67.8106 113.219L56.934 118.438Z" fill="#00770E"/>
<path d="M36.7129 216.59H20.5801V214.812H27.5332V210.965H22.3574V202.449H34.8574V210.965H29.6816V214.812H36.7129V216.59ZM32.709 209.266V204.188H24.4863V209.266H32.709ZM51.791 205.34H54.252V207.156H51.791V211.375H49.623V201.082H51.791V205.34ZM37.6895 209.617C39.0436 209.266 40.2122 208.807 41.1953 208.24C42.1784 207.667 42.9499 207.013 43.5098 206.277C44.0697 205.535 44.4115 204.734 44.5352 203.875H38.5684V202.117H46.8691C46.8691 203.647 46.5436 205.021 45.8926 206.238C45.248 207.456 44.3073 208.488 43.0703 209.334C41.8398 210.18 40.3457 210.828 38.5879 211.277L37.6895 209.617ZM40.0332 212.117H51.791V218.738H49.623V213.855H40.0332V212.117ZM61.4785 204.148C61.4785 204.891 61.6348 205.604 61.9473 206.287C62.2663 206.971 62.7383 207.583 63.3633 208.123C63.9948 208.663 64.7598 209.083 65.6582 209.383L64.5645 211.062C63.5944 210.737 62.7578 210.262 62.0547 209.637C61.3581 209.012 60.8112 208.276 60.4141 207.43C60.0169 208.354 59.4505 209.158 58.7148 209.842C57.9857 210.519 57.1165 211.03 56.1074 211.375L54.9551 209.695C55.873 209.389 56.6576 208.95 57.3086 208.377C57.9661 207.804 58.4609 207.153 58.793 206.424C59.125 205.688 59.291 204.93 59.291 204.148V203.934H55.5605V202.195H65.1504V203.934H61.4785V204.148ZM57.3184 212.547H69.0762V218.738H66.9082V214.285H57.3184V212.547ZM66.9082 201.082H69.0762V205.496H71.5371V207.312H69.0762V211.727H66.9082V201.082ZM74.2324 221.082H72.377L73.3926 215.613H75.873L74.2324 221.082ZM84.623 208.055H82.7285V202.859H84.623V208.055ZM88.1777 208.055H86.2832V202.859H88.1777V208.055ZM103.744 205.555H106.205V207.371H103.744V211.727H101.576V201.082H103.744V205.555ZM89.8379 202.781H93.998V200.965H96.166V202.781H100.307V204.52H89.8379V202.781ZM90.7363 208.328C90.7363 207.71 90.9186 207.16 91.2832 206.678C91.6478 206.196 92.1556 205.825 92.8066 205.564C93.4642 205.298 94.2194 205.164 95.0723 205.164C95.9186 205.164 96.6673 205.298 97.3184 205.564C97.9694 205.825 98.4772 206.196 98.8418 206.678C99.2064 207.16 99.3887 207.71 99.3887 208.328C99.3887 208.953 99.2064 209.507 98.8418 209.988C98.4772 210.464 97.9661 210.835 97.3086 211.102C96.6576 211.362 95.9121 211.492 95.0723 211.492C94.2194 211.492 93.4642 211.362 92.8066 211.102C92.1556 210.835 91.6478 210.464 91.2832 209.988C90.9186 209.507 90.7363 208.953 90.7363 208.328ZM92.3379 212.566H103.744V218.523H92.3379V212.566ZM92.8457 208.328C92.8392 208.816 93.0378 209.197 93.4414 209.471C93.8451 209.738 94.3887 209.871 95.0723 209.871C95.7559 209.871 96.2995 209.738 96.7031 209.471C97.1133 209.197 97.3184 208.816 97.3184 208.328C97.3184 207.853 97.1133 207.482 96.7031 207.215C96.293 206.941 95.7493 206.805 95.0723 206.805C94.3952 206.805 93.8516 206.941 93.4414 207.215C93.0378 207.482 92.8392 207.853 92.8457 208.328ZM101.596 216.766V214.285H94.4863V216.766H101.596ZM111.459 203.152C111.452 204.708 111.371 206.141 111.215 207.449C111.065 208.751 110.782 210.031 110.365 211.287C109.955 212.537 109.376 213.712 108.627 214.812L106.928 213.895C107.846 212.599 108.497 211.235 108.881 209.803C109.271 208.37 109.503 206.74 109.574 204.91H107.436V203.152H111.459ZM110.912 214.852C111.583 213.888 112.104 212.872 112.475 211.805C112.852 210.73 113.113 209.643 113.256 208.543C113.406 207.443 113.497 206.232 113.529 204.91H111.986V203.152H115.404C115.398 204.07 115.382 204.897 115.355 205.633C115.329 206.368 115.277 207.091 115.199 207.801H116.986V201.512H119.037V217.898H116.986V209.559H114.965C114.542 211.974 113.744 214.051 112.572 215.789L110.912 214.852ZM120.365 201.082H122.455V218.738H120.365V201.082ZM139.545 203.875H135.834C135.847 204.572 136.023 205.242 136.361 205.887C136.7 206.531 137.191 207.101 137.836 207.596C138.487 208.09 139.265 208.465 140.17 208.719L139.076 210.418C138.074 210.118 137.204 209.666 136.469 209.061C135.74 208.455 135.17 207.736 134.76 206.902C134.35 207.801 133.77 208.579 133.021 209.236C132.273 209.894 131.381 210.385 130.346 210.711L129.252 209.012C130.17 208.745 130.954 208.351 131.605 207.83C132.263 207.303 132.761 206.697 133.1 206.014C133.445 205.33 133.627 204.617 133.646 203.875H129.838V202.137H139.545V203.875ZM132.162 211.434H134.311V213.25H141.674V211.434H143.842V218.523H132.162V211.434ZM141.674 216.766V214.93H134.311V216.766H141.674ZM141.654 201.082H143.842V210.652H141.654V201.082ZM162.514 210.945H155.521V212.43C157.117 212.534 158.354 212.856 159.232 213.396C160.111 213.93 160.554 214.65 160.561 215.555C160.561 216.225 160.313 216.795 159.818 217.264C159.33 217.739 158.627 218.1 157.709 218.348C156.798 218.595 155.71 218.719 154.447 218.719C153.165 218.719 152.061 218.595 151.137 218.348C150.219 218.107 149.516 217.749 149.027 217.273C148.539 216.798 148.295 216.225 148.295 215.555C148.295 214.65 148.738 213.927 149.623 213.387C150.508 212.846 151.758 212.524 153.373 212.42V210.945H146.42V209.188H162.514V210.945ZM147.201 206.668C148.249 206.57 149.184 206.372 150.004 206.072C150.831 205.773 151.492 205.408 151.986 204.979C152.488 204.549 152.8 204.09 152.924 203.602H147.885V201.863H161.068V203.602H155.98C156.098 204.09 156.404 204.552 156.898 204.988C157.4 205.418 158.064 205.783 158.891 206.082C159.724 206.375 160.678 206.57 161.752 206.668L160.99 208.387C159.395 208.224 158.025 207.843 156.879 207.244C155.74 206.639 154.929 205.887 154.447 204.988C153.965 205.893 153.158 206.645 152.025 207.244C150.893 207.843 149.532 208.224 147.943 208.387L147.201 206.668ZM150.502 215.555C150.495 216.036 150.824 216.408 151.488 216.668C152.152 216.928 153.116 217.059 154.379 217.059C155.674 217.059 156.664 216.932 157.348 216.678C158.038 216.424 158.386 216.049 158.393 215.555C158.386 215.066 158.044 214.695 157.367 214.441C156.69 214.188 155.717 214.057 154.447 214.051C153.158 214.057 152.175 214.188 151.498 214.441C150.827 214.695 150.495 215.066 150.502 215.555ZM177.533 208.113H180.248V209.91H177.533V218.738H175.385V201.082H177.533V208.113ZM163.607 203.797H167.787V201.336H169.955V203.797H174.018V205.535H163.607V203.797ZM164.428 210.848C164.421 210.047 164.61 209.331 164.994 208.699C165.378 208.061 165.909 207.566 166.586 207.215C167.263 206.863 168.028 206.688 168.881 206.688C169.721 206.688 170.476 206.863 171.146 207.215C171.817 207.566 172.344 208.061 172.729 208.699C173.119 209.331 173.314 210.047 173.314 210.848C173.314 211.648 173.119 212.365 172.729 212.996C172.344 213.621 171.817 214.109 171.146 214.461C170.476 214.812 169.721 214.988 168.881 214.988C168.028 214.988 167.263 214.812 166.586 214.461C165.909 214.109 165.378 213.621 164.994 212.996C164.61 212.365 164.421 211.648 164.428 210.848ZM166.498 210.848C166.498 211.316 166.599 211.73 166.801 212.088C167.003 212.439 167.283 212.713 167.641 212.908C168.005 213.097 168.419 213.191 168.881 213.191C169.33 213.191 169.734 213.097 170.092 212.908C170.45 212.719 170.73 212.446 170.932 212.088C171.133 211.73 171.238 211.316 171.244 210.848C171.238 210.379 171.13 209.965 170.922 209.607C170.72 209.243 170.44 208.963 170.082 208.768C169.73 208.566 169.33 208.465 168.881 208.465C168.419 208.465 168.005 208.566 167.641 208.768C167.283 208.963 167.003 209.243 166.801 209.607C166.599 209.965 166.498 210.379 166.498 210.848ZM195.287 207.801H183.061V201.727H185.209V206.082H195.287V207.801ZM180.971 209.852H197.104V211.57H180.971V209.852ZM182.904 213.133H185.072V216.57H195.404V218.328H182.904V213.133ZM209.701 205.32C209.695 206.408 209.874 207.465 210.238 208.494C210.603 209.523 211.13 210.438 211.82 211.238C212.51 212.039 213.321 212.638 214.252 213.035L212.963 214.773C211.967 214.311 211.098 213.641 210.355 212.762C209.62 211.876 209.044 210.844 208.627 209.666C208.21 210.936 207.621 212.049 206.859 213.006C206.104 213.963 205.202 214.689 204.154 215.184L202.826 213.367C203.783 212.957 204.613 212.339 205.316 211.512C206.02 210.678 206.557 209.725 206.928 208.65C207.299 207.576 207.488 206.466 207.494 205.32V202.508H209.701V205.32ZM215.521 201.082H217.709V218.758H215.521V201.082ZM234.232 206.16H236.693V207.977H234.232V213.816H232.025V201.082H234.232V206.16ZM220.248 210.262C221.583 209.878 222.738 209.383 223.715 208.777C224.691 208.172 225.46 207.485 226.02 206.717C226.586 205.942 226.931 205.105 227.055 204.207H220.99V202.43H229.428C229.428 203.979 229.102 205.382 228.451 206.639C227.8 207.889 226.856 208.966 225.619 209.871C224.382 210.77 222.891 211.473 221.146 211.98L220.248 210.262ZM222.885 212.508H225.092V216.629H234.896V218.387H222.885V212.508Z" fill="#FA5332"/>
</svg>
