<svg width="258" height="224" viewBox="0 0 258 224" fill="none" xmlns="http://www.w3.org/2000/svg">
<path d="M93.0307 52.6452C95.5759 53.4056 97.0223 56.0768 96.2615 58.614C95.5002 61.1528 92.8171 62.5961 90.2687 61.8377L91.6472 57.2406C90.2731 61.823 90.2661 61.8367 90.2635 61.8359C90.2625 61.8356 90.2597 61.835 90.2578 61.8344C90.254 61.8333 90.2501 61.8319 90.2459 61.8306C90.2375 61.8281 90.2281 61.8253 90.2182 61.8222C90.1983 61.8161 90.1754 61.809 90.1496 61.8008C90.0978 61.7844 90.034 61.7636 89.9591 61.7383C89.8093 61.6875 89.6142 61.6182 89.3801 61.5281C88.9124 61.348 88.2844 61.0829 87.5454 60.7139C86.0722 59.9785 84.1242 58.8133 82.1212 57.0554C78.0418 53.4754 73.9055 47.5743 72.9652 38.414C72.6946 35.778 74.6202 33.4225 77.266 33.1529C79.9119 32.8833 82.276 34.8018 82.5466 37.4377C83.2137 43.9361 86.0233 47.6924 88.4876 49.8551C89.7564 50.9685 90.9798 51.696 91.86 52.1354C92.2977 52.3539 92.6422 52.4969 92.8526 52.5779C92.9573 52.6182 93.0277 52.6428 93.0586 52.6533C93.0664 52.6559 93.0717 52.6575 93.0743 52.6583C93.0717 52.6575 93.0663 52.656 93.0582 52.6536C93.0542 52.6523 93.0496 52.6507 93.0442 52.649C93.0415 52.6482 93.0385 52.6474 93.0354 52.6465C93.0339 52.646 93.0314 52.6454 93.0307 52.6452Z" fill="#FA5332"/>
<path d="M159.078 57.602C161.719 57.3036 164.103 59.1934 164.405 61.8235C164.405 61.8227 164.405 61.8202 164.405 61.8186C164.404 61.8155 164.404 61.8123 164.403 61.8095C164.403 61.804 164.402 61.7992 164.402 61.795C164.401 61.7867 164.4 61.7811 164.4 61.7783C164.399 61.773 164.4 61.7787 164.402 61.7947C164.407 61.8268 164.419 61.9002 164.44 62.01C164.483 62.2306 164.564 62.5937 164.702 63.0615C164.981 64.0022 165.484 65.3302 166.36 66.7709C168.062 69.5692 171.277 72.9872 177.58 74.7881C180.137 75.5186 181.615 78.1754 180.881 80.7224C180.148 83.2695 177.481 84.7422 174.925 84.0116C166.04 81.473 160.94 76.3755 158.123 71.7434C156.739 69.4689 155.932 67.3531 155.465 65.7786C155.231 64.9888 155.08 64.3262 154.985 63.8358C154.937 63.5903 154.903 63.3868 154.879 63.2309C154.867 63.153 154.858 63.0868 154.851 63.0331C154.847 63.0063 154.844 62.9826 154.842 62.962C154.84 62.9517 154.839 62.942 154.838 62.9333C154.838 62.929 154.837 62.9249 154.837 62.921C154.837 62.9191 154.836 62.9162 154.836 62.9152C154.836 62.9125 154.846 62.9086 159.621 62.3692L154.836 62.9098C154.536 60.277 156.435 57.9005 159.078 57.602Z" fill="#FA5332"/>
<path d="M128.989 88.0591C151.617 88.0591 169.961 69.7837 169.961 47.24C169.961 24.6962 151.617 6.4209 128.989 6.4209C106.361 6.4209 88.0168 24.6962 88.0168 47.24C88.0168 69.7837 106.361 88.0591 128.989 88.0591Z" fill="#FA5332"/>
<path d="M162.001 30.4713L167.179 45.2253L154.87 29.7152L144.479 32.21L146.984 21.8585L131.415 9.5993L146.228 14.754L141.051 0L153.36 15.5101L163.75 13.0153L161.246 23.3669L176.814 35.6298L162.001 30.4713Z" fill="#00770E"/>
<path d="M107.927 68.4928C110.405 68.4928 112.415 66.4908 112.415 64.0213C112.415 61.5518 110.405 59.5498 107.927 59.5498C105.448 59.5498 103.438 61.5518 103.438 64.0213C103.438 66.4908 105.448 68.4928 107.927 68.4928Z" fill="#FB7055"/>
<path d="M148.791 68.4928C151.269 68.4928 153.279 66.4908 153.279 64.0213C153.279 61.5518 151.269 59.5498 148.791 59.5498C146.312 59.5498 144.302 61.5518 144.302 64.0213C144.302 66.4908 146.312 68.4928 148.791 68.4928Z" fill="#FB7055"/>
<path d="M118.914 67.0872C124.129 67.0872 128.357 62.8754 128.357 57.6799C128.357 52.4843 124.129 48.2725 118.914 48.2725C113.699 48.2725 109.471 52.4843 109.471 57.6799C109.471 62.8754 113.699 67.0872 118.914 67.0872Z" fill="#FAFAFA"/>
<path d="M118.914 64.8922C122.912 64.8922 126.153 61.6632 126.153 57.6802C126.153 53.6972 122.912 50.4683 118.914 50.4683C114.916 50.4683 111.675 53.6972 111.675 57.6802C111.675 61.6632 114.916 64.8922 118.914 64.8922Z" fill="#121212"/>
<path d="M137.803 67.0872C143.018 67.0872 147.245 62.8754 147.245 57.6799C147.245 52.4843 143.018 48.2725 137.803 48.2725C132.588 48.2725 128.36 52.4843 128.36 57.6799C128.36 62.8754 132.588 67.0872 137.803 67.0872Z" fill="#FAFAFA"/>
<path d="M137.803 64.8922C141.801 64.8922 145.042 61.6632 145.042 57.6802C145.042 53.6972 141.801 50.4683 137.803 50.4683C133.805 50.4683 130.564 53.6972 130.564 57.6802C130.564 61.6632 133.805 64.8922 137.803 64.8922Z" fill="#121212"/>
<path d="M112.946 84.1294V97.2905L110.23 100H126.785V84.1294" fill="#FA5332"/>
<path d="M143.771 84.1294V97.2905L146.487 100H129.932V84.1294" fill="#FA5332"/>
<path d="M135.326 129.653C135.326 133.765 134.804 137.334 133.757 140.353C132.71 143.372 131.219 145.937 129.286 148.046C127.352 150.155 125.039 151.861 122.344 153.162C119.65 154.462 116.669 155.478 113.403 156.208C110.136 156.938 106.606 157.43 102.814 157.692C100.056 157.883 97.2249 158 94.3188 158.055C92.4991 158.086 91.0088 156.618 91.0088 154.806V143.95C91.0088 142.192 92.4167 140.751 94.1816 140.705C100.947 140.525 105.751 139.74 108.598 138.35C109.79 137.768 109.375 135.979 108.045 135.979C103.923 135.979 96.9465 135.979 93.3305 135.979C92.0442 135.979 91.0049 134.941 91.0049 133.66V121.886C91.0049 120.093 92.4638 118.637 94.2679 118.637H132.059C133.859 118.637 135.322 120.089 135.322 121.886V129.649L135.326 129.653ZM158.888 187.996H139.765C137.965 187.996 136.502 186.543 136.502 184.747V178.272C136.502 177.69 136.028 177.217 135.443 177.217H94.2718C92.4717 177.217 91.0088 175.765 91.0088 173.968V162.425C91.0088 160.632 92.4677 159.176 94.2718 159.176H158.888C160.688 159.176 162.151 160.628 162.151 162.425V184.747C162.151 186.539 160.692 187.996 158.888 187.996ZM158.888 157.301H140.549C138.749 157.301 137.287 155.849 137.287 154.052V121.89C137.287 120.097 138.745 118.641 140.549 118.641H158.888C160.688 118.641 162.151 120.093 162.151 121.89V126.919H164.3C166.1 126.919 167.563 128.372 167.563 130.169V146.476C167.563 148.269 166.104 149.725 164.3 149.725H162.151V154.052C162.151 155.845 160.692 157.301 158.888 157.301Z" fill="#FB7055"/>
<path d="M213.607 153.533C213.607 155.771 211.721 157.548 209.474 157.438C208.74 157.403 208.015 157.356 207.293 157.302C205.226 157.146 203.242 156.861 201.332 156.443C199.422 156.025 197.634 155.416 195.959 154.607C194.676 153.99 193.504 153.24 192.437 152.366C191.884 151.909 191.092 151.909 190.539 152.366C189.476 153.24 188.315 153.99 187.056 154.607C185.409 155.416 183.633 156.025 181.723 156.443C179.813 156.861 177.828 157.146 175.761 157.302C175.04 157.356 174.31 157.403 173.581 157.438C171.334 157.548 169.447 155.771 169.447 153.533V144.157C169.447 142.271 170.804 140.666 172.663 140.315C173.765 140.108 174.73 139.783 175.565 139.338C176.93 138.616 177.82 137.378 178.236 135.624C178.334 135.207 178.005 134.808 177.573 134.808H173.373C171.204 134.808 169.447 133.059 169.447 130.899V122.55C169.447 120.391 171.204 118.641 173.373 118.641H209.681C211.85 118.641 213.607 120.391 213.607 122.55V130.899C213.607 133.059 211.85 134.808 209.681 134.808H205.418C204.983 134.808 204.65 135.218 204.759 135.64C205.214 137.382 206.124 138.616 207.485 139.338C208.321 139.783 209.285 140.108 210.387 140.315C212.246 140.666 213.603 142.271 213.603 144.157V153.533H213.607ZM236.664 187.996H218.866C216.698 187.996 214.941 186.247 214.941 184.087V178.499C214.941 177.792 214.364 177.218 213.654 177.218H173.373C171.204 177.218 169.447 175.468 169.447 173.309V163.085C169.447 160.926 171.204 159.176 173.373 159.176H236.664C238.832 159.176 240.589 160.926 240.589 163.085V184.087C240.589 186.247 238.832 187.996 236.664 187.996ZM236.664 157.302H219.651C217.482 157.302 215.725 155.552 215.725 153.393V122.55C215.725 120.391 217.482 118.641 219.651 118.641H236.664C238.832 118.641 240.589 120.391 240.589 122.55V126.92H242.076C244.245 126.92 246.002 128.669 246.002 130.829V145.817C246.002 147.976 244.245 149.726 242.076 149.726H240.589V153.393C240.589 155.552 238.832 157.302 236.664 157.302Z" fill="#FB7055"/>
<path d="M81.0087 165.726C77.4633 166.764 73.7062 167.639 69.7765 168.326C67.7254 168.744 65.6115 169.092 63.4545 169.393V162.695H79.9302C82.9618 162.695 85.4168 160.251 85.4168 157.232V124.109C85.4168 121.09 82.9618 118.646 79.9302 118.646H17.8004C14.7688 118.646 12.3137 121.09 12.3137 124.109V157.232C12.3137 160.251 14.7688 162.695 17.8004 162.695H34.276V169.545C28.9384 168.865 23.8792 167.815 19.2123 166.44C18.373 166.222 17.5455 165.991 16.7297 165.753C14.3727 165.066 12 166.768 12 169.178V178.816C12 180.819 13.3217 182.592 15.2747 183.197C25.0597 186.243 36.5703 188 48.9006 188C61.2308 188 72.6865 186.251 82.4558 183.217C84.4089 182.611 85.7345 180.838 85.7345 178.835V169.154C85.7345 166.749 83.3657 165.038 81.0126 165.73L81.0087 165.726ZM36.3154 138.042H61.4152C62.2819 138.042 62.9839 138.741 62.9839 139.604C62.9839 140.467 62.2819 141.166 61.4152 141.166H36.3154C35.4487 141.166 34.7467 140.467 34.7467 139.604C34.7467 138.741 35.4487 138.042 36.3154 138.042Z" fill="#FA5332"/>
<path d="M57.4338 118.438L68.3104 123.664L53.1412 121.896L48.8486 128.883L44.5561 121.896L29.387 123.664L40.2636 118.438L29.387 113.219L44.5561 114.987L48.8486 108L53.1412 114.987L68.3104 113.219L57.4338 118.438Z" fill="#00770E"/>
<path d="M40.9824 216.59H24.8496V214.812H31.8027V210.965H26.627V202.449H39.127V210.965H33.9512V214.812H40.9824V216.59ZM28.7559 209.266H36.9785V204.188H28.7559V209.266ZM56.0605 205.34H58.5215V207.156H56.0605V211.375H53.8926V201.082H56.0605V205.34ZM51.1387 202.117C51.1387 203.647 50.8164 205.021 50.1719 206.238C49.5273 207.449 48.5866 208.481 47.3496 209.334C46.1191 210.18 44.6217 210.828 42.8574 211.277L41.959 209.617C43.3197 209.266 44.4883 208.807 45.4648 208.24C46.4479 207.667 47.2194 207.013 47.7793 206.277C48.3392 205.535 48.681 204.734 48.8047 203.875H42.8379V202.117H51.1387ZM56.0605 218.738H53.8926V213.855H44.3027V212.117H56.0605V218.738ZM65.748 204.148C65.748 204.884 65.9043 205.597 66.2168 206.287C66.5358 206.971 67.0078 207.583 67.6328 208.123C68.2643 208.663 69.0293 209.083 69.9277 209.383L68.834 211.062C67.8704 210.743 67.0371 210.271 66.334 209.646C65.6309 209.015 65.0807 208.276 64.6836 207.43C64.2865 208.354 63.7201 209.158 62.9844 209.842C62.2552 210.519 61.3861 211.03 60.377 211.375L59.2246 209.695C60.1491 209.389 60.9368 208.953 61.5879 208.387C62.2389 207.814 62.7305 207.163 63.0625 206.434C63.3945 205.698 63.5605 204.936 63.5605 204.148V203.934H59.8301V202.195H69.4199V203.934H65.748V204.148ZM73.3457 205.496H75.8066V207.312H73.3457V211.727H71.1777V201.082H73.3457V205.496ZM73.3457 218.738H71.1777V214.285H61.5879V212.547H73.3457V218.738ZM78.502 221.082H76.6465L77.6621 215.613H80.1426L78.502 221.082ZM100.475 205.555H102.936V207.371H100.475V211.727H98.3066V201.082H100.475V205.555ZM100.475 218.523H89.0684V212.566H100.475V218.523ZM91.2168 216.766H98.3262V214.285H91.2168V216.766ZM97.0371 204.52H86.5684V202.781H90.7285V200.965H92.8965V202.781H97.0371V204.52ZM91.8027 205.164C92.6426 205.164 93.388 205.298 94.0391 205.564C94.6901 205.831 95.1979 206.206 95.5625 206.688C95.9271 207.163 96.1126 207.71 96.1191 208.328C96.1126 208.953 95.9271 209.507 95.5625 209.988C95.2044 210.464 94.6999 210.835 94.0488 211.102C93.3978 211.362 92.6491 211.492 91.8027 211.492C90.9499 211.492 90.1947 211.362 89.5371 211.102C88.8861 210.835 88.3783 210.464 88.0137 209.988C87.6491 209.507 87.4668 208.953 87.4668 208.328C87.4668 207.71 87.6491 207.163 88.0137 206.688C88.3783 206.206 88.8893 205.831 89.5469 205.564C90.2044 205.298 90.9564 205.164 91.8027 205.164ZM91.8027 206.805C91.1257 206.805 90.5853 206.941 90.1816 207.215C89.778 207.482 89.5762 207.853 89.5762 208.328C89.5762 208.81 89.7747 209.188 90.1719 209.461C90.5755 209.734 91.1191 209.871 91.8027 209.871C92.4863 209.871 93.0299 209.734 93.4336 209.461C93.8438 209.188 94.0488 208.81 94.0488 208.328C94.0488 207.853 93.8438 207.482 93.4336 207.215C93.0299 206.941 92.4863 206.805 91.8027 206.805ZM108.189 203.152C108.183 204.702 108.102 206.131 107.945 207.439C107.789 208.748 107.503 210.031 107.086 211.287C106.676 212.537 106.1 213.712 105.357 214.812L103.658 213.895C104.576 212.599 105.227 211.238 105.611 209.812C106.002 208.38 106.233 206.746 106.305 204.91H104.166V203.152H108.189ZM112.135 203.152C112.128 204.07 112.112 204.897 112.086 205.633C112.06 206.368 112.008 207.091 111.93 207.801H113.717V201.512H115.768V217.898H113.717V209.559H111.695C111.272 211.987 110.475 214.064 109.303 215.789L107.643 214.852C108.313 213.895 108.834 212.882 109.205 211.814C109.583 210.74 109.843 209.653 109.986 208.553C110.136 207.452 110.227 206.238 110.26 204.91H108.717V203.152H112.135ZM119.186 218.738H117.096V201.082H119.186V218.738ZM136.275 203.875H132.564C132.577 204.572 132.753 205.242 133.092 205.887C133.43 206.525 133.922 207.094 134.566 207.596C135.217 208.09 135.995 208.465 136.9 208.719L135.807 210.418C134.804 210.118 133.935 209.666 133.199 209.061C132.47 208.455 131.9 207.736 131.49 206.902C131.087 207.801 130.507 208.579 129.752 209.236C129.003 209.894 128.111 210.385 127.076 210.711L125.982 209.012C126.894 208.745 127.678 208.348 128.336 207.82C128.993 207.293 129.492 206.691 129.83 206.014C130.175 205.33 130.357 204.617 130.377 203.875H126.568V202.137H136.275V203.875ZM140.572 210.652H138.385V201.082H140.572V210.652ZM131.041 213.25H138.404V211.434H140.572V218.523H128.893V211.434H131.041V213.25ZM138.404 216.766V214.93H131.041V216.766H138.404ZM159.244 210.945H152.252V212.42C153.847 212.524 155.084 212.846 155.963 213.387C156.842 213.921 157.285 214.643 157.291 215.555C157.285 216.225 157.037 216.798 156.549 217.273C156.061 217.749 155.361 218.107 154.449 218.348C153.538 218.595 152.447 218.719 151.178 218.719C149.895 218.719 148.792 218.595 147.867 218.348C146.949 218.107 146.246 217.749 145.758 217.273C145.27 216.798 145.025 216.225 145.025 215.555C145.025 214.643 145.468 213.917 146.354 213.377C147.239 212.837 148.489 212.518 150.104 212.42V210.945H143.15V209.188H159.244V210.945ZM151.178 214.051C149.882 214.064 148.899 214.197 148.229 214.451C147.558 214.699 147.226 215.066 147.232 215.555C147.226 216.043 147.558 216.417 148.229 216.678C148.906 216.932 149.889 217.059 151.178 217.059C152.441 217.059 153.411 216.932 154.088 216.678C154.771 216.417 155.117 216.043 155.123 215.555C155.117 215.073 154.775 214.705 154.098 214.451C153.421 214.197 152.447 214.064 151.178 214.051ZM157.799 203.602H152.711C152.828 204.09 153.134 204.549 153.629 204.979C154.13 205.408 154.794 205.773 155.621 206.072C156.454 206.372 157.408 206.57 158.482 206.668L157.721 208.387C156.132 208.224 154.765 207.843 153.619 207.244C152.473 206.645 151.66 205.896 151.178 204.998C150.696 205.896 149.885 206.648 148.746 207.254C147.613 207.853 146.256 208.23 144.674 208.387L143.932 206.668C144.98 206.57 145.914 206.372 146.734 206.072C147.555 205.773 148.215 205.408 148.717 204.979C149.218 204.542 149.531 204.083 149.654 203.602H144.615V201.863H157.799V203.602ZM174.264 208.113H176.979V209.91H174.264V218.738H172.115V201.082H174.264V208.113ZM170.748 205.535H160.338V203.797H164.518V201.336H166.686V203.797H170.748V205.535ZM165.611 206.688C166.451 206.688 167.206 206.867 167.877 207.225C168.554 207.576 169.085 208.068 169.469 208.699C169.853 209.331 170.045 210.047 170.045 210.848C170.045 211.648 169.853 212.365 169.469 212.996C169.085 213.621 168.554 214.109 167.877 214.461C167.206 214.812 166.451 214.988 165.611 214.988C164.758 214.988 163.993 214.812 163.316 214.461C162.639 214.109 162.109 213.621 161.725 212.996C161.34 212.365 161.152 211.648 161.158 210.848C161.152 210.047 161.34 209.331 161.725 208.699C162.109 208.068 162.639 207.576 163.316 207.225C163.993 206.867 164.758 206.688 165.611 206.688ZM165.611 208.465C165.149 208.465 164.736 208.562 164.371 208.758C164.013 208.953 163.733 209.233 163.531 209.598C163.329 209.956 163.229 210.372 163.229 210.848C163.229 211.323 163.329 211.74 163.531 212.098C163.733 212.449 164.013 212.723 164.371 212.918C164.736 213.107 165.149 213.198 165.611 213.191C166.061 213.198 166.461 213.107 166.812 212.918C167.171 212.723 167.451 212.449 167.652 212.098C167.861 211.74 167.968 211.323 167.975 210.848C167.968 210.372 167.861 209.956 167.652 209.598C167.451 209.24 167.171 208.963 166.812 208.768C166.461 208.566 166.061 208.465 165.611 208.465ZM192.018 207.801H179.791V201.727H181.939V206.082H192.018V207.801ZM193.834 211.57H177.701V209.852H193.834V211.57ZM192.135 218.328H179.635V213.133H181.803V216.57H192.135V218.328ZM206.432 205.32C206.425 206.408 206.604 207.465 206.969 208.494C207.333 209.523 207.861 210.438 208.551 211.238C209.241 212.039 210.051 212.638 210.982 213.035L209.693 214.773C208.697 214.311 207.828 213.637 207.086 212.752C206.35 211.867 205.774 210.835 205.357 209.656C204.941 210.932 204.352 212.052 203.59 213.016C202.835 213.973 201.933 214.695 200.885 215.184L199.557 213.367C200.514 212.957 201.344 212.339 202.047 211.512C202.757 210.678 203.297 209.725 203.668 208.65C204.039 207.57 204.225 206.46 204.225 205.32V202.508H206.432V205.32ZM214.439 218.758H212.252V201.082H214.439V218.758ZM230.963 206.16H233.424V207.977H230.963V213.816H228.756V201.082H230.963V206.16ZM226.158 202.43C226.158 203.979 225.833 205.382 225.182 206.639C224.531 207.889 223.587 208.966 222.35 209.871C221.119 210.77 219.628 211.473 217.877 211.98L216.979 210.262C218.313 209.878 219.465 209.386 220.436 208.787C221.412 208.182 222.184 207.492 222.75 206.717C223.316 205.942 223.661 205.105 223.785 204.207H217.721V202.43H226.158ZM231.627 218.387H219.615V212.508H221.822V216.629H231.627V218.387Z" fill="#FA5332"/>
</svg>
