<svg width="24" height="24" viewBox="0 0 24 24" fill="none" xmlns="http://www.w3.org/2000/svg">
<path d="M19 4C20.6569 4 22 5.34315 22 7V17C22 18.6051 20.7394 19.9158 19.1543 19.9961L19 20H5L4.8457 19.9961C3.26055 19.9158 2 18.6051 2 17V7C2 5.34315 3.34315 4 5 4H19ZM13.5439 15.0742L13.3623 15.1738C12.5068 15.6101 11.4932 15.6101 10.6377 15.1738L10.4561 15.0742L4 11.1992V17C4 17.5523 4.44772 18 5 18H19C19.5523 18 20 17.5523 20 17V11.1992L13.5439 15.0742ZM5 6C4.44772 6 4 6.44772 4 7V8.86719L11.4854 13.3594C11.802 13.5493 12.198 13.5493 12.5146 13.3594L20 8.86719V7C20 6.44771 19.5523 6 19 6H5Z" fill="#585D63"/>
</svg>
