<svg width="24" height="24" viewBox="0 0 24 24" fill="none" xmlns="http://www.w3.org/2000/svg">
<path d="M12 2C13.1089 2 14.0745 2.60333 14.5938 3.49805C17.1753 4.5288 19 7.05061 19 10V14.2324C19 14.7078 19.3495 15.0997 19.7598 15.3398C20.5014 15.7736 21 16.5789 21 17.5C21 18.8807 19.8807 20 18.5 20H14.8262C14.4141 21.1647 13.3059 22 12 22C10.6941 22 9.58594 21.1647 9.17383 20H5.5C4.11929 20 3 18.8807 3 17.5C3 16.6365 3.43775 15.875 4.10352 15.4258L4.24023 15.3398C4.62498 15.1147 4.9563 14.7561 4.99609 14.3203L5 14.2324V10C5 7.05093 6.82415 4.52901 9.40527 3.49805C9.92444 2.60309 10.8909 2 12 2ZM12 4C11.6359 4 11.3134 4.19565 11.1357 4.50195L10.7891 5.09961L10.1475 5.35547C8.29962 6.09354 7 7.8973 7 10V14.2324C6.99998 15.739 5.93378 16.6659 5.24902 17.0664C5.09564 17.1562 5 17.3182 5 17.5C5 17.7761 5.22386 18 5.5 18H18.5C18.7761 18 19 17.7761 19 17.5C19 17.3182 18.9044 17.1562 18.751 17.0664C18.0662 16.6659 17 15.739 17 14.2324V10C17 7.89738 15.7007 6.09354 13.8525 5.35547L13.2109 5.09961L12.8643 4.50195C12.686 4.19477 12.363 4 12 4Z" fill="#121212"/>
</svg>
