<svg width="24" height="24" viewBox="0 0 24 24" fill="none" xmlns="http://www.w3.org/2000/svg">
<path d="M12 4C16.4183 4 20 7.58172 20 12C20 16.4183 16.4183 20 12 20C7.58172 20 4 16.4183 4 12C4 7.58172 7.58172 4 12 4ZM12 6C8.68629 6 6 8.68629 6 12C6 15.3137 8.68629 18 12 18C15.3137 18 18 15.3137 18 12C18 8.68629 15.3137 6 12 6ZM10 9C10.5523 9 11 9.44772 11 10V14C11 14.5523 10.5523 15 10 15C9.44772 15 9 14.5523 9 14V10C9 9.44772 9.44772 9 10 9ZM14 9C14.5523 9 15 9.44772 15 10V14C15 14.5523 14.5523 15 14 15C13.4477 15 13 14.5523 13 14V10C13 9.44772 13.4477 9 14 9Z" fill="#121212"/>
</svg>
