<svg width="60" height="60" viewBox="0 0 60 60" fill="none" xmlns="http://www.w3.org/2000/svg">
<path d="M35.3076 38C37.2406 38 38.8076 36.433 38.8076 34.5C38.8076 32.567 37.2406 31 35.3076 31L20.8076 31V38H35.3076Z" fill="#FFEEEB"/>
<path d="M50.2366 28.44C52.2484 27.2183 54.8076 28.6853 54.8076 31.0601C54.8075 32.133 54.2513 33.1272 53.3424 33.6793L44.6567 39.845C39.7826 42.8052 35.0852 43.4784 29.4011 43.4785C27.7438 43.4785 26.2138 44.3672 25.3928 45.8068L23.0013 50L10.8076 42.8739L16.0876 33.6167C18.0317 30.2085 22.3369 29.0411 25.704 31.0088C27.7063 32.1789 28.9258 33.3034 29.1768 35.4617H33.2992C35.8567 35.4616 38.3661 34.7581 40.5592 33.4262L50.2366 28.44Z" fill="#FFEEEB"/>
<path d="M25.8076 37H35.7193C37.0529 37 38.2621 36.2169 38.8076 35" stroke="#FDB8AB" stroke-linecap="round"/>
<rect x="9.69922" y="41.1543" width="17.5394" height="7.01574" rx="2" transform="rotate(30 9.69922 41.1543)" fill="#FFD6CE"/>
<path d="M34 27H38.0001C38.0001 27.8284 37.3285 28.5 36.5001 28.5H35.5C34.6716 28.5 34 27.8284 34 27Z" fill="#FC9B88"/>
<path d="M36 9C39.866 9 42.9999 12.134 43 16C43 18.3784 41.813 20.4781 40 21.7432V24H32V21.7432C30.1871 20.4781 29 18.3783 29 16C29.0001 12.134 32.134 9.00008 36 9Z" fill="#FFD6CE"/>
<path d="M32 24H40.0002V24.9488C40.0002 26.0817 39.0818 27.0001 37.9489 27.0001H34.0512C32.9184 27.0001 32 26.0817 32 24.9488V24Z" fill="#FFEEEB"/>
<path d="M36.5 16C36.5 15.7239 36.2761 15.5 36 15.5C35.7239 15.5 35.5 15.7239 35.5 16H36H36.5ZM36 24H36.5V16H36H35.5V24H36Z" fill="#FC9B88"/>
<rect x="23" y="9.41406" width="2" height="4" rx="1" transform="rotate(-45 23 9.41406)" fill="#FAFAFA"/>
<rect x="35.1211" y="2.12109" width="2" height="4" rx="1" fill="#FAFAFA"/>
<rect width="2" height="4" rx="1" transform="matrix(-0.707107 -0.707107 -0.707107 0.707107 49.2422 9.41406)" fill="#FAFAFA"/>
<rect x="22" y="19" width="2" height="4" rx="1" transform="rotate(-90 22 19)" fill="#FAFAFA"/>
<rect width="2" height="4" rx="1" transform="matrix(0 -1 -1 0 50.2422 19)" fill="#FAFAFA"/>
</svg>
