<svg width="40" height="32" viewBox="0 0 40 32" fill="none" xmlns="http://www.w3.org/2000/svg">
<path d="M36 4C38.2091 4 40 5.79086 40 8V28C40 30.14 38.3194 31.8879 36.2061 31.9951L36 32H8L7.79395 31.9951C5.7488 31.8913 4.10865 30.2512 4.00488 28.2061L4 28V8C4 5.79086 5.79086 4 8 4H36ZM14.9668 14.1396C13.8387 13.1144 12.121 13.0978 10.9736 14.1016L6 18.4531V28C6 29.1046 6.89543 30 8 30H12.6211L22.6641 21.1377L14.9668 14.1396ZM32.0029 18.8242C30.8647 17.9389 29.2571 17.9893 28.1758 18.9434L15.6455 30H36C37.1046 30 38 29.1046 38 28V23.4883L32.0029 18.8242ZM8 6C6.89543 6 6 6.89543 6 8V15.7959L9.65625 12.5967C11.5686 10.9234 14.4323 10.9509 16.3125 12.6602L24.1738 19.8057L26.8525 17.4434C28.6547 15.8533 31.3334 15.7706 33.2305 17.2461L38 20.9551V8C38 6.89543 37.1046 6 36 6H8Z" fill="#585D63"/>
<circle cx="33" cy="11" r="2" fill="#585D63"/>
<circle cx="6" cy="6" r="6" fill="#585D63"/>
<rect x="5" y="3" width="2" height="6" rx="1" fill="#E6E8EB"/>
<rect x="3" y="5" width="6" height="2" rx="1" fill="#E6E8EB"/>
</svg>
