<svg width="24" height="24" viewBox="0 0 24 24" fill="none" xmlns="http://www.w3.org/2000/svg">
<path d="M19 11V8C19 7.44772 18.5523 7 18 7H6C5.44772 7 5 7.44772 5 8V16C5 16.5523 5.44772 17 6 17H9C9.55228 17 10 17.4477 10 18C10 18.5523 9.55228 19 9 19H6C4.34315 19 3 17.6569 3 16V8C3 6.34315 4.34315 5 6 5H18C19.6569 5 21 6.34315 21 8V11C21 11.5523 20.5523 12 20 12C19.4477 12 19 11.5523 19 11Z" fill="#FAFAFA"/>
<path d="M19 18V20H13V18H19ZM19 15H13V20L12.7959 19.9893C11.7872 19.887 11 19.0357 11 18V15C11 13.8954 11.8954 13 13 13H19C20.1046 13 21 13.8954 21 15V18C21 19.1046 20.1046 20 19 20V15Z" fill="#FAFAFA"/>
<path d="M6.64648 8.64648C6.84175 8.45122 7.15825 8.45122 7.35352 8.64648L9.5 10.793V9C9.5 8.72386 9.72386 8.5 10 8.5C10.2761 8.5 10.5 8.72386 10.5 9V12C10.5 12.2761 10.2761 12.5 10 12.5H7C6.72386 12.5 6.5 12.2761 6.5 12C6.5 11.7239 6.72386 11.5 7 11.5H8.79297L6.64648 9.35352C6.45122 9.15825 6.45122 8.84175 6.64648 8.64648Z" fill="#FAFAFA"/>
</svg>
