<svg width="24" height="24" viewBox="0 0 24 24" fill="none" xmlns="http://www.w3.org/2000/svg">
<path d="M11.999 2C12.5375 2.0004 12.9745 2.43701 12.9746 2.97559V4.42285L14.5244 3.50684C14.9969 3.22746 15.5987 3.38798 15.8682 3.86621C16.1375 4.3444 15.9722 4.95871 15.5 5.23828L14.9492 5.56348C17.9075 6.73769 20 9.62357 20 13C20 17.4183 16.4183 21 12 21C7.58172 21 4 17.4183 4 13C4 9.62466 6.09108 6.73939 9.04785 5.56445L8.49707 5.23828C8.02463 4.95873 7.86042 4.34448 8.12988 3.86621C8.39949 3.38827 9.00032 3.22739 9.47266 3.50684L11.0225 4.42285V2.97559C11.0226 2.43676 11.4602 2 11.999 2ZM12 7C8.68629 7 6 9.68629 6 13C6 16.3137 8.68629 19 12 19C15.3137 19 18 16.3137 18 13C18 9.68629 15.3137 7 12 7ZM12.8213 10.8213C13.3736 10.8213 13.8213 11.269 13.8213 11.8213V13.8213C13.8212 14.3735 13.3735 14.8213 12.8213 14.8213H10.8213C10.2691 14.8213 9.82137 14.3735 9.82129 13.8213C9.82129 13.269 10.269 12.8213 10.8213 12.8213H11.8213V11.8213C11.8213 11.269 12.269 10.8213 12.8213 10.8213Z" fill="#FA5332"/>
</svg>
