<svg width="200" height="200" viewBox="0 0 200 200" fill="none" xmlns="http://www.w3.org/2000/svg">
<g clip-path="url(#clip0_5650_32587)">
<path d="M105 114H121V180C121 182.209 119.209 184 117 184H109C106.791 184 105 182.209 105 180V114Z" fill="#A8AEB2"/>
<path d="M30.8834 115.765C15.9113 119.851 14.7888 140.657 29.2345 146.329C40.1509 150.616 52.2912 150.578 63.1806 146.223L103.928 129.928C107.49 128.503 107.198 123.367 103.497 122.355L56.0677 109.389C55.4725 109.227 54.8445 109.227 54.2491 109.389L30.8834 115.765Z" fill="#CACDD2"/>
<path fill-rule="evenodd" clip-rule="evenodd" d="M134.692 43.1141C138.347 42.7025 142.197 43.255 145.901 44.9881C153.284 48.4426 158.002 55.8581 158.002 64.0096V112.712C158.002 114.839 156.396 116.44 154.501 116.682C154.235 116.823 153.951 116.938 153.648 117.017L98.8736 131.477C96.736 132.042 94.546 130.765 93.9839 128.627L73.2798 49.8631C72.6258 47.375 74.4574 44.9248 77.0289 44.8475L134.692 43.1141Z" fill="#CACDD2"/>
<path d="M51 70.0182C51 51.7872 69.8849 39.6871 86.4476 47.3059C95.317 51.3858 101 60.2554 101 70.0182V127.757C101 130.674 97.9784 132.61 95.3284 131.391L52.4618 111.672C51.5709 111.263 51 110.372 51 109.391V70.0182Z" fill="#A8AEB2"/>
<path d="M100.999 127.757C100.999 130.674 97.9772 132.61 95.3271 131.391L52.4609 111.673C51.8531 111.393 51.3943 110.889 51.1641 110.286L100.999 94.6191V127.757Z" fill="#7E8389"/>
<path d="M119.533 43.3505L128.272 47.531L116.085 46.1169L112.636 51.7062L109.187 46.1169L97 47.531L105.738 43.3505L97 39.1753L109.187 40.5893L112.636 35L116.085 40.5893L128.272 39.1753L119.533 43.3505Z" fill="#7E8389"/>
<rect x="25" y="54.8281" width="4" height="16" rx="2" transform="rotate(-45 25 54.8281)" fill="#CACDD2"/>
<rect width="4" height="16" rx="2" transform="matrix(0.707107 0.707107 0.707107 -0.707107 25 93.4561)" fill="#CACDD2"/>
<rect x="39" y="72.1426" width="4" height="16" rx="2" transform="rotate(90 39 72.1426)" fill="#CACDD2"/>
</g>
<defs>
<clipPath id="clip0_5650_32587">
<rect width="200" height="200" fill="white"/>
</clipPath>
</defs>
</svg>
