<svg width="24" height="24" viewBox="0 0 24 24" fill="none" xmlns="http://www.w3.org/2000/svg">
<path d="M11.0002 6L11.1428 6.00977C11.4694 6.05673 11.7558 6.26349 11.9016 6.56641C12.0681 6.91287 12.0216 7.32483 11.7814 7.625L5.08124 16H11.0002C11.5525 16 12.0002 16.4477 12.0002 17C12.0002 17.5523 11.5525 18 11.0002 18H3.00018C2.61589 18 2.2654 17.7799 2.09882 17.4336C1.9323 17.0871 1.9788 16.6752 2.21893 16.375L8.91913 8H3.00018C2.4479 8 2.00018 7.55228 2.00018 7C2.00018 6.44772 2.4479 6 3.00018 6H11.0002Z" fill="#121212"/>
<path d="M21 8L21.1406 8.00977C21.4628 8.05546 21.7464 8.25641 21.8945 8.55273C22.0639 8.89146 22.027 9.29661 21.7998 9.59961L16.999 16H21C21.5523 16 22 16.4477 22 17C22 17.5523 21.5523 18 21 18H15C14.6212 18 14.2749 17.786 14.1055 17.4473C13.9361 17.1085 13.973 16.7034 14.2002 16.4004L19.001 10H15C14.4477 10 14 9.55228 14 9C14 8.44772 14.4477 8 15 8H21Z" fill="#121212"/>
</svg>
