<svg width="24" height="24" viewBox="0 0 24 24" fill="none" xmlns="http://www.w3.org/2000/svg">
<path d="M12 4C16.4183 4 20 7.58172 20 12C20 16.4183 16.4183 20 12 20C7.58172 20 4 16.4183 4 12C4 7.58172 7.58172 4 12 4ZM12 6C8.68629 6 6 8.68629 6 12C6 15.3137 8.68629 18 12 18C15.3137 18 18 15.3137 18 12C18 8.68629 15.3137 6 12 6ZM10 10.2344C10.0003 9.21196 11.2334 8.63433 12.085 9.25781L14.4951 11.0234C15.1684 11.5168 15.1684 12.4832 14.4951 12.9766L12.085 14.7422C11.2334 15.3657 10.0003 14.788 10 13.7656V10.2344Z" fill="#121212"/>
</svg>
