<svg width="24" height="24" viewBox="0 0 24 24" fill="none" xmlns="http://www.w3.org/2000/svg">
<path d="M12 4C16.4183 4 20 7.58172 20 12C20 16.4183 16.4183 20 12 20C7.58172 20 4 16.4183 4 12C4 7.58172 7.58172 4 12 4ZM12 6C8.68629 6 6 8.68629 6 12C6 15.3137 8.68629 18 12 18C15.3137 18 18 15.3137 18 12C18 8.68629 15.3137 6 12 6ZM13.5 9.5C14.0523 9.5 14.5 9.94772 14.5 10.5V13.5C14.5 14.0523 14.0523 14.5 13.5 14.5H10.5C9.94772 14.5 9.5 14.0523 9.5 13.5V10.5C9.5 9.94772 9.94772 9.5 10.5 9.5H13.5Z" fill="#121212"/>
</svg>
