<svg width="24" height="24" viewBox="0 0 24 24" fill="none" xmlns="http://www.w3.org/2000/svg">
<path d="M12.0029 5C16.4433 5 20.043 8.58172 20.043 13C20.043 14.9509 19.34 16.7376 18.1738 18.126L19.1738 19.1211C19.5661 19.5116 19.5661 20.1447 19.1738 20.5352C18.7813 20.9257 18.1444 20.9257 17.752 20.5352L16.7012 19.4893C15.3793 20.4384 13.7576 21 12.0029 21C10.255 21 8.6384 20.4435 7.31934 19.501L6.28125 20.5352C5.88884 20.9256 5.25285 20.9255 4.86035 20.5352C4.46795 20.1446 4.4679 19.5116 4.86035 19.1211L5.84473 18.1406C4.67125 16.7502 3.96289 14.9577 3.96289 13C3.96289 8.58174 7.56253 5.00003 12.0029 5ZM12.0029 7C8.67264 7.00003 5.97266 9.68631 5.97266 13C5.97266 16.3137 8.67264 19 12.0029 19C15.3332 19 18.0332 16.3137 18.0332 13C18.0332 9.68629 15.3332 7 12.0029 7ZM12.001 11C12.556 11 13.0059 11.4477 13.0059 12V13H14.0107C14.5658 13 15.0166 13.4477 15.0166 14C15.0166 14.5523 14.5658 15 14.0107 15H12.001C11.446 14.9999 10.9961 14.5522 10.9961 14V12C10.9961 11.4478 11.446 11.0001 12.001 11ZM6.03906 3.27148C6.72102 2.79635 7.66109 2.96116 8.13867 3.63965C8.61622 4.31826 8.45056 5.25335 7.76855 5.72852L6.12207 6.87598C5.4401 7.35102 4.5 7.18632 4.02246 6.50781C3.54501 5.82934 3.71092 4.8942 4.39258 4.41895L6.03906 3.27148ZM15.8604 3.63965C16.3379 2.96108 17.278 2.79643 17.96 3.27148L19.6064 4.41895C20.2885 4.89411 20.4541 5.8292 19.9766 6.50781C19.499 7.18618 18.5589 7.35108 17.877 6.87598L16.2305 5.72852C15.5488 5.25327 15.383 4.31811 15.8604 3.63965Z" fill="#121212"/>
</svg>
