<svg width="24" height="24" viewBox="0 0 24 24" fill="none" xmlns="http://www.w3.org/2000/svg">
<path d="M17 4C18.1046 4 19 4.89543 19 6C19 8.54697 17.6392 10.7753 15.6055 12C17.6392 13.2247 19 15.453 19 18C19 19.1046 18.1046 20 17 20H7C5.89543 20 5 19.1046 5 18L5.00879 17.6396C5.13028 15.2437 6.4572 13.1666 8.39453 12C6.4572 10.8334 5.13028 8.75631 5.00879 6.36035L5 6C5 4.89543 5.89543 4 7 4H17ZM12 13C9.23858 13 7 15.2386 7 18H17C17 15.2386 14.7614 13 12 13ZM7 6C7 8.76142 9.23858 11 12 11C14.7614 11 17 8.76142 17 6H7Z" fill="#FA5332"/>
</svg>
