<svg width="24" height="24" viewBox="0 0 24 24" fill="none" xmlns="http://www.w3.org/2000/svg">
<path d="M14.5 3C15.8807 3 17 4.11929 17 5.5V8C17 8.55228 16.5523 9 16 9C15.4477 9 15 8.55228 15 8V5.5C15 5.22386 14.7761 5 14.5 5H5.5C5.22386 5 5 5.22386 5 5.5V18.5C5 18.7761 5.22386 19 5.5 19H14.5C14.7761 19 15 18.7761 15 18.5V16C15 15.4477 15.4477 15 16 15C16.5523 15 17 15.4477 17 16V18.5C17 19.8807 15.8807 21 14.5 21H5.5C4.11929 21 3 19.8807 3 18.5V5.5C3 4.11929 4.11929 3 5.5 3H14.5ZM18.293 8.29297C18.6835 7.90248 19.3165 7.90248 19.707 8.29297L22.707 11.293C23.0975 11.6835 23.0975 12.3165 22.707 12.707L19.707 15.707C19.3165 16.0975 18.6835 16.0975 18.293 15.707C17.9025 15.3165 17.9025 14.6835 18.293 14.293L19.5859 13H12C11.4477 13 11.0001 12.5522 11 12C11 11.4477 11.4477 11 12 11H19.5859L18.293 9.70703C17.9025 9.31651 17.9025 8.68349 18.293 8.29297Z" fill="#FAFAFA"/>
</svg>
