<svg width="24" height="24" viewBox="0 0 24 24" fill="none" xmlns="http://www.w3.org/2000/svg">
<rect x="5" y="2" width="2" height="3" rx="1" fill="#FC9B88"/>
<rect x="9" y="2" width="2" height="3" rx="1" fill="#FC9B88"/>
<rect x="13" y="2" width="2" height="3" rx="1" fill="#FC9B88"/>
<rect x="17" y="2" width="2" height="3" rx="1" fill="#FC9B88"/>
<rect x="2" y="4" width="20" height="17" rx="2" fill="#FC9B88"/>
<rect x="4" y="5" width="16" height="14" rx="1" fill="#FFEEEB"/>
<path d="M2 6C2 4.89543 2.89543 4 4 4H20C21.1046 4 22 4.89543 22 6V8H2V6Z" fill="#FB7055"/>
<path d="M14.0255 16C13.7481 16 13.4871 15.959 13.2426 15.877C13.0029 15.7949 12.7936 15.6743 12.615 15.5151C12.441 15.351 12.3023 15.1484 12.1989 14.9071C12.1001 14.661 12.0508 14.3788 12.0508 14.0603V11.9397C12.0508 11.6212 12.1001 11.3414 12.1989 11.1001C12.3023 10.8589 12.441 10.6562 12.615 10.4922C12.7936 10.3281 13.0029 10.2051 13.2426 10.123C13.4871 10.041 13.7481 10 14.0255 10C14.3029 10 14.5615 10.041 14.8012 10.123C15.0457 10.2051 15.2549 10.3281 15.4289 10.4922C15.6076 10.6562 15.7463 10.8589 15.845 11.1001C15.9484 11.3414 16.0002 11.6212 16.0002 11.9397V14.0603C16.0002 14.3788 15.9484 14.661 15.845 14.9071C15.7463 15.1484 15.6076 15.351 15.4289 15.5151C15.2549 15.6743 15.0457 15.7949 14.8012 15.877C14.5615 15.959 14.3029 16 14.0255 16ZM14.0255 14.7696C14.0866 14.7696 14.1501 14.76 14.2159 14.7407C14.2817 14.7214 14.3405 14.6876 14.3922 14.6393C14.4486 14.5911 14.4933 14.5283 14.5262 14.4511C14.5638 14.3739 14.5826 14.2774 14.5826 14.1616V11.8384C14.5826 11.7274 14.5638 11.6333 14.5262 11.5561C14.4933 11.4789 14.4486 11.4162 14.3922 11.3679C14.3405 11.3197 14.2817 11.2859 14.2159 11.2666C14.1501 11.2425 14.0866 11.2304 14.0255 11.2304C13.9643 11.2304 13.9009 11.2425 13.835 11.2666C13.7692 11.2859 13.7081 11.3197 13.6517 11.3679C13.6 11.4162 13.5553 11.4789 13.5177 11.5561C13.4848 11.6333 13.4683 11.7274 13.4683 11.8384V14.1616C13.4683 14.2774 13.4848 14.3739 13.5177 14.4511C13.5553 14.5283 13.6 14.5911 13.6517 14.6393C13.7081 14.6876 13.7692 14.7214 13.835 14.7407C13.9009 14.76 13.9643 14.7696 14.0255 14.7696Z" fill="#FB7055"/>
<path d="M9.47396 10.4561C9.5821 10.1569 9.78897 10.0073 10.0946 10.0073C10.3014 10.0073 10.4707 10.0701 10.6024 10.1955C10.734 10.3161 10.7998 10.4971 10.7998 10.7383V15.1573C10.7998 15.5468 10.4841 15.8626 10.0946 15.8626C9.70508 15.8626 9.38933 15.5468 9.38933 15.1573V12.251H8.7264C8.52893 12.251 8.35732 12.2003 8.21157 12.099C8.07052 11.9977 8 11.8457 8 11.643C8 11.4742 8.04937 11.339 8.1481 11.2377C8.24684 11.1364 8.36673 11.0761 8.50778 11.0568C8.73345 11.0278 8.93327 10.9699 9.10723 10.8831C9.2859 10.7914 9.40814 10.6491 9.47396 10.4561Z" fill="#FB7055"/>
</svg>
