<svg width="24" height="24" viewBox="0 0 24 24" fill="none" xmlns="http://www.w3.org/2000/svg">
<path d="M17.0762 5.30725C17.4825 4.89679 18.1416 4.89666 18.5479 5.30725C18.9541 5.71783 18.9539 6.38387 18.5479 6.79456L13.4707 11.9244L18.6953 17.2047C19.1016 17.6154 19.1016 18.2814 18.6953 18.692C18.289 19.1026 17.6299 19.1027 17.2236 18.692L12 13.4117L6.77637 18.692C6.37005 19.1027 5.71101 19.1027 5.30469 18.692C4.89836 18.2814 4.89836 17.6154 5.30469 17.2047L10.5283 11.9244L5.45215 6.79456C5.04613 6.38388 5.04596 5.71782 5.45215 5.30725C5.85839 4.89666 6.51749 4.89683 6.92383 5.30725L12 10.4371L17.0762 5.30725Z" fill="#121212"/>
</svg>
