<svg width="160" height="160" viewBox="0 0 160 160" fill="none" xmlns="http://www.w3.org/2000/svg">
<path d="M75.4004 46.3267L97.7271 24" stroke="#999999" stroke-width="8" stroke-miterlimit="10"/>
<path d="M21.4465 46.5893C9.42643 58.6094 7.48829 76.938 15.5167 91.3069C13.6106 94.1884 14.9134 99.1813 18.7191 102.993C22.5311 106.805 27.524 108.102 30.4054 106.196C44.7744 114.23 63.1094 112.286 75.1231 100.266C87.1368 88.2521 89.0813 69.93 81.0593 55.5674C83.0424 52.6988 81.7589 47.6417 77.9083 43.7976C74.0578 39.9471 69.0071 38.6636 66.1385 40.6466C51.7695 32.6246 33.4474 34.5756 21.4401 46.5828L21.4465 46.5893Z" fill="#ADADAD"/>
<path d="M24.6095 103.832C25.424 103.017 24.5422 100.815 22.64 98.9126C20.7378 97.0104 18.5354 96.1286 17.7209 96.9431C16.9064 97.7577 17.7881 99.96 19.6904 101.862C21.5926 103.764 23.7949 104.646 24.6095 103.832Z" fill="#ECECEC"/>
<path d="M25.9911 51.4079C26.2817 51.4079 26.5173 51.1723 26.5173 50.8817C26.5173 50.5911 26.2817 50.3555 25.9911 50.3555C25.7005 50.3555 25.4648 50.5911 25.4648 50.8817C25.4648 51.1723 25.7005 51.4079 25.9911 51.4079Z" fill="#ECECEC"/>
<path d="M24.0341 53.3337C24.3247 53.3337 24.5603 53.0981 24.5603 52.8075C24.5603 52.5169 24.3247 52.2812 24.0341 52.2812C23.7434 52.2812 23.5078 52.5169 23.5078 52.8075C23.5078 53.0981 23.7434 53.3337 24.0341 53.3337Z" fill="#ECECEC"/>
<path d="M23.3466 50.6775C23.6372 50.6775 23.8728 50.4419 23.8728 50.1512C23.8728 49.8606 23.6372 49.625 23.3466 49.625C23.0559 49.625 22.8203 49.8606 22.8203 50.1512C22.8203 50.4419 23.0559 50.6775 23.3466 50.6775Z" fill="#ECECEC"/>
<path d="M30.3993 47.2165C30.6899 47.2165 30.9255 46.9809 30.9255 46.6903C30.9255 46.3997 30.6899 46.1641 30.3993 46.1641C30.1086 46.1641 29.873 46.3997 29.873 46.6903C29.873 46.9809 30.1086 47.2165 30.3993 47.2165Z" fill="#ECECEC"/>
<path d="M28.4423 49.1345C28.7329 49.1345 28.9685 48.8989 28.9685 48.6083C28.9685 48.3176 28.7329 48.082 28.4423 48.082C28.1516 48.082 27.916 48.3176 27.916 48.6083C27.916 48.8989 28.1516 49.1345 28.4423 49.1345Z" fill="#ECECEC"/>
<path d="M27.7548 46.4822C28.0454 46.4822 28.281 46.2465 28.281 45.9559C28.281 45.6653 28.0454 45.4297 27.7548 45.4297C27.4641 45.4297 27.2285 45.6653 27.2285 45.9559C27.2285 46.2465 27.4641 46.4822 27.7548 46.4822Z" fill="#ECECEC"/>
<path d="M70.579 96.5095C70.8696 96.5095 71.1052 96.2739 71.1052 95.9833C71.1052 95.6926 70.8696 95.457 70.579 95.457C70.2883 95.457 70.0527 95.6926 70.0527 95.9833C70.0527 96.2739 70.2883 96.5095 70.579 96.5095Z" fill="#ECECEC"/>
<path d="M72.5438 94.5837C72.8345 94.5837 73.0701 94.3481 73.0701 94.0575C73.0701 93.7669 72.8345 93.5312 72.5438 93.5312C72.2532 93.5312 72.0176 93.7669 72.0176 94.0575C72.0176 94.3481 72.2532 94.5837 72.5438 94.5837Z" fill="#ECECEC"/>
<path d="M73.2235 97.2439C73.5141 97.2439 73.7498 97.0083 73.7498 96.7177C73.7498 96.427 73.5141 96.1914 73.2235 96.1914C72.9329 96.1914 72.6973 96.427 72.6973 96.7177C72.6973 97.0083 72.9329 97.2439 73.2235 97.2439Z" fill="#ECECEC"/>
<path d="M66.1786 100.701C66.4692 100.701 66.7048 100.465 66.7048 100.175C66.7048 99.884 66.4692 99.6484 66.1786 99.6484C65.8879 99.6484 65.6523 99.884 65.6523 100.175C65.6523 100.465 65.8879 100.701 66.1786 100.701Z" fill="#ECECEC"/>
<path d="M68.1356 98.7829C68.4263 98.7829 68.6619 98.5473 68.6619 98.2567C68.6619 97.9661 68.4263 97.7305 68.1356 97.7305C67.845 97.7305 67.6094 97.9661 67.6094 98.2567C67.6094 98.5473 67.845 98.7829 68.1356 98.7829Z" fill="#ECECEC"/>
<path d="M68.8231 101.439C69.1138 101.439 69.3493 101.204 69.3493 100.913C69.3493 100.622 69.1138 100.387 68.8231 100.387C68.5325 100.387 68.2969 100.622 68.2969 100.913C68.2969 101.204 68.5325 101.439 68.8231 101.439Z" fill="#ECECEC"/>
<path d="M84.5123 114.672L62.1855 136.999" stroke="#999999" stroke-width="8" stroke-miterlimit="10"/>
<path d="M138.466 114.401C150.487 102.381 152.425 84.0525 144.396 69.6836C146.302 66.8021 144.999 61.8093 141.194 57.9972C137.382 54.1852 132.389 52.8888 129.507 54.7948C115.138 46.76 96.8035 48.7046 84.7898 60.7247C72.7761 72.7384 70.8316 91.0605 78.8535 105.423C76.8705 108.292 78.154 113.349 82.0046 117.193C85.8551 121.037 90.9057 122.327 93.7744 120.344C108.143 128.366 126.466 126.415 138.473 114.408L138.466 114.401Z" fill="#BDBDBD"/>
<path d="M142.182 64.0504C142.996 63.2359 142.114 61.0336 140.212 59.1313C138.31 57.2291 136.108 56.3474 135.293 57.1619C134.479 57.9764 135.36 60.1788 137.263 62.081C139.165 63.9832 141.367 64.865 142.182 64.0504Z" fill="#ECECEC"/>
<path d="M134.171 110.385C134.461 110.385 134.697 110.149 134.697 109.858C134.697 109.568 134.461 109.332 134.171 109.332C133.88 109.332 133.645 109.568 133.645 109.858C133.645 110.149 133.88 110.385 134.171 110.385Z" fill="#ECECEC"/>
<path d="M132.247 112.345C132.538 112.345 132.773 112.11 132.773 111.819C132.773 111.529 132.538 111.293 132.247 111.293C131.956 111.293 131.721 111.529 131.721 111.819C131.721 112.11 131.956 112.345 132.247 112.345Z" fill="#ECECEC"/>
<path d="M134.903 113.029C135.194 113.029 135.429 112.793 135.429 112.503C135.429 112.212 135.194 111.977 134.903 111.977C134.613 111.977 134.377 112.212 134.377 112.503C134.377 112.793 134.613 113.029 134.903 113.029Z" fill="#ECECEC"/>
<path d="M138.37 105.978C138.661 105.978 138.896 105.743 138.896 105.452C138.896 105.161 138.661 104.926 138.37 104.926C138.079 104.926 137.844 105.161 137.844 105.452C137.844 105.743 138.079 105.978 138.37 105.978Z" fill="#ECECEC"/>
<path d="M136.444 107.943C136.735 107.943 136.97 107.708 136.97 107.417C136.97 107.126 136.735 106.891 136.444 106.891C136.154 106.891 135.918 107.126 135.918 107.417C135.918 107.708 136.154 107.943 136.444 107.943Z" fill="#ECECEC"/>
<path d="M139.101 108.623C139.391 108.623 139.627 108.387 139.627 108.097C139.627 107.806 139.391 107.57 139.101 107.57C138.81 107.57 138.574 107.806 138.574 108.097C138.574 108.387 138.81 108.623 139.101 108.623Z" fill="#ECECEC"/>
<path d="M89.0692 65.7947C89.3598 65.7947 89.5955 65.5591 89.5955 65.2684C89.5955 64.9778 89.3598 64.7422 89.0692 64.7422C88.7786 64.7422 88.543 64.9778 88.543 65.2684C88.543 65.5591 88.7786 65.7947 89.0692 65.7947Z" fill="#ECECEC"/>
<path d="M90.995 63.8376C91.2856 63.8376 91.5212 63.602 91.5212 63.3114C91.5212 63.0208 91.2856 62.7852 90.995 62.7852C90.7044 62.7852 90.4688 63.0208 90.4688 63.3114C90.4688 63.602 90.7044 63.8376 90.995 63.8376Z" fill="#ECECEC"/>
<path d="M88.3387 63.1501C88.6294 63.1501 88.865 62.9145 88.865 62.6239C88.865 62.3333 88.6294 62.0977 88.3387 62.0977C88.0481 62.0977 87.8125 62.3333 87.8125 62.6239C87.8125 62.9145 88.0481 63.1501 88.3387 63.1501Z" fill="#ECECEC"/>
<path d="M84.8798 70.197C85.1704 70.197 85.406 69.9614 85.406 69.6708C85.406 69.3801 85.1704 69.1445 84.8798 69.1445C84.5891 69.1445 84.3535 69.3801 84.3535 69.6708C84.3535 69.9614 84.5891 70.197 84.8798 70.197Z" fill="#ECECEC"/>
<path d="M86.7958 68.2439C87.0864 68.2439 87.322 68.0083 87.322 67.7176C87.322 67.427 87.0864 67.1914 86.7958 67.1914C86.5051 67.1914 86.2695 67.427 86.2695 67.7176C86.2695 68.0083 86.5051 68.2439 86.7958 68.2439Z" fill="#ECECEC"/>
<path d="M84.1415 67.5564C84.4321 67.5564 84.6677 67.3208 84.6677 67.0302C84.6677 66.7395 84.4321 66.5039 84.1415 66.5039C83.8508 66.5039 83.6152 66.7395 83.6152 67.0302C83.6152 67.3208 83.8508 67.5564 84.1415 67.5564Z" fill="#ECECEC"/>
<path d="M110.638 133.816L62.1914 136.993C66.5425 129.382 75.264 123.875 85.6091 123.195C95.9671 122.515 105.33 126.834 110.638 133.81V133.816Z" fill="#C5C5C5"/>
<path d="M49.2734 27.1767L97.7197 24C93.3686 31.6112 84.6471 37.1175 74.302 37.7978C63.944 38.478 54.5808 34.159 49.2734 27.1831V27.1767Z" fill="#ADADAD"/>
<path d="M34.0781 94.4844C34.0781 95.601 44.3334 95.601 44.3334 94.4844" stroke="#47484D" stroke-width="3" stroke-miterlimit="10" stroke-linecap="round"/>
<path d="M52.2383 94.4844C52.2383 95.601 62.4935 95.601 62.4935 94.4844" stroke="#47484D" stroke-width="3" stroke-miterlimit="10" stroke-linecap="round"/>
<path d="M97.4121 108.809C97.4121 109.925 107.667 109.925 107.667 108.809" stroke="#47484D" stroke-width="3" stroke-miterlimit="10" stroke-linecap="round"/>
<path d="M115.572 108.809C115.572 109.925 125.828 109.925 125.828 108.809" stroke="#47484D" stroke-width="3" stroke-miterlimit="10" stroke-linecap="round"/>
</svg>
