<svg width="160" height="160" viewBox="0 0 160 160" fill="none" xmlns="http://www.w3.org/2000/svg">
<path d="M108.744 100.339C130.112 100.339 147.435 84.1454 147.435 64.1695C147.435 44.1936 130.112 28 108.744 28C87.3754 28 70.0527 44.1936 70.0527 64.1695C70.0527 84.1454 87.3754 100.339 108.744 100.339Z" fill="#9A9A9A"/>
<path d="M125.504 28.0508L125.831 31.664L130.742 33.6148L126.025 33.8971L126.351 37.5103L123.114 34.0728L118.403 34.355L121.113 31.9462L117.883 28.5024L122.794 30.4596L125.504 28.0508Z" fill="#666666"/>
<path d="M145.39 42.3468C144.932 37.7299 139.895 32.398 135.278 30.215C130.661 28.0383 127.631 29.5689 123.773 32.1533L145.39 42.3468Z" fill="#666666"/>
<path d="M123.773 32.1524C123.773 32.1524 137.009 32.121 142.793 35.4895C148.576 38.8581 150.559 42.741 145.39 42.3458L123.773 32.1524Z" fill="#969696"/>
<path d="M85.0809 44.0993C85.3823 44.0993 85.6266 43.855 85.6266 43.5536C85.6266 43.2521 85.3823 43.0078 85.0809 43.0078C84.7795 43.0078 84.5352 43.2521 84.5352 43.5536C84.5352 43.855 84.7795 44.0993 85.0809 44.0993Z" fill="#787878"/>
<path d="M83.0946 46.1266C83.396 46.1266 83.6403 45.8823 83.6403 45.5809C83.6403 45.2795 83.396 45.0352 83.0946 45.0352C82.7932 45.0352 82.5488 45.2795 82.5488 45.5809C82.5488 45.8823 82.7932 46.1266 83.0946 46.1266Z" fill="#787878"/>
<path d="M85.8407 46.8376C86.1421 46.8376 86.3864 46.5933 86.3864 46.2919C86.3864 45.9904 86.1421 45.7461 85.8407 45.7461C85.5393 45.7461 85.2949 45.9904 85.2949 46.2919C85.2949 46.5933 85.5393 46.8376 85.8407 46.8376Z" fill="#787878"/>
<path d="M90.0614 40.6774C90.3628 40.6774 90.6071 40.4331 90.6071 40.1317C90.6071 39.8303 90.3628 39.5859 90.0614 39.5859C89.76 39.5859 89.5156 39.8303 89.5156 40.1317C89.5156 40.4331 89.76 40.6774 90.0614 40.6774Z" fill="#787878"/>
<path d="M87.5594 42.0251C87.8608 42.0251 88.1051 41.7807 88.1051 41.4793C88.1051 41.1779 87.8608 40.9336 87.5594 40.9336C87.258 40.9336 87.0137 41.1779 87.0137 41.4793C87.0137 41.7807 87.258 42.0251 87.5594 42.0251Z" fill="#787878"/>
<path d="M89.9754 43.5173C90.2768 43.5173 90.5212 43.2729 90.5212 42.9715C90.5212 42.6701 90.2768 42.4258 89.9754 42.4258C89.674 42.4258 89.4297 42.6701 89.4297 42.9715C89.4297 43.2729 89.674 43.5173 89.9754 43.5173Z" fill="#787878"/>
<path d="M51.6346 130.999C73.0031 130.999 90.3257 114.805 90.3257 94.8296C90.3257 74.8538 73.0031 58.6602 51.6346 58.6602C30.266 58.6602 12.9434 74.8538 12.9434 94.8296C12.9434 114.805 30.266 130.999 51.6346 130.999Z" fill="#E3E3E3"/>
<path d="M34.8664 58.707L34.5465 62.3265L29.6348 64.2774L34.352 64.5596L34.0258 68.1728L37.2626 64.729L41.9736 65.0113L39.2637 62.6025L42.4942 59.165L37.5825 61.1158L34.8664 58.707Z" fill="#666666"/>
<path d="M14.9824 72.9991C15.4403 68.3823 20.4775 63.0503 25.0943 60.8673C29.7112 58.6906 32.741 60.2212 36.5988 62.8057L14.9824 72.9991Z" fill="#666666"/>
<path d="M36.5991 62.8164C36.5991 62.8164 23.3633 62.785 17.5797 66.1536C11.8024 69.5159 9.81386 73.4051 14.9827 73.0099L36.5991 62.8164Z" fill="#969696"/>
<path d="M75.2977 74.7634C75.5991 74.7634 75.8434 74.519 75.8434 74.2176C75.8434 73.9162 75.5991 73.6719 75.2977 73.6719C74.9963 73.6719 74.752 73.9162 74.752 74.2176C74.752 74.519 74.9963 74.7634 75.2977 74.7634Z" fill="#787878"/>
<path d="M77.284 76.7907C77.5854 76.7907 77.8298 76.5464 77.8298 76.245C77.8298 75.9436 77.5854 75.6992 77.284 75.6992C76.9826 75.6992 76.7383 75.9436 76.7383 76.245C76.7383 76.5464 76.9826 76.7907 77.284 76.7907Z" fill="#787878"/>
<path d="M74.5321 77.4977C74.8335 77.4977 75.0778 77.2534 75.0778 76.952C75.0778 76.6506 74.8335 76.4062 74.5321 76.4062C74.2307 76.4062 73.9863 76.6506 73.9863 76.952C73.9863 77.2534 74.2307 77.4977 74.5321 77.4977Z" fill="#787878"/>
<path d="M70.3153 71.3376C70.6167 71.3376 70.861 71.0933 70.861 70.7919C70.861 70.4904 70.6167 70.2461 70.3153 70.2461C70.0139 70.2461 69.7695 70.4904 69.7695 70.7919C69.7695 71.0933 70.0139 71.3376 70.3153 71.3376Z" fill="#787878"/>
<path d="M72.8192 72.6891C73.1206 72.6891 73.3649 72.4448 73.3649 72.1434C73.3649 71.842 73.1206 71.5977 72.8192 71.5977C72.5178 71.5977 72.2734 71.842 72.2734 72.1434C72.2734 72.4448 72.5178 72.6891 72.8192 72.6891Z" fill="#787878"/>
<path d="M70.4032 74.1735C70.7046 74.1735 70.9489 73.9292 70.9489 73.6278C70.9489 73.3264 70.7046 73.082 70.4032 73.082C70.1018 73.082 69.8574 73.3264 69.8574 73.6278C69.8574 73.9292 70.1018 74.1735 70.4032 74.1735Z" fill="#787878"/>
<path d="M37.7461 116.453C37.7461 117.545 47.7702 117.545 47.7702 116.453" stroke="#47484D" stroke-width="3" stroke-miterlimit="10" stroke-linecap="round"/>
<path d="M55.498 116.453C55.498 117.545 65.5221 117.545 65.5221 116.453" stroke="#47484D" stroke-width="3" stroke-miterlimit="10" stroke-linecap="round"/>
<path d="M94.8555 82.5469C94.8555 83.6384 104.88 83.6384 104.88 82.5469" stroke="#47484D" stroke-width="3" stroke-miterlimit="10" stroke-linecap="round"/>
<path d="M112.605 82.5469C112.605 83.6384 122.63 83.6384 122.63 82.5469" stroke="#47484D" stroke-width="3" stroke-miterlimit="10" stroke-linecap="round"/>
</svg>
