<svg width="160" height="160" viewBox="0 0 160 160" fill="none" xmlns="http://www.w3.org/2000/svg">
<path d="M95.2499 77.0117C95.2499 83.787 89.7558 89.2811 82.9805 89.2811" stroke="#9E9E9D" stroke-width="15" stroke-miterlimit="10" stroke-linecap="round"/>
<path d="M52.7304 102.664C75.7775 102.664 94.4609 83.9807 94.4609 60.9336C94.4609 37.8865 75.7775 19.2031 52.7304 19.2031C29.6834 19.2031 11 37.8865 11 60.9336C11 83.9807 29.6834 102.664 52.7304 102.664Z" fill="#BABABA"/>
<path d="M44.5577 30.4316L33.6709 38.8139L35.9076 30.5908L18.9766 32.9723L34.8363 26.5662L28.7848 20.5654L42.4006 22.3823L53.2802 14L51.0435 22.223L67.9746 19.8415L52.1221 26.2477L58.1735 32.2485L44.5577 30.4316Z" fill="#666666"/>
<path d="M107.092 147C130.139 147 148.822 128.317 148.822 105.27C148.822 82.2224 130.139 63.5391 107.092 63.5391C84.0447 63.5391 65.3613 82.2224 65.3613 105.27C65.3613 128.317 84.0447 147 107.092 147Z" fill="#ADADAD"/>
<path d="M115.264 74.7675L126.151 83.1498L123.907 74.9268L140.846 77.3083L124.986 70.9021L131.037 64.9013L117.422 66.7182L106.542 58.3359L108.779 66.559L91.8477 64.1775L107.7 70.5836L101.649 76.5844L115.264 74.7675Z" fill="#666666"/>
<path d="M87.0419 129.861C87.4576 129.861 87.7947 129.524 87.7947 129.108C87.7947 128.693 87.4576 128.355 87.0419 128.355C86.6261 128.355 86.2891 128.693 86.2891 129.108C86.2891 129.524 86.6261 129.861 87.0419 129.861Z" fill="#EDEDED"/>
<path d="M85.079 133.248C85.4948 133.248 85.8318 132.911 85.8318 132.495C85.8318 132.079 85.4948 131.742 85.079 131.742C84.6632 131.742 84.3262 132.079 84.3262 132.495C84.3262 132.911 84.6632 133.248 85.079 133.248Z" fill="#EDEDED"/>
<path d="M88.995 133.248C89.4108 133.248 89.7478 132.911 89.7478 132.495C89.7478 132.079 89.4108 131.742 88.995 131.742C88.5792 131.742 88.2422 132.079 88.2422 132.495C88.2422 132.911 88.5792 133.248 88.995 133.248Z" fill="#EDEDED"/>
<path d="M127.143 129.861C127.559 129.861 127.896 129.524 127.896 129.108C127.896 128.693 127.559 128.355 127.143 128.355C126.728 128.355 126.391 128.693 126.391 129.108C126.391 129.524 126.728 129.861 127.143 129.861Z" fill="#EDEDED"/>
<path d="M125.188 133.248C125.604 133.248 125.941 132.911 125.941 132.495C125.941 132.079 125.604 131.742 125.188 131.742C124.773 131.742 124.436 132.079 124.436 132.495C124.436 132.911 124.773 133.248 125.188 133.248Z" fill="#EDEDED"/>
<path d="M129.104 133.248C129.52 133.248 129.857 132.911 129.857 132.495C129.857 132.079 129.52 131.742 129.104 131.742C128.689 131.742 128.352 132.079 128.352 132.495C128.352 132.911 128.689 133.248 129.104 133.248Z" fill="#EDEDED"/>
<path d="M32.6708 85.8923C33.0865 85.8923 33.4236 85.5553 33.4236 85.1395C33.4236 84.7238 33.0865 84.3867 32.6708 84.3867C32.255 84.3867 31.918 84.7238 31.918 85.1395C31.918 85.5553 32.255 85.8923 32.6708 85.8923Z" fill="#EDEDED"/>
<path d="M30.7177 89.2791C31.1334 89.2791 31.4705 88.942 31.4705 88.5263C31.4705 88.1105 31.1334 87.7734 30.7177 87.7734C30.3019 87.7734 29.9648 88.1105 29.9648 88.5263C29.9648 88.942 30.3019 89.2791 30.7177 89.2791Z" fill="#EDEDED"/>
<path d="M34.6337 89.2791C35.0494 89.2791 35.3865 88.942 35.3865 88.5263C35.3865 88.1105 35.0494 87.7734 34.6337 87.7734C34.2179 87.7734 33.8809 88.1105 33.8809 88.5263C33.8809 88.942 34.2179 89.2791 34.6337 89.2791Z" fill="#EDEDED"/>
<path d="M36.7031 76.5391C36.7031 77.7986 48.2704 77.7986 48.2704 76.5391" stroke="#47484D" stroke-width="3" stroke-miterlimit="10" stroke-linecap="round"/>
<path d="M57.1875 76.5391C57.1875 77.7986 68.7548 77.7986 68.7548 76.5391" stroke="#47484D" stroke-width="3" stroke-miterlimit="10" stroke-linecap="round"/>
<path d="M91.0664 121.312C91.0664 122.572 102.634 122.572 102.634 121.312" stroke="#47484D" stroke-width="3" stroke-miterlimit="10" stroke-linecap="round"/>
<path d="M111.551 121.312C111.551 122.572 123.118 122.572 123.118 121.312" stroke="#47484D" stroke-width="3" stroke-miterlimit="10" stroke-linecap="round"/>
</svg>
