<svg width="160" height="160" viewBox="0 0 160 160" fill="none" xmlns="http://www.w3.org/2000/svg">
<path d="M142.925 108.117C132.847 99.9276 112.319 99.4291 98.8892 104.319C85.4649 109.203 82.5331 118.248 80.0762 130.996L142.931 108.117H142.925Z" fill="#666666"/>
<path d="M107.904 85.6535C102.688 105.131 92.3436 121.173 80.0766 130.989C74.3614 116.348 73.4119 97.2973 78.6344 77.8078C83.857 58.3123 94.2071 42.2768 106.474 32.4727C112.189 47.1076 113.127 66.158 107.904 85.6535Z" fill="#E8E8E8"/>
<path d="M81.5059 77.8117C86.7225 97.2894 85.7908 116.352 80.0756 130.993C67.8027 121.177 57.4585 105.153 52.236 85.6574C47.0135 66.1619 47.9571 47.0997 53.6781 32.4766C65.9511 42.2925 76.2834 58.3222 81.5059 77.8117Z" fill="#E8E8E8"/>
<path d="M67.6971 79.2535C77.7801 96.7134 81.8098 115.372 80.0768 130.992C65.6852 124.684 51.5428 111.882 41.4538 94.4048C31.3649 76.9271 27.3411 58.2684 29.08 42.6602C43.4716 48.9687 57.6081 61.7758 67.6971 79.2476V79.2535Z" fill="#F2F2F2"/>
<path d="M118.694 94.4009C108.61 111.861 94.474 124.686 80.0765 130.988C78.3435 115.368 82.3554 96.7213 92.4503 79.2436C102.539 61.766 116.688 48.953 131.073 42.6562C132.806 58.2764 128.782 76.9172 118.694 94.3949V94.4009Z" fill="#F2F2F2"/>
<path d="M95.2225 79.9968C95.2225 100.163 89.3887 118.335 80.0771 130.994C70.7656 118.335 64.9199 100.181 64.9199 79.9968C64.9199 59.8129 70.7656 41.6468 80.0771 29C89.3887 41.6587 95.2225 59.8129 95.2225 79.9968Z" fill="#F6F6F6"/>
<path d="M80.0763 130.993C80.0763 130.993 106.106 104.625 124.177 99.7767C142.248 94.9221 153.886 98.6313 142.925 108.121L80.0703 130.999L80.0763 130.993Z" fill="#969696"/>
<path d="M80.0718 130.993C80.0718 130.993 54.0422 104.625 35.9711 99.7767C17.8999 94.9221 6.26198 98.6313 17.2234 108.121L80.0777 130.999L80.0718 130.993Z" fill="#969696"/>
<path d="M17.2169 108.117C27.294 99.9276 47.8221 99.4291 61.2523 104.319C74.6766 109.203 77.6083 118.248 80.0653 130.996L17.2109 108.117H17.2169Z" fill="#666666"/>
<path d="M66.9375 104.031H76.4211" stroke="#47484D" stroke-width="3" stroke-miterlimit="10" stroke-linecap="round"/>
<path d="M83.7324 104.031H93.2161" stroke="#47484D" stroke-width="3" stroke-miterlimit="10" stroke-linecap="round"/>
</svg>
