<svg width="160" height="160" viewBox="0 0 160 160" fill="none" xmlns="http://www.w3.org/2000/svg">
<path d="M106.817 122.987C125.796 104.008 128.867 75.049 116.183 52.35C119.191 47.7944 117.142 39.9081 111.119 33.8848C105.101 27.8671 97.2094 25.8123 92.6538 28.8211C69.9548 16.1365 41.001 19.2075 22.0165 38.1863C3.04324 57.1596 -0.0333481 86.0965 12.6343 108.795C9.49561 113.329 11.5335 121.311 17.6076 127.39C23.6874 133.47 31.6696 135.503 36.2027 132.364C58.896 145.032 87.8385 141.955 106.812 122.982L106.817 122.987Z" fill="#E0E0E0"/>
<path d="M101.512 36.4498C101.512 27.3669 108.879 20 117.962 20" stroke="#666666" stroke-width="8" stroke-miterlimit="10"/>
<path d="M99.4854 118.162C99.9531 118.162 100.332 117.783 100.332 117.316C100.332 116.848 99.9531 116.469 99.4854 116.469C99.0178 116.469 98.6387 116.848 98.6387 117.316C98.6387 117.783 99.0178 118.162 99.4854 118.162Z" fill="#949494"/>
<path d="M96.3956 121.311C96.8633 121.311 97.2424 120.932 97.2424 120.464C97.2424 119.996 96.8633 119.617 96.3956 119.617C95.9279 119.617 95.5488 119.996 95.5488 120.464C95.5488 120.932 95.9279 121.311 96.3956 121.311Z" fill="#949494"/>
<path d="M100.665 122.416C101.133 122.416 101.512 122.037 101.512 121.569C101.512 121.102 101.133 120.723 100.665 120.723C100.197 120.723 99.8184 121.102 99.8184 121.569C99.8184 122.037 100.197 122.416 100.665 122.416Z" fill="#949494"/>
<path d="M106.224 111.084C106.691 111.084 107.07 110.705 107.07 110.237C107.07 109.77 106.691 109.391 106.224 109.391C105.756 109.391 105.377 109.77 105.377 110.237C105.377 110.705 105.756 111.084 106.224 111.084Z" fill="#949494"/>
<path d="M103.138 114.233C103.605 114.233 103.985 113.853 103.985 113.386C103.985 112.918 103.605 112.539 103.138 112.539C102.67 112.539 102.291 112.918 102.291 113.386C102.291 113.853 102.67 114.233 103.138 114.233Z" fill="#949494"/>
<path d="M107.405 115.338C107.873 115.338 108.252 114.959 108.252 114.491C108.252 114.024 107.873 113.645 107.405 113.645C106.938 113.645 106.559 114.024 106.559 114.491C106.559 114.959 106.938 115.338 107.405 115.338Z" fill="#949494"/>
<path d="M27.0225 46.5178C27.4902 46.5178 27.8693 46.1386 27.8693 45.671C27.8693 45.2033 27.4902 44.8242 27.0225 44.8242C26.5549 44.8242 26.1758 45.2033 26.1758 45.671C26.1758 46.1386 26.5549 46.5178 27.0225 46.5178Z" fill="#949494"/>
<path d="M30.1124 43.3771C30.58 43.3771 30.9592 42.998 30.9592 42.5304C30.9592 42.0627 30.58 41.6836 30.1124 41.6836C29.6447 41.6836 29.2656 42.0627 29.2656 42.5304C29.2656 42.998 29.6447 43.3771 30.1124 43.3771Z" fill="#949494"/>
<path d="M25.8448 42.2756C26.3125 42.2756 26.6916 41.8965 26.6916 41.4288C26.6916 40.9611 26.3125 40.582 25.8448 40.582C25.3772 40.582 24.998 40.9611 24.998 41.4288C24.998 41.8965 25.3772 42.2756 25.8448 42.2756Z" fill="#949494"/>
<path d="M20.2843 53.5998C20.7519 53.5998 21.131 53.2207 21.131 52.753C21.131 52.2854 20.7519 51.9062 20.2843 51.9062C19.8166 51.9062 19.4375 52.2854 19.4375 52.753C19.4375 53.2207 19.8166 53.5998 20.2843 53.5998Z" fill="#949494"/>
<path d="M23.3722 50.4553C23.8398 50.4553 24.2189 50.0761 24.2189 49.6085C24.2189 49.1408 23.8398 48.7617 23.3722 48.7617C22.9045 48.7617 22.5254 49.1408 22.5254 49.6085C22.5254 50.0761 22.9045 50.4553 23.3722 50.4553Z" fill="#949494"/>
<path d="M19.1026 49.3537C19.5703 49.3537 19.9494 48.9746 19.9494 48.5069C19.9494 48.0393 19.5703 47.6602 19.1026 47.6602C18.635 47.6602 18.2559 48.0393 18.2559 48.5069C18.2559 48.9746 18.635 49.3537 19.1026 49.3537Z" fill="#949494"/>
<path d="M153.914 80.6248L102.752 29.4688C115.555 26.8607 130.289 31.2244 141.218 42.1534C152.158 53.0936 156.516 67.8217 153.914 80.6248Z" fill="#787878"/>
<path d="M153.914 80.6248C141.105 83.2272 126.377 78.8635 115.442 67.9289C104.507 56.9943 100.149 42.2775 102.752 29.4688L153.914 80.6248Z" fill="#8C8C8C"/>
<path d="M40.7598 102.574C40.7598 104.454 58.0508 104.454 58.0508 102.574" stroke="#47484D" stroke-width="3" stroke-miterlimit="10" stroke-linecap="round"/>
<path d="M71.377 102.574C71.377 104.454 88.668 104.454 88.668 102.574" stroke="#47484D" stroke-width="3" stroke-miterlimit="10" stroke-linecap="round"/>
</svg>
