<svg width="160" height="160" viewBox="0 0 160 160" fill="none" xmlns="http://www.w3.org/2000/svg">
<path d="M79 140C112.137 140 139 113.137 139 80C139 46.8629 112.137 20 79 20C45.8629 20 19 46.8629 19 80C19 113.137 45.8629 140 79 140Z" fill="#ACACAC"/>
<path d="M105.584 24.2504V29.8752L112.902 33.5649L105.584 33.3505V38.981L101.06 33.2208L93.7422 33.012L98.2669 29.6665L93.7422 23.9062L101.06 27.5959L105.584 24.2504Z" fill="#666666"/>
<path d="M41.9322 43.2394C42.3996 43.2394 42.7785 42.8605 42.7785 42.3931C42.7785 41.9258 42.3996 41.5469 41.9322 41.5469C41.4648 41.5469 41.0859 41.9258 41.0859 42.3931C41.0859 42.8605 41.4648 43.2394 41.9322 43.2394Z" fill="#787878"/>
<path d="M38.8463 46.38C39.3136 46.38 39.6925 46.0011 39.6925 45.5338C39.6925 45.0664 39.3136 44.6875 38.8463 44.6875C38.3789 44.6875 38 45.0664 38 45.5338C38 46.0011 38.3789 46.38 38.8463 46.38Z" fill="#787878"/>
<path d="M43.1119 47.4816C43.5793 47.4816 43.9581 47.1027 43.9581 46.6353C43.9581 46.1679 43.5793 45.7891 43.1119 45.7891C42.6445 45.7891 42.2656 46.1679 42.2656 46.6353C42.2656 47.1027 42.6445 47.4816 43.1119 47.4816Z" fill="#787878"/>
<path d="M49.6509 37.923C50.1183 37.923 50.4972 37.5441 50.4972 37.0767C50.4972 36.6094 50.1183 36.2305 49.6509 36.2305C49.1836 36.2305 48.8047 36.6094 48.8047 37.0767C48.8047 37.5441 49.1836 37.923 49.6509 37.923Z" fill="#787878"/>
<path d="M45.7759 40.0167C46.2433 40.0167 46.6222 39.6379 46.6222 39.1705C46.6222 38.7031 46.2433 38.3242 45.7759 38.3242C45.3086 38.3242 44.9297 38.7031 44.9297 39.1705C44.9297 39.6379 45.3086 40.0167 45.7759 40.0167Z" fill="#787878"/>
<path d="M49.5201 42.3292C49.9875 42.3292 50.3664 41.9504 50.3664 41.483C50.3664 41.0156 49.9875 40.6367 49.5201 40.6367C49.0527 40.6367 48.6738 41.0156 48.6738 41.483C48.6738 41.9504 49.0527 42.3292 49.5201 42.3292Z" fill="#787878"/>
<path d="M135.461 46.6239C134.75 39.4646 126.942 31.1938 119.777 27.8144C112.617 24.4406 107.918 26.8101 101.938 30.8214L135.461 46.6239Z" fill="#666666"/>
<path d="M101.938 30.8203C101.938 30.8203 122.468 30.7752 131.427 35.9938C140.386 41.2124 143.472 47.2378 135.461 46.6285L101.938 30.8203Z" fill="#969696"/>
<path d="M55.0547 102.523C55.0547 104.402 72.3353 104.402 72.3353 102.523" stroke="#47484D" stroke-width="3" stroke-miterlimit="10" stroke-linecap="round"/>
<path d="M85.6562 102.523C85.6562 104.402 102.937 104.402 102.937 102.523" stroke="#47484D" stroke-width="3" stroke-miterlimit="10" stroke-linecap="round"/>
</svg>
