<svg width="160" height="160" viewBox="0 0 160 160" fill="none" xmlns="http://www.w3.org/2000/svg">
<path d="M79.5 138.336C110.152 138.336 135 113.33 135 82.4843C135 51.6384 110.152 26.6328 79.5 26.6328C48.8482 26.6328 24 51.6384 24 82.4843C24 113.33 48.8482 138.336 79.5 138.336Z" fill="#CBCBCB"/>
<path d="M79.4988 40.218L62.6322 47.2815L68.3414 37.4294L45.7656 34.6408L68.3414 31.8521L62.6322 22L79.4988 29.0635L96.3654 22L90.6562 31.8521L113.232 34.6408L90.6562 37.4294L96.3654 47.2815L79.4988 40.218Z" fill="#666666"/>
<path d="M104.92 107.853C105.352 107.853 105.702 107.5 105.702 107.065C105.702 106.63 105.352 106.277 104.92 106.277C104.487 106.277 104.137 106.63 104.137 107.065C104.137 107.5 104.487 107.853 104.92 107.853Z" fill="#EDEDED"/>
<path d="M102.878 111.4C103.311 111.4 103.661 111.047 103.661 110.612C103.661 110.177 103.311 109.824 102.878 109.824C102.446 109.824 102.096 110.177 102.096 110.612C102.096 111.047 102.446 111.4 102.878 111.4Z" fill="#EDEDED"/>
<path d="M106.955 111.4C107.387 111.4 107.737 111.047 107.737 110.612C107.737 110.177 107.387 109.824 106.955 109.824C106.522 109.824 106.172 110.177 106.172 110.612C106.172 111.047 106.522 111.4 106.955 111.4Z" fill="#EDEDED"/>
<path d="M54.0836 107.853C54.5159 107.853 54.8664 107.5 54.8664 107.065C54.8664 106.63 54.5159 106.277 54.0836 106.277C53.6512 106.277 53.3008 106.63 53.3008 107.065C53.3008 107.5 53.6512 107.853 54.0836 107.853Z" fill="#EDEDED"/>
<path d="M52.0445 111.4C52.4768 111.4 52.8273 111.047 52.8273 110.612C52.8273 110.177 52.4768 109.824 52.0445 109.824C51.6122 109.824 51.2617 110.177 51.2617 110.612C51.2617 111.047 51.6122 111.4 52.0445 111.4Z" fill="#EDEDED"/>
<path d="M56.1168 111.4C56.5491 111.4 56.8996 111.047 56.8996 110.612C56.8996 110.177 56.5491 109.824 56.1168 109.824C55.6845 109.824 55.334 110.177 55.334 110.612C55.334 111.047 55.6845 111.4 56.1168 111.4Z" fill="#EDEDED"/>
<path d="M57.3555 105.617C57.3555 107.366 73.3401 107.366 73.3401 105.617" stroke="#47484D" stroke-width="3" stroke-miterlimit="10" stroke-linecap="round"/>
<path d="M85.6562 105.617C85.6562 107.366 101.641 107.366 101.641 105.617" stroke="#47484D" stroke-width="3" stroke-miterlimit="10" stroke-linecap="round"/>
</svg>
