<svg width="160" height="160" viewBox="0 0 160 160" fill="none" xmlns="http://www.w3.org/2000/svg">
<path d="M106.539 122.988C125.518 104.009 128.589 75.0492 115.904 52.3501C118.913 47.7945 116.864 39.9082 110.84 33.8848C104.822 27.8671 96.9306 25.8123 92.375 28.8212C69.6758 16.1365 40.7219 19.2075 21.7373 38.1864C2.76393 57.1598 -0.312669 86.0968 12.355 108.796C9.21634 113.329 11.2542 121.311 17.3284 127.391C23.4082 133.471 31.3905 135.503 35.9235 132.364C58.617 145.032 87.5596 141.955 106.533 122.982L106.539 122.988Z" fill="#E6E6E6"/>
<path d="M101.232 36.45C101.232 27.3669 108.599 20 117.682 20" stroke="#C5C6C5" stroke-width="8" stroke-miterlimit="10"/>
<path d="M99.2061 118.162C99.6738 118.162 100.053 117.783 100.053 117.316C100.053 116.848 99.6738 116.469 99.2061 116.469C98.7385 116.469 98.3594 116.848 98.3594 117.316C98.3594 117.783 98.7385 118.162 99.2061 118.162Z" fill="#B4B4B4"/>
<path d="M96.1183 121.307C96.5859 121.307 96.965 120.928 96.965 120.46C96.965 119.992 96.5859 119.613 96.1183 119.613C95.6506 119.613 95.2715 119.992 95.2715 120.46C95.2715 120.928 95.6506 121.307 96.1183 121.307Z" fill="#B4B4B4"/>
<path d="M100.386 122.408C100.853 122.408 101.233 122.029 101.233 121.562C101.233 121.094 100.853 120.715 100.386 120.715C99.9182 120.715 99.5391 121.094 99.5391 121.562C99.5391 122.029 99.9182 122.408 100.386 122.408Z" fill="#B4B4B4"/>
<path d="M105.946 111.084C106.414 111.084 106.793 110.705 106.793 110.237C106.793 109.77 106.414 109.391 105.946 109.391C105.479 109.391 105.1 109.77 105.1 110.237C105.1 110.705 105.479 111.084 105.946 111.084Z" fill="#B4B4B4"/>
<path d="M102.858 114.229C103.326 114.229 103.705 113.85 103.705 113.382C103.705 112.914 103.326 112.535 102.858 112.535C102.391 112.535 102.012 112.914 102.012 113.382C102.012 113.85 102.391 114.229 102.858 114.229Z" fill="#B4B4B4"/>
<path d="M107.126 115.334C107.594 115.334 107.973 114.955 107.973 114.487C107.973 114.02 107.594 113.641 107.126 113.641C106.658 113.641 106.279 114.02 106.279 114.487C106.279 114.955 106.658 115.334 107.126 115.334Z" fill="#B4B4B4"/>
<path d="M26.7452 46.5217C27.2129 46.5217 27.592 46.1426 27.592 45.6749C27.592 45.2072 27.2129 44.8281 26.7452 44.8281C26.2776 44.8281 25.8984 45.2072 25.8984 45.6749C25.8984 46.1426 26.2776 46.5217 26.7452 46.5217Z" fill="#B4B4B4"/>
<path d="M29.8331 43.3693C30.3008 43.3693 30.6799 42.9902 30.6799 42.5226C30.6799 42.0549 30.3008 41.6758 29.8331 41.6758C29.3654 41.6758 28.9863 42.0549 28.9863 42.5226C28.9863 42.9902 29.3654 43.3693 29.8331 43.3693Z" fill="#B4B4B4"/>
<path d="M25.5655 42.2678C26.0332 42.2678 26.4123 41.8886 26.4123 41.421C26.4123 40.9533 26.0332 40.5742 25.5655 40.5742C25.0979 40.5742 24.7188 40.9533 24.7188 41.421C24.7188 41.8886 25.0979 42.2678 25.5655 42.2678Z" fill="#B4B4B4"/>
<path d="M20.005 53.5998C20.4726 53.5998 20.8517 53.2207 20.8517 52.753C20.8517 52.2854 20.4726 51.9062 20.005 51.9062C19.5373 51.9062 19.1582 52.2854 19.1582 52.753C19.1582 53.2207 19.5373 53.5998 20.005 53.5998Z" fill="#B4B4B4"/>
<path d="M23.0929 50.4474C23.5605 50.4474 23.9396 50.0683 23.9396 49.6007C23.9396 49.133 23.5605 48.7539 23.0929 48.7539C22.6252 48.7539 22.2461 49.133 22.2461 49.6007C22.2461 50.0683 22.6252 50.4474 23.0929 50.4474Z" fill="#B4B4B4"/>
<path d="M18.8253 49.3498C19.2929 49.3498 19.6721 48.9707 19.6721 48.503C19.6721 48.0354 19.2929 47.6562 18.8253 47.6562C18.3576 47.6562 17.9785 48.0354 17.9785 48.503C17.9785 48.9707 18.3576 49.3498 18.8253 49.3498Z" fill="#B4B4B4"/>
<path d="M153.637 80.6212L102.475 29.4649C115.278 26.8568 130.012 31.2205 140.941 42.1495C151.881 53.0898 156.239 67.818 153.637 80.6212Z" fill="#ADADAD"/>
<path d="M153.636 80.6212C140.828 83.2236 126.099 78.8599 115.165 67.9252C104.23 56.9906 99.8721 42.2737 102.474 29.4648L153.636 80.6212Z" fill="#C5C6C5"/>
<path d="M40.4805 106.5C40.4805 108.38 57.7716 108.38 57.7716 106.5" stroke="#47484D" stroke-width="3" stroke-miterlimit="10" stroke-linecap="round"/>
<path d="M71.0977 106.5C71.0977 108.38 88.3887 108.38 88.3887 106.5" stroke="#47484D" stroke-width="3" stroke-miterlimit="10" stroke-linecap="round"/>
</svg>
