<svg width="160" height="160" viewBox="0 0 160 160" fill="none" xmlns="http://www.w3.org/2000/svg">
<path d="M80.0039 135.008C110.382 135.008 135.008 110.382 135.008 80.0039C135.008 49.6261 110.382 25 80.0039 25C49.6261 25 25 49.6261 25 80.0039C25 110.382 49.6261 135.008 80.0039 135.008Z" fill="#E3E3E3"/>
<path d="M104.374 28.8936V34.0501L111.082 37.4325L104.374 37.236V42.3976L100.226 37.1171L93.5176 36.9257L97.6655 33.8587L93.5176 28.5781L100.226 31.9606L104.374 28.8936Z" fill="#666666"/>
<path d="M46.0238 46.3016C46.4523 46.3016 46.7996 45.9543 46.7996 45.5258C46.7996 45.0973 46.4523 44.75 46.0238 44.75C45.5954 44.75 45.248 45.0973 45.248 45.5258C45.248 45.9543 45.5954 46.3016 46.0238 46.3016Z" fill="#787878"/>
<path d="M43.1938 49.1844C43.6222 49.1844 43.9696 48.8371 43.9696 48.4086C43.9696 47.9801 43.6222 47.6328 43.1938 47.6328C42.7653 47.6328 42.418 47.9801 42.418 48.4086C42.418 48.8371 42.7653 49.1844 43.1938 49.1844Z" fill="#787878"/>
<path d="M47.1039 50.1922C47.5324 50.1922 47.8797 49.8449 47.8797 49.4164C47.8797 48.988 47.5324 48.6406 47.1039 48.6406C46.6755 48.6406 46.3281 48.988 46.3281 49.4164C46.3281 49.8449 46.6755 50.1922 47.1039 50.1922Z" fill="#787878"/>
<path d="M53.1 41.4344C53.5285 41.4344 53.8758 41.0871 53.8758 40.6586C53.8758 40.2301 53.5285 39.8828 53.1 39.8828C52.6716 39.8828 52.3242 40.2301 52.3242 40.6586C52.3242 41.0871 52.6716 41.4344 53.1 41.4344Z" fill="#787878"/>
<path d="M49.5453 43.3524C49.9738 43.3524 50.3211 43.005 50.3211 42.5766C50.3211 42.1481 49.9738 41.8008 49.5453 41.8008C49.1169 41.8008 48.7695 42.1481 48.7695 42.5766C48.7695 43.005 49.1169 43.3524 49.5453 43.3524Z" fill="#787878"/>
<path d="M52.9789 45.4735C53.4074 45.4735 53.7547 45.1261 53.7547 44.6977C53.7547 44.2692 53.4074 43.9219 52.9789 43.9219C52.5505 43.9219 52.2031 44.2692 52.2031 44.6977C52.2031 45.1261 52.5505 45.4735 52.9789 45.4735Z" fill="#787878"/>
<path d="M131.763 49.2204C131.111 42.6572 123.953 35.0751 117.385 31.9771C110.822 28.8842 106.514 31.0564 101.031 34.7337L131.763 49.2204Z" fill="#666666"/>
<path d="M101.031 34.7344C101.031 34.7344 119.852 34.693 128.065 39.4771C136.278 44.2612 139.107 49.7848 131.763 49.2263L101.031 34.7344Z" fill="#969696"/>
<path d="M58.0527 101.301C58.0527 103.023 73.8945 103.023 73.8945 101.301" stroke="#47484D" stroke-width="3" stroke-miterlimit="10" stroke-linecap="round"/>
<path d="M86.1074 101.301C86.1074 103.023 101.949 103.023 101.949 101.301" stroke="#47484D" stroke-width="3" stroke-miterlimit="10" stroke-linecap="round"/>
</svg>
