<svg width="160" height="160" viewBox="0 0 160 160" fill="none" xmlns="http://www.w3.org/2000/svg">
<path d="M98.9889 127.003C98.9889 135.983 91.426 143.815 80.181 148C68.936 143.815 61.3672 135.977 61.3672 127.003C61.3672 118.029 68.936 110.197 80.181 106.012C91.426 110.197 98.9889 118.035 98.9889 127.003Z" fill="#666666"/>
<path d="M98.9889 85.007C98.9889 93.9866 91.426 101.819 80.181 106.004C68.936 101.819 61.3672 93.9807 61.3672 85.007C61.3672 76.0333 68.936 68.201 80.181 64.0156C91.426 68.201 98.9889 76.0391 98.9889 85.007Z" fill="#666666"/>
<path d="M112.761 93.8867C126.693 93.8867 138.857 98.757 145.355 106.004C138.857 113.251 126.693 118.127 112.761 118.127C98.8296 118.127 86.6773 113.251 80.1797 106.004C86.6773 98.757 98.8413 93.8867 112.761 93.8867Z" fill="#666666"/>
<path d="M47.5817 93.8867C61.5135 93.8867 73.6775 98.757 80.1751 106.004C73.6775 113.251 61.5135 118.127 47.5817 118.127C33.6499 118.127 21.4976 113.251 15 106.004C21.4976 98.757 33.6616 93.8867 47.5817 93.8867Z" fill="#666666"/>
<path d="M107.628 67.8808C102.483 87.0927 92.2796 102.915 80.18 112.597C74.5429 98.1562 73.6063 79.3658 78.7576 60.1422C83.9088 40.9128 94.1177 25.0961 106.217 15.4258C111.854 29.861 112.779 48.6514 107.628 67.8808Z" fill="#C9C9C9"/>
<path d="M81.5909 60.1461C86.7363 79.358 85.8173 98.1601 80.1801 112.601C68.0747 102.919 57.8717 87.1141 52.7204 67.8847C47.5692 48.6553 48.4999 29.8532 54.1429 15.4297C66.2483 25.1117 76.4396 40.9226 81.5909 60.1461Z" fill="#C9C9C9"/>
<path d="M67.9616 61.5666C77.907 78.7882 81.8817 97.1922 80.1724 112.599C65.9772 106.377 52.0278 93.7503 42.0765 76.5111C32.1252 59.2719 28.1564 40.8679 29.8715 25.4727C44.0667 31.6951 58.0103 44.3274 67.9616 61.5607V61.5666Z" fill="#D9D9D9"/>
<path d="M118.265 76.5072C108.319 93.7288 94.3757 106.379 80.1746 112.595C78.4654 97.1883 82.4225 78.796 92.3796 61.5568C102.331 44.3177 116.286 31.6795 130.476 25.4688C132.185 40.8757 128.216 59.2622 118.265 76.5013V76.5072Z" fill="#D9D9D9"/>
<path d="M95.1136 62.3009C95.1136 82.1917 89.3594 100.116 80.175 112.602C70.9905 100.116 65.2246 82.2093 65.2246 62.3009C65.2246 42.3924 70.9905 24.4684 80.175 12C89.3594 24.4859 95.1136 42.3924 95.1136 62.3009Z" fill="#E1E1E1"/>
<path d="M66.8262 86.0078C66.8262 87.0264 76.1804 87.0264 76.1804 86.0078" stroke="#47484D" stroke-width="3" stroke-miterlimit="10" stroke-linecap="round"/>
<path d="M83.3926 86.0078C83.3926 87.0264 92.7468 87.0264 92.7468 86.0078" stroke="#47484D" stroke-width="3" stroke-miterlimit="10" stroke-linecap="round"/>
</svg>
