<svg width="160" height="160" viewBox="0 0 160 160" fill="none" xmlns="http://www.w3.org/2000/svg">
<path d="M79.5 138.602C110.152 138.602 135 113.753 135 83.1016C135 52.4497 110.152 27.6016 79.5 27.6016C48.8482 27.6016 24 52.4497 24 83.1016C24 113.753 48.8482 138.602 79.5 138.602Z" fill="#8D8D8D"/>
<path d="M79.4988 41.0982L62.6322 48.1224L68.3414 38.3323L45.7656 35.5612L68.3414 32.7901L62.6322 23L79.4988 30.019L96.3653 23L90.6562 32.7901L113.232 35.5612L90.6562 38.3323L96.3653 48.1224L79.4988 41.0982Z" fill="#666666"/>
<path d="M104.92 108.308C105.352 108.308 105.702 107.957 105.702 107.525C105.702 107.093 105.352 106.742 104.92 106.742C104.487 106.742 104.137 107.093 104.137 107.525C104.137 107.957 104.487 108.308 104.92 108.308Z" fill="#ECECEC"/>
<path d="M102.88 111.835C103.313 111.835 103.663 111.485 103.663 111.052C103.663 110.62 103.313 110.27 102.88 110.27C102.448 110.27 102.098 110.62 102.098 111.052C102.098 111.485 102.448 111.835 102.88 111.835Z" fill="#ECECEC"/>
<path d="M106.955 111.835C107.387 111.835 107.737 111.485 107.737 111.052C107.737 110.62 107.387 110.27 106.955 110.27C106.522 110.27 106.172 110.62 106.172 111.052C106.172 111.485 106.522 111.835 106.955 111.835Z" fill="#ECECEC"/>
<path d="M54.0855 108.308C54.5179 108.308 54.8683 107.957 54.8683 107.525C54.8683 107.093 54.5179 106.742 54.0855 106.742C53.6532 106.742 53.3027 107.093 53.3027 107.525C53.3027 107.957 53.6532 108.308 54.0855 108.308Z" fill="#ECECEC"/>
<path d="M52.0445 111.835C52.4768 111.835 52.8273 111.485 52.8273 111.052C52.8273 110.62 52.4768 110.27 52.0445 110.27C51.6122 110.27 51.2617 110.62 51.2617 111.052C51.2617 111.485 51.6122 111.835 52.0445 111.835Z" fill="#ECECEC"/>
<path d="M56.1207 111.835C56.553 111.835 56.9035 111.485 56.9035 111.052C56.9035 110.62 56.553 110.27 56.1207 110.27C55.6884 110.27 55.3379 110.62 55.3379 111.052C55.3379 111.485 55.6884 111.835 56.1207 111.835Z" fill="#ECECEC"/>
<path d="M57.3574 105.438C57.3574 107.175 73.342 107.175 73.342 105.438" stroke="#47484D" stroke-width="3" stroke-miterlimit="10" stroke-linecap="round"/>
<path d="M85.6582 105.438C85.6582 107.175 101.643 107.175 101.643 105.438" stroke="#47484D" stroke-width="3" stroke-miterlimit="10" stroke-linecap="round"/>
</svg>
