<svg width="113" height="100" viewBox="0 0 113 100" fill="none" xmlns="http://www.w3.org/2000/svg">
<path d="M20.5307 52.6452C23.0759 53.4056 24.5223 56.0768 23.7615 58.614C23.0002 61.1528 20.3171 62.5961 17.7687 61.8377L19.1472 57.2406C17.7731 61.823 17.7661 61.8367 17.7635 61.8359C17.7625 61.8356 17.7597 61.835 17.7578 61.8344C17.754 61.8333 17.7501 61.8319 17.7459 61.8306C17.7375 61.8281 17.7281 61.8253 17.7182 61.8222C17.6983 61.8161 17.6754 61.809 17.6496 61.8008C17.5978 61.7844 17.534 61.7636 17.4591 61.7383C17.3093 61.6875 17.1142 61.6182 16.8801 61.5281C16.4124 61.348 15.7844 61.0829 15.0454 60.7139C13.5722 59.9785 11.6242 58.8133 9.62115 57.0554C5.54176 53.4754 1.40551 47.5743 0.465169 38.414C0.194575 35.778 2.12019 33.4225 4.76604 33.1529C7.41188 32.8833 9.77603 34.8018 10.0466 37.4377C10.7137 43.9361 13.5233 47.6924 15.9876 49.8551C17.2564 50.9685 18.4798 51.696 19.36 52.1354C19.7977 52.3539 20.1422 52.4969 20.3526 52.5779C20.4573 52.6182 20.5277 52.6428 20.5586 52.6533C20.5664 52.6559 20.5717 52.6575 20.5743 52.6583C20.5717 52.6575 20.5663 52.656 20.5582 52.6536C20.5542 52.6523 20.5496 52.6507 20.5442 52.649C20.5415 52.6482 20.5385 52.6474 20.5354 52.6465C20.5339 52.646 20.5314 52.6454 20.5307 52.6452Z" fill="#FA5332"/>
<path d="M86.5776 57.602C89.2186 57.3036 91.6025 59.1934 91.9047 61.8235C91.9046 61.8227 91.9043 61.8202 91.9042 61.8186C91.9038 61.8155 91.9033 61.8123 91.903 61.8095C91.9023 61.804 91.9017 61.7992 91.9012 61.795C91.9002 61.7867 91.8995 61.7811 91.8991 61.7783C91.8984 61.773 91.8991 61.7787 91.9015 61.7947C91.9064 61.8268 91.9183 61.9002 91.9397 62.01C91.9826 62.2306 92.0631 62.5937 92.2017 63.0615C92.4806 64.0022 92.9833 65.3302 93.8595 66.7709C95.5614 69.5692 98.7768 72.9872 105.079 74.7881C107.636 75.5186 109.114 78.1754 108.381 80.7224C107.648 83.2695 104.981 84.7422 102.424 84.0116C93.5397 81.473 88.4393 76.3755 85.6221 71.7434C84.2388 69.4689 83.4311 67.3531 82.9645 65.7786C82.7304 64.9888 82.5795 64.3262 82.4841 63.8358C82.4364 63.5903 82.4023 63.3868 82.3786 63.2309C82.3668 63.153 82.3576 63.0868 82.3504 63.0331C82.3469 63.0063 82.3437 62.9826 82.3412 62.962C82.3399 62.9517 82.3388 62.942 82.3378 62.9333C82.3373 62.929 82.3368 62.9249 82.3363 62.921C82.3361 62.9191 82.336 62.9162 82.3359 62.9152C82.3356 62.9125 82.3456 62.9086 87.1202 62.3692L82.3351 62.9098C82.0354 60.277 83.9349 57.9005 86.5776 57.602Z" fill="#FA5332"/>
<path d="M56.4888 88.0591C79.1172 88.0591 97.4611 69.7837 97.4611 47.24C97.4611 24.6962 79.1172 6.4209 56.4888 6.4209C33.8605 6.4209 15.5166 24.6962 15.5166 47.24C15.5166 69.7837 33.8605 88.0591 56.4888 88.0591Z" fill="#FA5332"/>
<path d="M89.5007 30.4713L94.6786 45.2253L82.3695 29.7152L71.9791 32.21L74.4833 21.8585L58.915 9.5993L73.7282 14.754L68.5503 0L80.8593 15.5101L91.2498 13.0153L88.7456 23.3669L104.314 35.6298L89.5007 30.4713Z" fill="#00770E"/>
<path d="M35.4263 68.4928C37.9051 68.4928 39.9145 66.4908 39.9145 64.0213C39.9145 61.5518 37.9051 59.5498 35.4263 59.5498C32.9475 59.5498 30.938 61.5518 30.938 64.0213C30.938 66.4908 32.9475 68.4928 35.4263 68.4928Z" fill="#FB7055"/>
<path d="M76.2905 68.4928C78.7693 68.4928 80.7788 66.4908 80.7788 64.0213C80.7788 61.5518 78.7693 59.5498 76.2905 59.5498C73.8117 59.5498 71.8022 61.5518 71.8022 64.0213C71.8022 66.4908 73.8117 68.4928 76.2905 68.4928Z" fill="#FB7055"/>
<path d="M46.4139 67.0872C51.6289 67.0872 55.8566 62.8754 55.8566 57.6799C55.8566 52.4843 51.6289 48.2725 46.4139 48.2725C41.1988 48.2725 36.9712 52.4843 36.9712 57.6799C36.9712 62.8754 41.1988 67.0872 46.4139 67.0872Z" fill="#FAFAFA"/>
<path d="M46.4138 64.8922C50.4118 64.8922 53.6528 61.6632 53.6528 57.6802C53.6528 53.6972 50.4118 50.4683 46.4138 50.4683C42.4158 50.4683 39.1748 53.6972 39.1748 57.6802C39.1748 61.6632 42.4158 64.8922 46.4138 64.8922Z" fill="#121212"/>
<path d="M65.3025 67.0872C70.5176 67.0872 74.7452 62.8754 74.7452 57.6799C74.7452 52.4843 70.5176 48.2725 65.3025 48.2725C60.0875 48.2725 55.8599 52.4843 55.8599 57.6799C55.8599 62.8754 60.0875 67.0872 65.3025 67.0872Z" fill="#FAFAFA"/>
<path d="M65.3034 64.8922C69.3014 64.8922 72.5425 61.6632 72.5425 57.6802C72.5425 53.6972 69.3014 50.4683 65.3034 50.4683C61.3055 50.4683 58.0645 53.6972 58.0645 57.6802C58.0645 61.6632 61.3055 64.8922 65.3034 64.8922Z" fill="#121212"/>
<path d="M40.4461 84.1294V97.2905L37.73 100H54.2845V84.1294" fill="#FA5332"/>
<path d="M71.2706 84.1294V97.2905L73.9867 100H57.4321V84.1294" fill="#FA5332"/>
</svg>
