<svg width="106" height="36" viewBox="0 0 106 36" fill="none" xmlns="http://www.w3.org/2000/svg">
<path d="M55.9441 9.7441C55.9441 11.5945 55.7101 13.2007 55.2402 14.5591C54.7703 15.9175 54.1016 17.0721 53.234 18.021C52.3665 18.9699 51.3282 19.7379 50.1192 20.3231C48.9102 20.9083 47.5728 21.3652 46.1069 21.6938C44.6409 22.0224 43.0571 22.2438 41.3554 22.3615C40.1183 22.4477 38.8477 22.5004 37.5437 22.525C36.7271 22.539 36.0584 21.8783 36.0584 21.0629V16.1776C36.0584 15.3868 36.6902 14.7384 37.4821 14.7173C40.5177 14.6364 42.6735 14.2832 43.9511 13.6576C44.4861 13.3958 44.2995 12.5909 43.703 12.5909C41.8534 12.5909 38.7227 12.5909 37.1002 12.5909C36.523 12.5909 36.0566 12.1235 36.0566 11.5471V6.24882C36.0566 5.44222 36.7113 4.78674 37.5208 4.78674H54.4782C55.286 4.78674 55.9424 5.44046 55.9424 6.24882V9.74234L55.9441 9.7441ZM66.517 35.9982H57.9362C57.1285 35.9982 56.4721 35.3445 56.4721 34.5361V31.6225C56.4721 31.3607 56.2591 31.1481 55.9969 31.1481H37.5226C36.7148 31.1481 36.0584 30.4943 36.0584 29.686V24.4914C36.0584 23.6848 36.713 23.0293 37.5226 23.0293H66.517C67.3248 23.0293 67.9812 23.683 67.9812 24.4914V34.5361C67.9812 35.3428 67.3265 35.9982 66.517 35.9982ZM66.517 22.1858H58.2882C57.4804 22.1858 56.824 21.5321 56.824 20.7237V6.25058C56.824 5.44398 57.4787 4.7885 58.2882 4.7885H66.517C67.3248 4.7885 67.9812 5.44222 67.9812 6.25058V8.51399H68.9455C69.7533 8.51399 70.4097 9.1677 70.4097 9.97606V17.3146C70.4097 18.1212 69.755 18.7766 68.9455 18.7766H67.9812V20.7237C67.9812 21.5303 67.3265 22.1858 66.517 22.1858Z" fill="#FB7055"/>
<path d="M91.0702 20.4898C91.0702 21.4968 90.2238 22.2964 89.2154 22.2472C88.8863 22.2313 88.5608 22.2102 88.2369 22.1856C87.3095 22.1154 86.4191 21.9871 85.562 21.799C84.705 21.611 83.9026 21.3369 83.1511 20.9731C82.5757 20.6954 82.0495 20.358 81.5708 19.9644C81.3227 19.7588 80.9672 19.7588 80.7191 19.9644C80.2422 20.358 79.7213 20.6954 79.1564 20.9731C78.4173 21.3369 77.6201 21.611 76.7631 21.799C75.906 21.9871 75.0156 22.1154 74.0882 22.1856C73.7644 22.2102 73.437 22.2313 73.1097 22.2472C72.1013 22.2964 71.2549 21.4968 71.2549 20.4898V16.2706C71.2549 15.4218 71.8638 14.6995 72.6979 14.5414C73.1924 14.4482 73.6253 14.3024 74.0002 14.102C74.6126 13.7769 75.012 13.2199 75.1986 12.4308C75.2426 12.2428 75.0948 12.0636 74.9012 12.0636H73.0164C72.0433 12.0636 71.2549 11.2763 71.2549 10.3045V6.54739C71.2549 5.5756 72.0433 4.78833 73.0164 4.78833H89.3087C90.2818 4.78833 91.0702 5.5756 91.0702 6.54739V10.3045C91.0702 11.2763 90.2818 12.0636 89.3087 12.0636H87.3958C87.2004 12.0636 87.0508 12.2481 87.1001 12.4379C87.3042 13.2216 87.7125 13.7769 88.3232 14.102C88.698 14.3024 89.1309 14.4482 89.6254 14.5414C90.4596 14.6995 91.0685 15.4218 91.0685 16.2706V20.4898H91.0702ZM101.416 35.9981H93.4301C92.4569 35.9981 91.6686 35.2108 91.6686 34.239V31.7243C91.6686 31.4062 91.4099 31.1479 91.0913 31.1479H73.0164C72.0433 31.1479 71.2549 30.3606 71.2549 29.3888V24.7882C71.2549 23.8164 72.0433 23.0292 73.0164 23.0292H101.416C102.389 23.0292 103.178 23.8164 103.178 24.7882V34.239C103.178 35.2108 102.389 35.9981 101.416 35.9981ZM101.416 22.1856H93.7821C92.8089 22.1856 92.0205 21.3984 92.0205 20.4266V6.54739C92.0205 5.5756 92.8089 4.78833 93.7821 4.78833H101.416C102.389 4.78833 103.178 5.5756 103.178 6.54739V8.51381H103.845C104.818 8.51381 105.606 9.30109 105.606 10.2729V17.0174C105.606 17.9892 104.818 18.7765 103.845 18.7765H103.178V20.4266C103.178 21.3984 102.389 22.1856 101.416 22.1856Z" fill="#FB7055"/>
<path d="M31.5709 25.9763C29.98 26.4438 28.2942 26.8374 26.5308 27.1467C25.6105 27.3347 24.6619 27.4911 23.694 27.6265V24.6127H31.087C32.4473 24.6127 33.5489 23.5126 33.5489 22.1542V7.24875C33.5489 5.89036 32.4473 4.79028 31.087 4.79028H3.20821C1.84789 4.79028 0.746253 5.89036 0.746253 7.24875V22.1542C0.746253 23.5126 1.84789 24.6127 3.20821 24.6127H10.6011V27.695C8.20604 27.3892 5.9359 26.9165 3.84174 26.2979C3.46514 26.1995 3.09383 26.0958 2.72779 25.9886C1.67015 25.6794 0.605469 26.4455 0.605469 27.5298V31.8668C0.605469 32.7683 1.19852 33.5661 2.0749 33.8385C6.4656 35.2092 11.6306 36 17.1634 36C22.6962 36 27.8366 35.2127 32.2203 33.8473C33.0966 33.5749 33.6915 32.7771 33.6915 31.8756V27.5193C33.6915 26.4368 32.6285 25.6671 31.5727 25.9781L31.5709 25.9763ZM11.5162 13.5188H22.7789C23.1679 13.5188 23.4829 13.8334 23.4829 14.2217C23.4829 14.6101 23.1679 14.9247 22.7789 14.9247H11.5162C11.1273 14.9247 10.8123 14.6101 10.8123 14.2217C10.8123 13.8334 11.1273 13.5188 11.5162 13.5188Z" fill="#FA5332"/>
<path d="M20.9923 4.69718L25.8729 7.04867L19.0662 6.25327L17.14 9.39726L15.2139 6.25327L8.40723 7.04867L13.2878 4.69718L8.40723 2.34859L15.2139 3.14399L17.14 0L19.0662 3.14399L25.8729 2.34859L20.9923 4.69718Z" fill="#00770E"/>
</svg>
