<svg width="84" height="84" viewBox="0 0 84 84" fill="none" xmlns="http://www.w3.org/2000/svg">
<g clip-path="url(#clip0_6623_65888)">
<rect width="84" height="84" rx="8" fill="#FAFAFA"/>
<path d="M42.0001 17.9961C66.4192 17.9962 86.215 37.7918 86.215 62.2109C86.2147 86.6299 66.4191 106.425 42.0001 106.425C17.5811 106.425 -2.21453 86.6299 -2.21474 62.2109C-2.21474 37.7918 17.581 17.9961 42.0001 17.9961Z" fill="#FA5332"/>
<path d="M31.9004 77.5358C37.4366 77.5358 41.9246 73.0543 41.9246 67.5262C41.9246 61.9981 37.4366 57.5166 31.9004 57.5166C26.3642 57.5166 21.8762 61.9981 21.8762 67.5262C21.8762 73.0543 26.3642 77.5358 31.9004 77.5358Z" fill="#FAFAFA"/>
<path d="M31.9005 75.2007C36.1447 75.2007 39.5852 71.7651 39.5852 67.5271C39.5852 63.2891 36.1447 59.8535 31.9005 59.8535C27.6563 59.8535 24.2157 63.2891 24.2157 67.5271C24.2157 71.7651 27.6563 75.2007 31.9005 75.2007Z" fill="#121212"/>
<path d="M51.949 77.5358C57.4852 77.5358 61.9732 73.0543 61.9732 67.5262C61.9732 61.9981 57.4852 57.5166 51.949 57.5166C46.4129 57.5166 41.9249 61.9981 41.9249 67.5262C41.9249 73.0543 46.4129 77.5358 51.949 77.5358Z" fill="#FAFAFA"/>
<path d="M51.9491 75.2007C56.1933 75.2007 59.6339 71.7651 59.6339 67.5271C59.6339 63.2891 56.1933 59.8535 51.9491 59.8535C47.7049 59.8535 44.2643 63.2891 44.2643 67.5271C44.2643 71.7651 47.7049 75.2007 51.9491 75.2007Z" fill="#121212"/>
<path d="M62.8234 75.1733C63.2351 75.1733 63.5688 74.84 63.5688 74.4289C63.5688 74.0178 63.2351 73.6846 62.8234 73.6846C62.4117 73.6846 62.0779 74.0178 62.0779 74.4289C62.0779 74.84 62.4117 75.1733 62.8234 75.1733Z" fill="#F8EDAD"/>
<path d="M20.3323 75.1733C20.744 75.1733 21.0778 74.84 21.0778 74.4289C21.0778 74.0178 20.744 73.6846 20.3323 73.6846C19.9206 73.6846 19.5869 74.0178 19.5869 74.4289C19.5869 74.84 19.9206 75.1733 20.3323 75.1733Z" fill="#F8EDAD"/>
<path d="M60.8355 77.6557C61.2472 77.6557 61.581 77.3225 61.581 76.9114C61.581 76.5003 61.2472 76.167 60.8355 76.167C60.4238 76.167 60.0901 76.5003 60.0901 76.9114C60.0901 77.3225 60.4238 77.6557 60.8355 77.6557Z" fill="#F8EDAD"/>
<path d="M18.3444 77.6557C18.7561 77.6557 19.0899 77.3225 19.0899 76.9114C19.0899 76.5003 18.7561 76.167 18.3444 76.167C17.9327 76.167 17.599 76.5003 17.599 76.9114C17.599 77.3225 17.9327 77.6557 18.3444 77.6557Z" fill="#F8EDAD"/>
<path d="M64.3144 77.6557C64.7261 77.6557 65.0599 77.3225 65.0599 76.9114C65.0599 76.5003 64.7261 76.167 64.3144 76.167C63.9027 76.167 63.569 76.5003 63.569 76.9114C63.569 77.3225 63.9027 77.6557 64.3144 77.6557Z" fill="#F8EDAD"/>
<path d="M21.8236 77.6557C22.2353 77.6557 22.569 77.3225 22.569 76.9114C22.569 76.5003 22.2353 76.167 21.8236 76.167C21.4119 76.167 21.0781 76.5003 21.0781 76.9114C21.0781 77.3225 21.4119 77.6557 21.8236 77.6557Z" fill="#F8EDAD"/>
<path d="M42.0115 28.5928L28.7932 34.0856L33.2633 26.4242L15.5749 24.2557L33.2633 22.0912L28.7932 14.4258L42.0115 19.9227L55.2298 14.4258L50.7555 22.0912L68.4481 24.2557L50.7555 26.4242L55.2298 34.0856L42.0115 28.5928Z" fill="#00770E"/>
</g>
<defs>
<clipPath id="clip0_6623_65888">
<rect width="84" height="84" rx="8" fill="white"/>
</clipPath>
</defs>
</svg>
