<svg width="120" height="120" viewBox="0 0 120 120" fill="none" xmlns="http://www.w3.org/2000/svg">
<rect x="1.5" y="1.5" width="117" height="117" rx="58.5" fill="#E6E8EB"/>
<rect x="1.5" y="1.5" width="117" height="117" rx="58.5" stroke="#CACDD2" stroke-width="3"/>
<path d="M59.9053 30.0469C90.1292 30.0469 114.638 54.4759 114.712 84.6387C105.31 105.488 84.3441 120 59.9883 120C35.4894 120 14.4206 105.317 5.10059 84.2705C5.37178 54.2773 29.8044 30.0469 59.9053 30.0469Z" fill="#FA5332"/>
<path d="M47.2719 105.031C54.248 105.031 59.9032 99.3835 59.9032 92.4176C59.9032 85.4517 54.248 79.8047 47.2719 79.8047C40.2958 79.8047 34.6406 85.4517 34.6406 92.4176C34.6406 99.3835 40.2958 105.031 47.2719 105.031Z" fill="#FAFAFA"/>
<path d="M47.2655 102.085C52.6135 102.085 56.9489 97.7557 56.9489 92.4155C56.9489 87.0752 52.6135 82.7461 47.2655 82.7461C41.9175 82.7461 37.582 87.0752 37.582 92.4155C37.582 97.7557 41.9175 102.085 47.2655 102.085Z" fill="#121212"/>
<path d="M72.5375 105.031C79.5136 105.031 85.1688 99.3835 85.1688 92.4176C85.1688 85.4517 79.5136 79.8047 72.5375 79.8047C65.5615 79.8047 59.9062 85.4517 59.9062 92.4176C59.9062 99.3835 65.5615 105.031 72.5375 105.031Z" fill="#FAFAFA"/>
<path d="M72.5311 102.085C77.8792 102.085 82.2146 97.7557 82.2146 92.4155C82.2146 87.0752 77.8792 82.7461 72.5311 82.7461C67.1831 82.7461 62.8477 87.0752 62.8477 92.4155C62.8477 97.7557 67.1831 102.085 72.5311 102.085Z" fill="#121212"/>
<path d="M86.2401 102.048C86.7589 102.048 87.1795 101.628 87.1795 101.11C87.1795 100.592 86.7589 100.172 86.2401 100.172C85.7213 100.172 85.3008 100.592 85.3008 101.11C85.3008 101.628 85.7213 102.048 86.2401 102.048Z" fill="#F8EDAD"/>
<path d="M32.6971 102.048C33.2159 102.048 33.6365 101.628 33.6365 101.11C33.6365 100.592 33.2159 100.172 32.6971 100.172C32.1784 100.172 31.7578 100.592 31.7578 101.11C31.7578 101.628 32.1784 102.048 32.6971 102.048Z" fill="#F8EDAD"/>
<path d="M83.7323 105.177C84.2511 105.177 84.6716 104.757 84.6716 104.239C84.6716 103.721 84.2511 103.301 83.7323 103.301C83.2135 103.301 82.793 103.721 82.793 104.239C82.793 104.757 83.2135 105.177 83.7323 105.177Z" fill="#F8EDAD"/>
<path d="M30.1893 105.177C30.7081 105.177 31.1287 104.757 31.1287 104.239C31.1287 103.721 30.7081 103.301 30.1893 103.301C29.6706 103.301 29.25 103.721 29.25 104.239C29.25 104.757 29.6706 105.177 30.1893 105.177Z" fill="#F8EDAD"/>
<path d="M88.1151 105.177C88.6339 105.177 89.0545 104.757 89.0545 104.239C89.0545 103.721 88.6339 103.301 88.1151 103.301C87.5963 103.301 87.1758 103.721 87.1758 104.239C87.1758 104.757 87.5963 105.177 88.1151 105.177Z" fill="#F8EDAD"/>
<path d="M34.5721 105.177C35.0909 105.177 35.5115 104.757 35.5115 104.239C35.5115 103.721 35.0909 103.301 34.5721 103.301C34.0534 103.301 33.6328 103.721 33.6328 104.239C33.6328 104.757 34.0534 105.177 34.5721 105.177Z" fill="#F8EDAD"/>
<path d="M60.0077 43.3516L43.3515 50.273L48.9843 40.619L26.6953 37.8865L48.9843 35.1591L43.3515 25.5L60.0077 32.4266L76.6639 25.5L71.0259 35.1591L93.32 37.8865L71.0259 40.619L76.6639 50.273L60.0077 43.3516Z" fill="#00770E"/>
</svg>
