<svg width="160" height="160" viewBox="0 0 160 160" fill="none" xmlns="http://www.w3.org/2000/svg">
<circle cx="80" cy="80" r="79.25" fill="#E6E8EB" stroke="#CACDD2" stroke-width="1.5"/>
<path d="M80.2388 38.9512C120.598 38.9512 153.316 71.6213 153.316 111.922C153.316 111.968 153.315 112.014 153.315 112.061C140.957 140.283 112.781 160.001 79.9995 160.001C47.6432 160.001 19.7738 140.792 7.17236 113.155C7.16555 112.745 7.16162 112.334 7.16162 111.922C7.16164 71.6213 39.8795 38.9512 80.2388 38.9512Z" fill="#FA5332"/>
<path d="M63.4008 138.924C72.7022 138.924 80.2425 131.394 80.2425 122.106C80.2425 112.818 72.7022 105.289 63.4008 105.289C54.0994 105.289 46.5591 112.818 46.5591 122.106C46.5591 131.394 54.0994 138.924 63.4008 138.924Z" fill="#FAFAFA"/>
<path d="M63.4 135.004C70.5308 135.004 76.3113 129.232 76.3113 122.111C76.3113 114.991 70.5308 109.219 63.4 109.219C56.2693 109.219 50.4888 114.991 50.4888 122.111C50.4888 129.232 56.2693 135.004 63.4 135.004Z" fill="#121212"/>
<path d="M97.0854 138.924C106.387 138.924 113.927 131.394 113.927 122.106C113.927 112.818 106.387 105.289 97.0854 105.289C87.7839 105.289 80.2437 112.818 80.2437 122.106C80.2437 131.394 87.7839 138.924 97.0854 138.924Z" fill="#FAFAFA"/>
<path d="M97.0842 135.004C104.215 135.004 109.995 129.232 109.995 122.111C109.995 114.991 104.215 109.219 97.0842 109.219C89.9535 109.219 84.1729 114.991 84.1729 122.111C84.1729 129.232 89.9535 135.004 97.0842 135.004Z" fill="#121212"/>
<path d="M115.354 134.953C116.046 134.953 116.607 134.393 116.607 133.703C116.607 133.012 116.046 132.452 115.354 132.452C114.663 132.452 114.102 133.012 114.102 133.703C114.102 134.393 114.663 134.953 115.354 134.953Z" fill="#F8EDAD"/>
<path d="M43.9658 134.953C44.6575 134.953 45.2183 134.393 45.2183 133.703C45.2183 133.012 44.6575 132.452 43.9658 132.452C43.2741 132.452 42.7134 133.012 42.7134 133.703C42.7134 134.393 43.2741 134.953 43.9658 134.953Z" fill="#F8EDAD"/>
<path d="M112.014 139.124C112.706 139.124 113.267 138.564 113.267 137.874C113.267 137.183 112.706 136.623 112.014 136.623C111.322 136.623 110.762 137.183 110.762 137.874C110.762 138.564 111.322 139.124 112.014 139.124Z" fill="#F8EDAD"/>
<path d="M40.624 139.124C41.3157 139.124 41.8765 138.564 41.8765 137.874C41.8765 137.183 41.3157 136.623 40.624 136.623C39.9323 136.623 39.3716 137.183 39.3716 137.874C39.3716 138.564 39.9323 139.124 40.624 139.124Z" fill="#F8EDAD"/>
<path d="M117.858 139.124C118.55 139.124 119.11 138.564 119.11 137.874C119.11 137.183 118.55 136.623 117.858 136.623C117.166 136.623 116.605 137.183 116.605 137.874C116.605 138.564 117.166 139.124 117.858 139.124Z" fill="#F8EDAD"/>
<path d="M46.4678 139.124C47.1595 139.124 47.7202 138.564 47.7202 137.874C47.7202 137.183 47.1595 136.623 46.4678 136.623C45.7761 136.623 45.2153 137.183 45.2153 137.874C45.2153 138.564 45.7761 139.124 46.4678 139.124Z" fill="#F8EDAD"/>
<path d="M80.3857 56.6927L58.1775 65.9213L65.6879 53.0494L35.9692 49.406L65.6879 45.7694L58.1775 32.8906L80.3857 42.1261L102.594 32.8906L95.0767 45.7694L124.802 49.406L95.0767 53.0494L102.594 65.9213L80.3857 56.6927Z" fill="#00770E"/>
</svg>
