<svg width="64" height="64" viewBox="0 0 64 64" fill="none" xmlns="http://www.w3.org/2000/svg">
<g clip-path="url(#clip0_550_5672)">
<path fill-rule="evenodd" clip-rule="evenodd" d="M47.9678 12.0283C56.798 12.0285 63.956 19.1873 63.9561 28.0176H63.96V62.1924C63.96 63.1877 63.1535 63.995 62.1582 63.9951H45.7744C44.779 63.9951 43.9717 63.1878 43.9717 62.1924V52.083C43.9301 58.6716 38.5769 64 31.9785 64C25.4579 64 20.1525 58.7965 19.9883 52.3154V62.1924C19.9883 63.1877 19.1818 63.995 18.1865 63.9951H1.80273C0.807355 63.9951 0 63.1878 0 62.1924V28.0176C9.7934e-06 19.1872 7.15884 12.0283 15.9893 12.0283C24.8195 12.0285 31.9775 19.1873 31.9775 28.0176C31.9775 19.1872 39.1374 12.0283 47.9678 12.0283ZM19.9883 51.6963C19.9885 51.6875 19.989 51.6787 19.9893 51.6699V43.501L19.9883 51.6963Z" fill="#FA5332"/>
<path d="M38.5334 8.02906L46.8641 12.0485L35.2456 10.6889L31.9579 16.0631L28.6702 10.6889L17.0518 12.0485L25.3824 8.02906L17.0518 4.01453L28.6702 5.37413L31.9579 0L35.2456 5.37413L46.8641 4.01453L38.5334 8.02906Z" fill="#00770E"/>
</g>
<defs>
<clipPath id="clip0_550_5672">
<rect width="64" height="64" fill="white"/>
</clipPath>
</defs>
</svg>
