<svg width="36" height="36" viewBox="0 0 36 36" fill="none" xmlns="http://www.w3.org/2000/svg">
<circle cx="18" cy="18" r="16.5" fill="#FC9B88"/>
<path d="M26.7422 18C26.9081 18.4693 27 18.9738 27 19.5C27 21.9853 24.9853 24 22.5 24C20.0147 24 18 21.9853 18 19.5C18 18.9738 18.0919 18.4693 18.2578 18H26.7422Z" fill="#FAFAFA"/>
<path d="M25.0947 18C25.3506 18.4416 25.5 18.9529 25.5 19.5C25.5 21.1569 24.1569 22.5 22.5 22.5C20.8431 22.5 19.5 21.1569 19.5 19.5C19.5 18.9529 19.6494 18.4416 19.9053 18H25.0947Z" fill="#121212"/>
<path d="M17.7422 18C17.9081 18.4693 18 18.9738 18 19.5C18 21.9853 15.9853 24 13.5 24C11.0147 24 9 21.9853 9 19.5C9 18.9738 9.09186 18.4693 9.25781 18H17.7422Z" fill="#FAFAFA"/>
<path d="M16.0947 18C16.3506 18.4416 16.5 18.9529 16.5 19.5C16.5 21.1569 15.1569 22.5 13.5 22.5C11.8431 22.5 10.5 21.1569 10.5 19.5C10.5 18.9529 10.6494 18.4416 10.9053 18H16.0947Z" fill="#121212"/>
<rect x="16.5" y="24" width="3" height="1.5" rx="0.75" fill="#AF3A23"/>
<path d="M18 5.82364L14.25 7.5L15.5182 5.16182L10.5 4.5L15.5182 3.83943L14.25 1.5L18 3.17761L21.75 1.5L20.4807 3.83943L25.5 4.5L20.4807 5.16182L21.75 7.5L18 5.82364Z" fill="#638F5D"/>
</svg>
