<svg width="36" height="36" viewBox="0 0 36 36" fill="none" xmlns="http://www.w3.org/2000/svg">
<circle cx="18" cy="18" r="16.5" fill="#FC9B88"/>
<path d="M18.7724 20.8184C19.7426 16.9378 25.2584 16.9378 26.2285 20.8184C26.3287 21.2201 26.0838 21.6276 25.6821 21.7281C25.2804 21.8283 24.8729 21.5834 24.7724 21.1817C24.1808 18.8165 20.8201 18.8165 20.2285 21.1817C20.1281 21.5834 19.7206 21.8283 19.3188 21.7281C18.9171 21.6276 18.6722 21.2201 18.7724 20.8184Z" fill="#121212"/>
<path d="M9.77245 20.8184C10.7426 16.9378 16.2584 16.9378 17.2285 20.8184C17.3287 21.2201 17.0838 21.6276 16.6821 21.7281C16.2804 21.8283 15.8729 21.5834 15.7724 21.1817C15.1808 18.8165 11.8201 18.8165 11.2285 21.1817C11.1281 21.5834 10.7206 21.8283 10.3188 21.7281C9.9171 21.6276 9.67221 21.2201 9.77245 20.8184Z" fill="#121212"/>
<path d="M18.9329 23.5094C19.204 23.1963 19.6774 23.1621 19.9905 23.4332C20.3036 23.7043 20.3377 24.1777 20.0667 24.4908L18.5667 26.2237C18.4243 26.388 18.2172 26.4815 17.9998 26.4815C17.7824 26.4815 17.5754 26.388 17.4329 26.2237L15.9329 24.4908C15.6619 24.1777 15.696 23.7043 16.0091 23.4332C16.3222 23.1621 16.7956 23.1963 17.0667 23.5094L17.9998 24.586L18.9329 23.5094Z" fill="#AF3A23"/>
<path d="M18 5.82364L14.25 7.5L15.5182 5.16182L10.5 4.5L15.5182 3.83943L14.25 1.5L18 3.17761L21.75 1.5L20.4807 3.83943L25.5 4.5L20.4807 5.16182L21.75 7.5L18 5.82364Z" fill="#638F5D"/>
</svg>
