<svg width="36" height="36" viewBox="0 0 36 36" fill="none" xmlns="http://www.w3.org/2000/svg">
<circle cx="18" cy="18" r="16.5" fill="#FC9B88"/>
<path d="M18 5.82364L14.25 7.5L15.5182 5.16182L10.5 4.5L15.5182 3.83943L14.25 1.5L18 3.17761L21.75 1.5L20.4807 3.83943L25.5 4.5L20.4807 5.16182L21.75 7.5L18 5.82364Z" fill="#638F5D"/>
<path d="M16.5 18.438C16.5 20.626 13.0249 22.397 12.8769 22.4702C12.8379 22.4897 12.7943 22.5 12.75 22.5C12.7057 22.5 12.6621 22.4897 12.6231 22.4702C12.4751 22.397 9 20.626 9 18.438C9.00062 17.9242 9.21953 17.4316 9.6087 17.0683C9.99787 16.7049 10.5255 16.5006 11.0759 16.5C11.7673 16.5 12.3727 16.7776 12.75 17.2467C13.1273 16.7776 13.7327 16.5 14.4241 16.5C14.9745 16.5006 15.5021 16.7049 15.8913 17.0683C16.2805 17.4316 16.4994 17.9242 16.5 18.438Z" fill="#121212"/>
<path d="M16.5 18.438C16.4995 17.9886 16.3322 17.5551 16.0298 17.2104L15.8906 17.0684C15.5015 16.7053 14.9745 16.5006 14.4243 16.5C13.7329 16.5 13.1273 16.7779 12.75 17.2471C12.3727 16.7779 11.7671 16.5 11.0757 16.5C10.5255 16.5006 9.99847 16.7053 9.60938 17.0684L9.47021 17.2104C9.16779 17.5551 9.00054 17.9886 9 18.438L9.01025 18.6416C9.21394 20.7338 12.4761 22.3983 12.6226 22.4707C12.6616 22.4903 12.7057 22.5 12.75 22.5C12.7943 22.5 12.8384 22.4903 12.8774 22.4707C13.0239 22.3983 16.2861 20.7338 16.4897 18.6416L16.5 18.438ZM18 18.438C18 19.3887 17.6232 20.2038 17.1885 20.833C16.7526 21.4639 16.1995 21.9935 15.6929 22.4077C14.6815 23.2345 13.6634 23.7549 13.541 23.8154L13.5396 23.814C13.2911 23.9368 13.0209 24 12.75 24C12.4787 24 12.2077 23.9372 11.959 23.814C11.8366 23.7535 10.8185 23.2345 9.80713 22.4077C9.3005 21.9935 8.74741 21.4639 8.31152 20.833C7.87681 20.2038 7.50001 19.3887 7.5 18.438L7.51904 18.085C7.60636 17.2736 7.99025 16.5268 8.58545 15.9712C9.26209 15.3398 10.1588 15.001 11.0742 15C11.659 15 12.2349 15.1295 12.75 15.3809C13.2651 15.1295 13.8396 15 14.4243 15L14.7671 15.0161C15.5615 15.0902 16.3223 15.4185 16.9146 15.9712C17.5947 16.6062 17.9989 17.4924 18 18.438Z" fill="#FAFAFA"/>
<path d="M27 18.438C27 20.626 23.5249 22.397 23.3769 22.4702C23.3379 22.4897 23.2943 22.5 23.25 22.5C23.2057 22.5 23.1621 22.4897 23.1231 22.4702C22.9751 22.397 19.5 20.626 19.5 18.438C19.5006 17.9242 19.7195 17.4316 20.1087 17.0683C20.4979 16.7049 21.0255 16.5006 21.5759 16.5C22.2673 16.5 22.8727 16.7776 23.25 17.2467C23.6273 16.7776 24.2327 16.5 24.9241 16.5C25.4745 16.5006 26.0021 16.7049 26.3913 17.0683C26.7805 17.4316 26.9994 17.9242 27 18.438Z" fill="#121212"/>
<path d="M27 18.438C26.9995 17.9886 26.8322 17.5551 26.5298 17.2104L26.3906 17.0684C26.0015 16.7053 25.4745 16.5006 24.9243 16.5C24.2329 16.5 23.6273 16.7779 23.25 17.2471C22.8727 16.7779 22.2671 16.5 21.5757 16.5C21.0255 16.5006 20.4985 16.7053 20.1094 17.0684L19.9702 17.2104C19.6678 17.5551 19.5005 17.9886 19.5 18.438L19.5103 18.6416C19.7139 20.7338 22.9761 22.3983 23.1226 22.4707C23.1616 22.4903 23.2057 22.5 23.25 22.5C23.2943 22.5 23.3384 22.4903 23.3774 22.4707C23.5239 22.3983 26.7861 20.7338 26.9897 18.6416L27 18.438ZM28.5 18.438C28.5 19.3887 28.1232 20.2038 27.6885 20.833C27.2526 21.4639 26.6995 21.9935 26.1929 22.4077C25.1815 23.2345 24.1634 23.7549 24.041 23.8154L24.0396 23.814C23.7911 23.9368 23.5209 24 23.25 24C22.9787 24 22.7077 23.9372 22.459 23.814V23.8154C22.3366 23.7549 21.3185 23.2345 20.3071 22.4077C19.8005 21.9935 19.2474 21.4639 18.8115 20.833C18.3768 20.2038 18 19.3887 18 18.438V18.4365L18.019 18.085C18.1064 17.2736 18.4903 16.5268 19.0854 15.9712C19.7621 15.3398 20.6588 15.001 21.5742 15H21.5757C22.1604 15 22.7349 15.1295 23.25 15.3809C23.7651 15.1295 24.3396 15 24.9243 15H24.9258L25.2671 15.0161C26.0615 15.0902 26.8223 15.4185 27.4146 15.9712C28.0947 16.6062 28.4989 17.491 28.5 18.4365V18.438Z" fill="#FAFAFA"/>
<path d="M15 24.1429C15 24.064 15.064 24 15.1429 24H20.8571C20.936 24 21 24.064 21 24.1429C21 25.7208 19.7208 27 18.1429 27H17.8571C16.2792 27 15 25.7208 15 24.1429Z" fill="#AF3A23"/>
</svg>
