<svg width="36" height="36" viewBox="0 0 36 36" fill="none" xmlns="http://www.w3.org/2000/svg">
<circle cx="18" cy="18" r="16.5" fill="#FC9B88"/>
<path d="M18.9329 26.2227C19.204 26.5358 19.6774 26.57 19.9905 26.2989C20.3036 26.0278 20.3377 25.5544 20.0667 25.2413L18.5667 23.5083C18.4243 23.3441 18.2172 23.2505 17.9998 23.2505C17.7824 23.2505 17.5754 23.3441 17.4329 23.5083L15.9329 25.2413C15.6619 25.5544 15.696 26.0277 16.0091 26.2989C16.3222 26.5699 16.7956 26.5358 17.0667 26.2227L17.9998 25.146L18.9329 26.2227Z" fill="#AF3A23"/>
<path d="M25.9463 16.6079C26.6034 17.3901 27 18.399 27 19.5005C26.9997 21.9855 24.9851 24.0005 22.5 24.0005C20.2811 24.0005 18.4381 22.3938 18.0684 20.2808L25.9463 16.6079Z" fill="#FAFAFA"/>
<path d="M24.5107 17.2773C25.1175 17.8263 25.501 18.6173 25.501 19.5C25.501 21.1569 24.1578 22.5 22.501 22.5C20.8817 22.5 19.563 21.2171 19.5039 19.6123L24.5107 17.2773Z" fill="#121212"/>
<path d="M10.0537 16.6079C9.39661 17.3901 9 18.399 9 19.5005C9.00026 21.9855 11.0149 24.0005 13.5 24.0005C15.7189 24.0005 17.5619 22.3938 17.9316 20.2808L10.0537 16.6079Z" fill="#FAFAFA"/>
<path d="M11.4893 17.2773C10.8825 17.8263 10.499 18.6173 10.499 19.5C10.499 21.1569 11.8422 22.5 13.499 22.5C15.1183 22.5 16.437 21.2171 16.4961 19.6123L11.4893 17.2773Z" fill="#121212"/>
<path d="M18 5.82364L14.25 7.5L15.5182 5.16182L10.5 4.5L15.5182 3.83943L14.25 1.5L18 3.17761L21.75 1.5L20.4807 3.83943L25.5 4.5L20.4807 5.16182L21.75 7.5L18 5.82364Z" fill="#638F5D"/>
</svg>
