<svg width="40" height="40" viewBox="0 0 40 40" fill="none" xmlns="http://www.w3.org/2000/svg">
<rect x="0.5" y="0.5" width="39" height="39" rx="19.5" fill="#E6E8EB"/>
<rect x="0.5" y="0.5" width="39" height="39" rx="19.5" stroke="#CACDD2"/>
<path d="M19.9678 10.0146C30.0444 10.0146 38.215 18.1608 38.2363 28.2178C35.1013 35.1645 28.1154 39.9998 19.999 40C11.8297 40 4.80512 35.1015 1.7002 28.082C1.79442 18.0876 9.93658 10.0147 19.9678 10.0146Z" fill="#FA5332"/>
<path d="M15.7583 35.0086C18.0836 35.0086 19.9687 33.1263 19.9687 30.8043C19.9687 28.4823 18.0836 26.6 15.7583 26.6C13.4329 26.6 11.5479 28.4823 11.5479 30.8043C11.5479 33.1263 13.4329 35.0086 15.7583 35.0086Z" fill="#FAFAFA"/>
<path d="M15.7581 34.0274C17.5408 34.0274 18.9859 32.5844 18.9859 30.8043C18.9859 29.0242 17.5408 27.5812 15.7581 27.5812C13.9754 27.5812 12.5303 29.0242 12.5303 30.8043C12.5303 32.5844 13.9754 34.0274 15.7581 34.0274Z" fill="#121212"/>
<path d="M24.1792 35.0086C26.5045 35.0086 28.3896 33.1263 28.3896 30.8043C28.3896 28.4823 26.5045 26.6 24.1792 26.6C21.8538 26.6 19.9688 28.4823 19.9688 30.8043C19.9688 33.1263 21.8538 35.0086 24.1792 35.0086Z" fill="#FAFAFA"/>
<path d="M24.179 34.0274C25.9617 34.0274 27.4068 32.5844 27.4068 30.8043C27.4068 29.0242 25.9617 27.5812 24.179 27.5812C22.3963 27.5812 20.9512 29.0242 20.9512 30.8043C20.9512 32.5844 22.3963 34.0274 24.179 34.0274Z" fill="#121212"/>
<path d="M28.7467 34.0162C28.9196 34.0162 29.0598 33.8762 29.0598 33.7035C29.0598 33.5309 28.9196 33.3909 28.7467 33.3909C28.5738 33.3909 28.4336 33.5309 28.4336 33.7035C28.4336 33.8762 28.5738 34.0162 28.7467 34.0162Z" fill="#F8EDAD"/>
<path d="M10.899 34.0162C11.072 34.0162 11.2122 33.8762 11.2122 33.7035C11.2122 33.5309 11.072 33.3909 10.899 33.3909C10.7261 33.3909 10.5859 33.5309 10.5859 33.7035C10.5859 33.8762 10.7261 34.0162 10.899 34.0162Z" fill="#F8EDAD"/>
<path d="M27.9117 35.0584C28.0847 35.0584 28.2249 34.9184 28.2249 34.7458C28.2249 34.5731 28.0847 34.4331 27.9117 34.4331C27.7388 34.4331 27.5986 34.5731 27.5986 34.7458C27.5986 34.9184 27.7388 35.0584 27.9117 35.0584Z" fill="#F8EDAD"/>
<path d="M10.0641 35.0584C10.237 35.0584 10.3772 34.9184 10.3772 34.7458C10.3772 34.5731 10.237 34.4331 10.0641 34.4331C9.89116 34.4331 9.75098 34.5731 9.75098 34.7458C9.75098 34.9184 9.89116 35.0584 10.0641 35.0584Z" fill="#F8EDAD"/>
<path d="M29.3727 35.0584C29.5456 35.0584 29.6858 34.9184 29.6858 34.7458C29.6858 34.5731 29.5456 34.4331 29.3727 34.4331C29.1998 34.4331 29.0596 34.5731 29.0596 34.7458C29.0596 34.9184 29.1998 35.0584 29.3727 35.0584Z" fill="#F8EDAD"/>
<path d="M11.525 35.0584C11.698 35.0584 11.8381 34.9184 11.8381 34.7458C11.8381 34.5731 11.698 34.4331 11.525 34.4331C11.3521 34.4331 11.2119 34.5731 11.2119 34.7458C11.2119 34.9184 11.3521 35.0584 11.525 35.0584Z" fill="#F8EDAD"/>
<path d="M20.0045 14.4505L14.4525 16.7577L16.33 13.5397L8.90039 12.6288L16.33 11.7197L14.4525 8.5L20.0045 10.8089L25.5566 8.5L23.6773 11.7197L31.1086 12.6288L23.6773 13.5397L25.5566 16.7577L20.0045 14.4505Z" fill="#00770E"/>
</svg>
